<?xml version="1.0" encoding="UTF-8"?>
<svg width="288px" height="296px" viewBox="0 0 288 296" version="1.1" xmlns="http://www.w3.org/2000/svg" xmlns:xlink="http://www.w3.org/1999/xlink">
    <!-- Generator: Sketch 49.1 (51147) - http://www.bohemiancoding.com/sketch -->
    <title>Flower Copy 2</title>
    <desc>Created with Sketch.</desc>
    <defs></defs>
    <g id="Main" stroke="none" stroke-width="1" fill="none" fill-rule="evenodd">
        <path d="M112.571224,0 C110.284797,0 103.087915,1.00411506 102.262019,5.08939991 C101.436124,9.17468477 102.778004,29.8546735 105.330873,38.3005417 C107.883742,46.7464099 117.637441,94.2651045 116.769526,99.1335412 C115.901611,104.001978 122.103797,116.215813 121.045346,118.586278 C119.986896,120.956743 113.465846,102.266148 111.593141,94.6671852 C109.720435,87.0682221 100.978259,54.6192225 99.602491,50.2376296 C98.226723,45.8560366 92.3215701,18.3312578 90.5857406,14.2887167 C88.8499111,10.2461755 83.4526116,11.8124791 81.5262465,17.1677594 C79.5998815,22.5230397 110.968697,112.037796 114.419346,120.039564 C117.869995,128.041333 117.245551,136.148149 114.419346,132.189646 C111.593141,128.231144 57.7129262,33.0430648 56.6544759,30.7356287 C55.9488424,29.1973379 52.3011373,29.9664833 45.7113605,33.0430648 C84.3680998,91.9859227 103.96887,122.346518 104.513671,124.124849 C105.330873,126.792347 103.159637,129.459844 101.381064,126.792347 C99.602491,124.124849 42.8533274,68.0740745 41.2870238,64.4336141 C39.7207203,60.7931537 32.6716297,55.7762007 29.6027759,57.300485 C26.5339221,58.8247694 18.9769782,60.5178552 22.4906565,64.4336141 C26.0043347,68.349373 108.766935,145.496707 111.593141,146.745692 C114.419346,147.994678 110.126863,151.085266 106.194441,150.238361 C102.262019,149.391456 28.9543755,117.809647 25.722516,111.84074 C22.4906565,105.871834 1.46437123,102.781971 1.23181645,104.178748 C1.07677992,105.109934 0.999261662,108.129765 0.999261662,113.238243 C72.5817016,143.140489 109.772356,157.414234 112.571224,156.059475 C116.769526,154.027338 102.551807,160.038263 99.602491,159.741955 C96.6531747,159.445647 28.9543755,179.174407 25.722516,177.861668 C22.4906565,176.548929 14.3555858,183.068432 11.2229786,182.073735 C8.09037147,181.079038 -0.864074506,181.057304 0.0675935781,184.063129 C0.999261662,187.068954 1.16951205,193.418931 5.14829986,193.694229 C9.12708766,193.969528 51.8309564,183.636416 55.7684494,179.889458 C59.7059425,176.142501 112.069166,161.473438 114.419346,162.807187 C116.769526,164.140935 113.549307,167.358305 112.571224,168.310983 C111.593141,169.263661 69.1160799,197.500593 66.7666245,200.844746 C64.4171692,204.188898 50.21394,214.264823 47.3138876,214.645894 C44.4138352,215.026965 25.9782538,226.710489 26.6338989,230.774764 C27.289544,234.839039 27.3221451,241.359267 29.6027759,240.1523 C31.8834066,238.945334 58.2106856,218.646416 60.5836619,215.746364 C62.9566382,212.846311 91.5326226,187.653601 93.712552,185.858365 C95.8924815,184.063129 101.381064,180.084341 101.381064,182.073735 C101.381064,184.063129 93.5763517,191.891749 90.5857406,194.85483 C87.5951295,197.817911 80.1656924,208.676264 76.9693319,211.661079 C73.7729714,214.645894 60.6767319,227.035776 56.6544759,230.774764 C52.6322199,234.513752 40.9052283,248.16566 36.8199434,251.404764 C32.7346586,254.643868 24.332983,265.163169 22.4906565,265.798529 C20.6483299,266.433889 15.5893577,269.672269 19.0400071,273.778563 C22.4906565,277.884858 30.4279469,276.022246 32.6926393,271.852198 C34.9573317,267.68215 99.1931656,195.417018 102.262019,192.708226 C105.330873,189.999434 122.568182,165.4189 123.838177,168.310983 C125.108173,171.203066 120.133963,183.649456 117.91129,188.178841 C115.688617,192.708226 104.921548,227.163282 102.262019,230.774764 C99.602491,234.386246 92.9996738,264.125728 90.5857406,268.952146 C88.1718074,273.778563 80.5540081,287.346432 81.5262465,291.050646 C82.4984849,294.75486 86.3722246,296.385641 88.9969785,293.718144 C91.6217323,291.050646 103.696469,251.354051 104.513671,245.753176 C105.330873,240.1523 118.252515,201.353323 121.045346,192.708226 C123.838177,184.063129 125.954353,176.663395 127.182329,176.621375 C128.410306,176.579356 129.638282,184.432608 128.410306,188.178841 C127.182329,191.925074 126.378168,199.134997 125.108173,206.890446 C123.838177,214.645894 122.697862,239.868308 121.045346,244.102109 C119.392831,248.33591 119.053055,254.919167 117.91129,258.750163 C116.769526,262.581159 115.540101,274.816004 115.519091,278.816526 C115.498082,282.817048 116.267468,287.430471 114.419346,291.050646 C112.571224,294.670822 121.850957,297.612893 121.045346,288.849707 C120.239736,280.086521 122.568182,252.335708 123.838177,245.753176 C125.108173,239.170644 131.669695,219.881637 130.992316,211.661079 C130.314937,203.440521 130.929287,182.606944 134.040884,185.858365 C137.152482,189.109785 135.628922,191.820026 137.152482,197.979468 C138.676042,204.13891 146.149672,245.444552 147.673956,249.995671 C149.19824,254.54679 154.977335,282.128077 159.274165,279.735878 C163.570996,277.343679 166.618115,278.254337 164.417176,267.39526 C162.216237,256.536183 148.266572,195.318491 145.303491,189.69081 C142.34041,184.063129 139.377329,175.381083 142.34041,176.621375 C145.303491,177.861668 155.951023,195.11419 159.274165,197.979468 C162.597308,200.844746 188.58766,235.439625 192.821461,240.1523 C197.055262,244.864976 216.634782,266.096286 218.793701,264.656765 C220.952621,263.217243 225.228442,259.597793 220.952621,257.099821 C216.676801,254.601849 155.038191,184.258011 154.847655,182.073735 C154.65712,179.889458 204.230411,214.300322 208.400458,221.137143 C212.570506,227.973964 236.446855,250.091301 239.45268,251.404764 C242.458505,252.718228 246.882842,252.992802 245.739629,247.976573 C244.596416,242.960345 237.187988,237.238483 233.991628,234.006623 C230.795267,230.774764 215.259738,214.948723 211.830098,213.304901 C208.400458,211.661079 154.573081,168.113927 150.720351,166.885951 C146.867621,165.657975 144.560185,161.227842 148.518688,162.017514 C152.47719,162.807187 225.526923,172.239783 228.25745,173.975612 C230.987976,175.711441 246.864006,182.073735 249.848097,182.073735 C252.832188,182.073735 279.3543,190.499318 283.016495,188.178841 C286.678689,185.858365 290.742965,179.10196 285.493457,177.861668 C280.243949,176.621375 259.712477,173.425739 255.28814,171.329849 C250.863803,169.233958 243.40901,165.358769 239.45268,166.12236 C235.496351,166.885951 206.688536,165.077675 202.222181,163.942431 C197.755825,162.807187 184.927639,158.250996 178.42987,159.741955 C171.932101,161.232914 157.326791,157.130242 158.300478,156.059475 C159.274165,154.988709 169.962992,153.917943 172.270428,154.988709 C174.577864,156.059475 202.094674,153.917943 204.613655,154.988709 C207.132636,156.059475 231.915297,155.098104 233.991628,156.059475 C236.067958,157.020847 262.80234,158.79942 267.565004,158.248823 C272.327668,157.698226 278.995688,160.43817 280.011394,158.248823 C281.027101,156.059475 282.424603,156.690489 280.011394,153.464425 C277.598186,150.238361 276.77229,148.366331 275.904375,146.745692 C275.036461,145.125054 274.677124,145.188807 272.623976,145.125054 C270.570829,145.0613 233.951057,146.817415 228.25745,145.971234 C222.563842,145.125054 193.353222,145.572561 190.368407,146.817415 C187.383591,148.062269 162.449516,147.012297 159.274165,150.238361 C156.098815,153.464425 149.622055,152.5755 153.05097,149.273367 C156.479886,145.971234 185.202937,138.732333 187.785672,137.081266 C190.368407,135.4302 232.681062,123.022206 235.665153,122.42959 C238.649243,121.836974 248.06735,115.857925 248.957723,113.238243 C249.848097,110.61856 255.987978,105.07202 249.848097,106.088451 C243.708216,107.104882 234.416891,110.443238 231.855166,111.84074 C229.293441,113.238243 214.350528,120.758238 210.434045,120.92704 C206.517562,121.095841 194.642778,129.118619 191.679697,128.737548 C188.716616,128.356477 170.554159,135.349783 165.728466,137.081266 C160.902773,138.812749 155.38159,144.400584 153.05097,143.194342 C150.720351,141.9881 152.77205,140.316023 154.847655,137.987578 C156.923261,135.659132 183.891647,122.786029 187.785672,118.586278 C191.679697,114.386527 199.870552,111.909565 203.109656,107.252674 C206.34876,102.595782 223.533182,88.7620324 230.051961,85.4598993 C236.57074,82.1577663 246.985717,78.4108088 247.133509,75.2782016 C247.2813,72.1455945 248.822972,66.6910618 247.2813,64.4336141 C245.739629,62.1761664 236.128089,66.3462142 233.991628,69.4788214 C231.855166,72.6114285 203.04228,92.6147625 200.015446,96.4457584 C196.988611,100.276754 189.092615,105.434254 184.372695,109.336249 C179.652775,113.238243 176.896892,115.81663 170.657034,120.92704 C164.417176,126.037449 155.38159,132.471465 153.05097,133.97474 C150.720351,135.478015 149.127242,135.146932 151.987449,129.635891 C154.847655,124.124849 169.047262,96.000934 169.852148,90.7304167 C170.657034,85.4598993 177.747419,76.2098697 180.647472,72.33613 C183.547524,68.4623903 197.107424,46.5884755 199.138837,42.4445086 C201.17025,38.3005417 206.609569,30.7356287 201.17025,30.7356287 C195.730932,30.7356287 192.470818,34.0834033 188.851367,39.1843948 C185.231916,44.2853862 176.560013,63.6403197 172.270428,72.33613 C167.980843,81.0319403 163.223975,90.2008293 161.24907,94.6671852 C159.274165,99.1335412 158.271499,104.199034 155.661235,108.019887 C153.05097,111.84074 148.266572,118.015396 145.303491,123.376472 C142.34041,128.737548 140.812503,133.97474 138.420304,133.97474 C136.028105,133.97474 136.324413,129.049795 136.028105,123.376472 C135.731797,117.70315 137.615418,85.9105195 139.520774,77.1683432 C141.426129,68.4261668 145.303491,64.891479 145.303491,58.7740565 C145.303491,52.656634 147.792769,42.8364467 146.54813,39.1843948 C145.303491,35.5323428 145.160046,24.144403 142.34041,25.1818436 C139.520774,26.2192843 132.053664,29.6011091 134.040884,33.0430648 C136.028105,36.4850205 138.015325,57.8793364 136.028105,64.4336141 C134.040884,70.9878918 132.215221,95.8524177 133.128053,101.552546 C134.040884,107.252674 135.090641,134.743402 132.215221,132.189646 C129.3398,129.635891 126.694037,124.362475 126.333975,120.92704 C125.973914,117.491604 120.758456,58.8573705 118.763991,54.5475 C116.769526,50.2376296 114.419346,44.3462416 114.419346,36.2597104 C114.419346,28.1731792 114.85765,0 112.571224,0 Z" id="Flower-Copy-2" fill="#7F87AA"></path>
    </g>
</svg>