<?xml version="1.0" encoding="UTF-8" standalone="no"?>
<!-- Created with Keyshape -->
<svg xmlns="http://www.w3.org/2000/svg" xmlns:xlink="http://www.w3.org/1999/xlink" width="416px" height="818px" viewBox="0 0 416 818">
    <title>guy_02</title>
    <desc>Created with Sketch.</desc>
    <defs>
        <path id="path-1" d="M12.2172,6.32227C-4.52539,13.099,0.585893,116.289,3,135C5.41411,153.711,16.7548,191.635,22.2176,204.379C27.6804,217.123,50.4688,268.5,64.8516,271.32C79.2344,274.141,91.3443,289.344,91.3443,296.414C91.3443,303.484,80.509,348.158,74.1996,354.5C69.9933,358.728,102.06,379.105,170.399,415.633L287.029,354.5C263.166,312.079,248.229,282.381,242.22,265.408C224.282,214.738,226.47,182.573,227.981,179.662C231.387,173.102,202.987,132.574,199.473,115.562C195.959,98.5508,197.137,70.7129,191.16,63.8359C185.182,56.959,203.115,47.6445,197.137,36.8633C191.16,26.082,169.277,-4.20703,156.982,1.56641C144.688,7.33984,122.499,23.2676,91.3443,22.8555C60.19,22.4434,28.9598,-0.45444,12.2172,6.32227Z"/>
        <path id="path-3" d="M185.29,28.0106C180.1,30.064,177.505,32.7092,177.505,35.9461C177.505,40.8016,182.701,59.159,159.431,71.6805C136.162,84.202,79.332,114.079,68.8984,120.906C58.4648,127.734,39.8038,156.864,37.5782,171.288C35.3526,185.712,27.8214,227.093,26.9217,241.725C26.0221,256.358,-17.1445,466.742,7.95312,500.469C24.6849,522.953,200.502,522.953,535.406,500.469C540.449,422.066,540.449,380.177,535.406,374.802C527.841,366.739,519.469,309.22,519.349,297.915C519.23,286.61,511.311,280.255,511.18,263.872C511.048,247.489,493.438,158.095,489.886,152.759C486.335,147.423,467.725,98.4149,456.723,92.5789C445.72,86.743,402.289,74.5418,390.845,61.3348C379.401,48.1278,359.196,23.6043,358.445,18.0789C357.695,12.5536,337.775,-5.55973,339.945,1.68637C342.116,8.93246,363.046,33.2176,339.945,61.3348C316.845,89.452,277.904,113.927,269.44,114.079C260.975,114.231,240.772,94.0379,230.112,96.2704C219.451,98.5028,185.29,85.6473,185.29,71.6805C185.29,62.3693,185.29,47.8127,185.29,28.0106Z"/>
        <path id="path-5" d="M156,86C132.731,98.5215,91.332,121.079,80.8984,127.906C70.4648,134.734,51.8038,163.864,49.5782,178.288C47.3526,192.712,39.8214,234.093,38.9217,248.725C38.0221,263.358,-5.14453,473.742,19.9531,507.469C36.6849,529.953,212.502,529.953,547.406,507.469C552.449,429.066,552.449,387.177,547.406,381.802C539.841,373.739,531.469,316.22,531.349,304.915C531.23,293.61,523.311,287.255,523.18,270.872C523.048,254.489,505.438,165.095,501.886,159.759C498.335,154.423,479.725,105.415,468.723,99.5789C457.72,93.743,414.289,81.5418,402.845,68.3348C391.401,55.1278,371.196,30.6043,370.445,25.0789C369.695,19.5536,349.775,1.44027,351.945,8.68637C354.116,15.9325,375.046,40.2176,351.945,68.3348C328.845,96.452,289.904,120.927,281.44,121.079C272.975,121.231,252.772,101.038,242.112,103.27C231.451,105.503,192,99.6652,187,86C182,72.3348,179.269,73.4785,156,86Z"/>
        <mask id="mask-2" fill="white">
            <use xlink:href="#path-1"/>
        </mask>
    </defs>
    <g id="guy_02" stroke="none" stroke-width="1" fill="none" fill-rule="evenodd">
        <g id="Path-24" transform="translate(95,73)">
            <use id="Mask" fill="#F4BBBC" xlink:href="#path-1"/>
            <path id="_a0" d="M72.5049,273.107C109.249,280.436,135.703,282.063,151.865,277.988C168.027,273.913,194.481,258.947,231.225,233.09C201.929,289.041,168.823,315.974,131.908,313.887C94.9919,311.801,75.191,298.207,72.5049,273.107Z" fill="#D59FA0" mask="url(#mask-2)"/>
        </g>
        <path id="Path-15" d="M167.505,226.963L154.931,232.441" stroke="#D59FA0" stroke-width="6" transform="translate(161.218,229.702) scale(1,-1) translate(-161.218,-229.702)"/>
        <path id="Path-25" d="M174.696,227.082L187.239,231.348" stroke="#D59FA0" stroke-width="6" transform="translate(180.968,229.215) scale(1,-1) translate(-180.968,-229.215)"/>
        <g id="Path-9" transform="translate(0,347)">
            <use id="Mask-Copy" fill="#D1D1D1" xlink:href="#path-3"/>
            <use id="Mask-2" fill="#E9E9E9" xlink:href="#path-5"/>
        </g>
        <ellipse id="Oval-5" fill="#FFFFFF" rx="4.52581" ry="4.5" transform="translate(0,0) translate(217.662,184.5)"/>
        <path id="eye" fill="#FFFFFF" d="M4.52581,0C4.52581,2.48528,2.49954,4.5,0,4.5C-2.49954,4.5,-4.52581,2.48528,-4.52581,0C-4.52581,-2.48528,-2.49954,-4.5,0,-4.5C2.49954,-4.5,4.52581,-2.48528,4.52581,0Z" transform="translate(0,0) translate(138.208,192.5)"/>
        <path id="Path-3" d="M207.59,149.088C193.528,153.023,186.475,155.357,186.432,156.089C186.366,157.186,184.041,165.231,190.629,165.562C197.218,165.893,217.447,160.954,220.308,158.521C223.169,156.089,231.523,150.307,238.047,151.582C244.572,152.857,259.517,151.604,252.492,150.307C245.466,149.009,227.916,142.046,222.652,143.11C219.142,143.82,214.122,145.812,207.59,149.088Z" fill="#FFFFFF"/>
        <path id="Path-7" d="M116.579,160.874C119.296,160.429,120.809,160.952,122.936,161.832C125.062,162.712,147.418,171.587,148.124,169.718C148.83,167.848,151.352,163.72,148.896,161.832C146.44,159.944,125.321,150.805,124.491,150.805C123.717,150.805,118.97,148.445,115.897,151.806C115.673,152.051,115.457,152.327,115.253,152.636C112.251,157.184,107.677,163.255,110.354,163.888C113.031,164.521,113.862,161.318,116.579,160.874Z" fill="#FFFFFF"/>
        <path id="Path-10" d="M305.809,559.75C315.16,553.32,387.449,567.426,393.023,571.922C396.74,574.919,396.74,582.184,393.023,593.715L296.457,586.43C296.457,572.93,299.574,564.036,305.809,559.75Z" fill="#D1D1D1"/>
        <path id="Path-21" d="M110.266,65.2813C119.422,42.4271,126.827,28,132.481,22C140.961,13,165,0,214,0C263,0,324.104,13.7988,339.094,55.3008C349.088,82.9688,354.057,126.202,354.001,185L322.143,151.459L266.991,117.238L209.125,94.9564L132.481,85.4316L110.266,65.2813Z" fill="#5E667B"/>
        <path id="Path-20" d="M354.383,185.004C305.854,123.997,252.049,87.6113,192.967,75.8457C104.344,58.1973,30.916,59.332,28.2402,73.752C25.5645,88.1719,23.1992,108.404,55.3867,121.182C76.8451,129.7,90.0495,135.639,95,139C94.7474,115.966,105.414,103.633,127,102C159.379,99.5508,190.807,89.9785,257.482,121.182C301.933,141.984,334.233,163.258,354.383,185.004Z" fill="#4C5365"/>
        <path id="Path-19" d="M259.246,474.727C238.178,683.315,238.178,796.568,259.246,814.484" stroke="#D1D1D1" stroke-width="4"/>
        <ellipse id="Oval-6" fill="#D1D1D1" rx="8" ry="8" transform="translate(0,0) translate(235,524)"/>
        <ellipse id="Oval-6-Copy-3" fill="#D1D1D1" rx="8" ry="8" transform="translate(0,0) translate(229,584)"/>
        <ellipse id="Oval-6-Copy-4" fill="#D1D1D1" rx="8" ry="8" transform="translate(0,0) translate(226,644)"/>
        <ellipse id="Oval-6-Copy-5" fill="#D1D1D1" rx="8" ry="8" transform="translate(0,0) translate(223,701)"/>
        <path id="Path-22" d="M280.717,131.725C285.855,147.892,289.018,158.913,290.207,164.787C294.604,186.519,290.694,185.154,290.207,185.918C289.18,187.529,305.791,157.111,322.51,159.224C333.656,160.632,319.725,151.465,280.717,131.725Z" fill="#E9E9E9"/>
        <path id="moustache" d="M230.507,264.201C235.359,266.112,229.263,268.599,230.507,269.855C231.751,271.111,232.598,278.221,230.507,277.967C228.416,277.713,215.29,278.475,212.584,278.221C209.878,277.967,199.138,276.098,196.522,276.098C193.906,276.098,177.859,275.461,176,274.87C174.141,274.278,166.86,273.641,165.612,274.87C164.364,276.098,162.958,279.836,160.68,277.967C158.402,276.098,153.421,278.221,151.574,278.221C150.342,278.221,144.005,281.577,132.563,288.289C129.162,289.934,127.071,289.3,126.289,286.384C125.117,282.011,123.637,274.885,127.461,271.053C130.011,268.499,143.54,261.544,168.048,250.191C171.261,248.603,175.444,248.603,180.597,250.191C188.326,252.573,225.656,262.289,230.507,264.201Z" fill="#FFFFFF"/>
        <path id="Combined-Shape" d="M301.733,203.404C297.942,198.627,295.679,192.593,295.679,186.032C295.679,170.547,308.287,157.994,323.839,157.994C339.096,157.994,351.519,170.074,351.986,185.152L352,185.147L352,228.827L351.997,228.828C351.839,236.679,345.398,242.994,337.475,242.994C331.154,242.994,325.777,238.974,323.78,233.362L323.718,233.372L301.607,203.449L301.733,203.404Z" fill="#F4BBBC" transform="translate(603.473,-58.1078) rotate(-11) scale(-1,1)"/>
        <path id="Combined-Shape-2" d="M342.13,186.311L342.132,186.311L342.132,205.954L342.128,205.954C342.131,206.053,342.132,206.152,342.132,206.251C342.132,211.676,337.807,216.073,332.473,216.073C327.138,216.073,322.813,211.676,322.813,206.251C322.813,206.151,322.815,206.051,322.817,205.951C322.719,205.953,322.62,205.954,322.52,205.954C311.689,205.954,302.908,197.026,302.908,186.013C302.908,175,311.689,166.073,322.52,166.073C333.352,166.073,342.132,175,342.132,186.013C342.132,186.113,342.131,186.212,342.13,186.311Z" fill="#D59FA0" transform="translate(602.657,-58.0292) rotate(-11) scale(-1,1)"/>
        <path id="Combined-Shape-3" d="M311.428,207.27C306.843,207.115,303.174,203.371,303.174,198.775C303.174,194.178,306.843,190.434,311.428,190.279L311.428,190.275L320.271,190.275L320.271,207.275L311.428,207.275L311.428,207.27Z" fill="#BE8C8D" transform="translate(579.79,-55.8274) rotate(-11) scale(-1,1)"/>
        <path id="Rectangle-2" d="M311.353,192.129L311.398,192.129L311.398,208.129L311.353,208.129C306.934,208.129,303.353,204.547,303.353,200.129L303.353,200.129C303.353,195.711,306.934,192.129,311.353,192.129Z" fill="#F4BBBC" transform="translate(570.917,-54.9731) rotate(-11) scale(-1,1)"/>
    </g>
    <script><![CDATA[window.ks=function(){function z(a){return"undefined"!==typeof a}function v(a,b){return a&&0==a.indexOf(b)}function N(a){if(!isFinite(a))throw"non-finite value";}function O(a){if(14>=a)return 16;(a=X[a])||(a=0);return a}function D(a){return 0<=a?Math.pow(a,1/3):-Math.pow(-a,1/3)}function Y(a,b,c,d){if(0==a)return 0==b?b=-d/c:(a=Math.sqrt(c*c-4*b*d),d=(-c+a)/(2*b),0<=d&&1>=d?b=d:(d=(-c-a)/(2*b),b=0<=d&&1>=d?d:0)),b;var e=c/a-b*b/(a*a)/3;c=b*b*b/(a*a*a)/13.5-b*c/(a*a)/3+d/a;var k=c*c/4+e*e*e/27;b=-b/
(3*a);if(0>=k){if(0==e&&0==c)return-D(d/a);a=Math.sqrt(c*c/4-k);d=Math.acos(-c/2/a);c=Math.cos(d/3);d=Math.sqrt(3)*Math.sin(d/3);a=D(a);e=2*a*c+b;if(0<=e&&1>=e)return e;e=-a*(c+d)+b;if(0<=e&&1>=e)return e;e=a*(d-c)+b;if(0<=e&&1>=e)return e}else{a=D(-c/2+Math.sqrt(k));c=D(-c/2-Math.sqrt(k));d=a+c+b;if(0<=d&&1>=d)return d;d=-(a+c)/2+b;if(0<=d&&1>=d)return d}return 0}function Z(a,b){if(48==a&&"number"===typeof b)return"#"+("000000"+b.toString(16)).substr(-6);if(64==a)return b=b.map(function(a){return a+
"px"}),b.join(",");if(96==a){a="";for(var c=b.length,d=0;d<c;d+=2)a+=b[d],a+=b[d+1].join(",");return a}if(80==a){if(0==b[0])return"none";a="";c=b.length;for(d=0;d<c;)a+=R[b[d]],1==b[d]?a+="("+b[d+1]+") ":5==b[d]?(a+="("+b[d+1]+"px "+b[d+2]+"px "+b[d+3]+"px rgba("+(b[d+4]>>>24)+","+(b[d+4]>>16&255)+","+(b[d+4]>>8&255)+","+(b[d+4]&255)/255+")) ",d+=3):a=2==b[d]?a+("("+b[d+1]+"px) "):7==b[d]?a+("("+b[d+1]+"deg) "):a+("("+(0>b[d+1]?0:b[d+1])+") "),d+=2;return a}return 32==a?b+"px":b}function w(a){return 0>=
a?0:255<=a?255:a}function aa(a,b,c,d){if(16==a||32==a)return(c-b)*d+b;if(0==a)return.5>d?b:c;if(48==a){if("number"===typeof b&&"number"===typeof c){var e=1-d;return w(e*(b>>16)+d*(c>>16))<<16|w(e*(b>>8&255)+d*(c>>8&255))<<8|w(e*(b&255)+d*(c&255))}return.5>d?b:c}if(64==a){0==b.length&&(b=[0]);0==c.length&&(c=[0]);var k=b.length;b.length!=c.length&&(k=b.length*c.length);var h=[];for(a=0;a<k;++a){var f=b[a%b.length];var g=(c[a%c.length]-f)*d+f;0>g&&(g=0);h.push(g)}return h}if(96==a){if(b.length!=c.length)return.5>
d?b:c;k=b.length;h=[];for(a=0;a<k;a+=2){if(b[a]!==c[a])return.5>d?b:c;h[a]=b[a];h[a+1]=[];for(f=0;f<b[a+1].length;++f)h[a+1].push((c[a+1][f]-b[a+1][f])*d+b[a+1][f])}return h}if(80==a){k=b.length;if(k!=c.length)return.5>d?b:c;h=[];for(a=0;a<k;){if(b[a]!=c[a]||1==b[a])return.5>d?b:c;h[a]=b[a];h[a+1]=(c[a+1]-b[a+1])*d+b[a+1];if(5==b[a]){h[a+2]=(c[a+2]-b[a+2])*d+b[a+2];h[a+3]=(c[a+3]-b[a+3])*d+b[a+3];e=1-d;var l=b[a+4],q=c[a+4];g=e*(l>>>24)+d*(q>>>24);var n=e*(l>>16&255)+d*(q>>16&255);f=e*(l>>8&255)+
d*(q>>8&255);h[a+4]=(w(n)<<16|w(f)<<8|w(e*(l&255)+d*(q&255)))+16777216*(w(g)|0);a+=3}a+=2}return h}return 0}function S(a,b){a:{var c=a+b[2];var d=b[4].length;for(var e=0;e<d;++e)if(c<b[4][e]){c=e;break a}c=d-1}d=b[2];e=b[4][c-1]-d;a=(a-e)/(b[4][c]-d-e);if(b[6]&&b[6].length>c-1)if(d=b[6][c-1],1==d[0])if(0>=a)a=0;else if(1<=a)a=1;else{e=d[1];var k=d[3];a=Y(3*e-3*k+1,-6*e+3*k,3*e,-a);a=3*a*(1-a)*(1-a)*d[2]+3*a*a*(1-a)*d[4]+a*a*a}else 2==d[0]?(d=d[1],a=Math.ceil(a*d)/d):3==d[0]&&(d=d[1],a=Math.floor(a*
d)/d);return aa(b[1]&240,b[5][c-1],b[5][c],a)}function P(){A=(new Date).getTime()}function J(a){for(var b=!1,c=0;c<x.length;++c)x[c].F(a)&&(b=!0);a&&x.forEach(function(a){a.l&&(a.l=!1,a.onfinish&&(a.onfinish(),b=!0))});return b}function T(){P();J(!0)?(K=!0,L(T)):K=!1}function Q(){K||(K=!0,L(T))}function U(a,b){var c=[];a.split(b).forEach(function(a){c.push(parseFloat(a))});return c}function t(a){-1==a.indexOf(",")&&(a=a.replace(" ",","));return U(a,",")}function V(a){a._ks||(a._ks={H:M},++M);if(!a._ks.transform){for(var b=
a._ks.transform=[],c=0;14>=c;++c)b[c]=0;b[10]=1;b[11]=1;if(c=a.getAttribute("transform")){for(c=c.trim().split(") ");0<a._ks.w;)c.shift(),--a._ks.w;a=c.shift();v(a,"translate(")&&(a=t(a.substring(10)),b[1]=a[0],b[2]=z(a[1])?a[1]:0,a=c.shift());v(a,"rotate(")&&(a=t(a.substring(7)),b[6]=a[0],a=c.shift());v(a,"skewX(")&&(a=t(a.substring(6)),b[7]=a[0],a=c.shift());v(a,"skewY(")&&(a=t(a.substring(6)),b[8]=a[0],a=c.shift());v(a,"scale(")&&(a=t(a.substring(6)),b[10]=a[0],b[11]=z(a[1])?a[1]:0,a=c.shift());
v(a,"translate(")&&(a=t(a.substring(10)),b[13]=a[0],b[14]=z(a[1])?a[1]:0)}}}function W(a){this.C=a;this.v=[];this.o=[];this.g=0;this.i=this.a=this.b=null;this.f=this.A=this.l=this.h=!1}function G(a,b,c){b=a[b];void 0===b&&(b=a[c]);return b}function ba(a){return Array.isArray(a)?a:v(a,"cubic-bezier(")?(a=a.substring(13,a.length-1).split(","),[1,parseFloat(a[0]),parseFloat(a[1]),parseFloat(a[2]),parseFloat(a[3])]):v(a,"steps(")?(a=a.substring(6,a.length-1).split(","),[a[1]&&"start"==a[1].trim()?2:3,
parseFloat(a[0])]):[0]}function ca(a){a=a.trim();return v(a,"#")?(parseInt(a.substring(1),16)<<8)+255:v(a,"rgba(")?(a=a.substring(5,a.length-1),a=a.split(","),(parseInt(a[0],10)<<24)+(parseInt(a[1],10)<<16)+(parseInt(a[2],10)<<8)+255*parseFloat(a[3])<<0):a}var da=" translate translate    rotate skewX skewY  scale scale  translate translate".split(" "),R="none url blur brightness contrast drop-shadow grayscale hue-rotate invert opacity saturate sepia".split(" "),L=window.requestAnimationFrame||window.webkitRequestAnimationFrame||
window.mozRequestAnimationFrame||window.oRequestAnimationFrame||window.msRequestAnimationFrame||null;L||(L=function(a){window.setTimeout(a,16)});var M=0,X={d:97,fill:48,fillOpacity:16,filter:80,height:33,opacity:16,stroke:48,strokeDasharray:64,strokeDashoffset:32,strokeOpacity:16,strokeWidth:32,transform:1,width:33},K=!1,A=(new Date).getTime(),x=[];W.prototype={j:function(a){var b=!1;if(null!==this.b){var c=this.c();null!==c&&c>=this.g?(b=!0,a?this.a=c:this.a=this.i?Math.max(this.i,this.g):this.g):
null!==c&&(a&&null!==this.a&&(this.b=A-this.a/1),this.a=null)}this.i=this.c();return b},F:function(a){a&&(this.h&&(this.h=!1,null===this.b&&(null!==this.a?(this.b=A-this.a/1,this.a=null):this.b=A)),null===this.a&&null!==this.b&&this.j(!1)&&(this.l=!0));a=this.c();if(null===a)return!1;for(var b=this.v,c=this.o,d=0;d<b.length;++d){for(var e=b[d],k=!1,h=0;h<c[d].length;++h){var f=c[d][h],g=f[0];if(null!==g){var l=f[2];var q=f[4].length,n=f[4][q-1]-l;l=0==n?f[5][q-1]:a<=l?f[5][0]:a>=l+f[3]?0==f[3]%n?
f[5][q-1]:S(f[3]%n,f):S((a-l)%n,f);0==g?(e._ks.mpath=f[8],e._ks.transform[g]=l,k=!0):14>=g?(e._ks.transform[g]=l,k=!0):(l=Z(f[1]&240,l),f[1]&1?e.setAttribute(g,l):e.style[g]=l)}}if(k){V(e);k=e._ks.transform;h="";if(f=e._ks.mpath)l=k[0]*f[2]/100,g=f[1].getPointAtLength(l),h="translate("+g.x+","+g.y+") ",f[0]&&(.5>l?(l=g,g=f[1].getPointAtLength(.5)):l=f[1].getPointAtLength(l-.5),h+="rotate("+180*Math.atan2(g.y-l.y,g.x-l.x)/Math.PI+") ");for(f=1;f<k.length;++f)g=k[f],g!=(10==f||11==f?1:0)&&(h+=" "+da[f]+
"(",h=2>=f?h+(1==f?g+",0":"0,"+g):13<=f?h+(13==f?g+",0":"0,"+g):10<=f?h+(10==f?g+",1":"1,"+g):h+g,h+=")");e.setAttribute("transform",h)}}return"running"==this.B()},s:function(){if(!this.A){this.A=!0;for(var a=this.v,b=this.o,c=0;c<a.length;++c)for(var d=a[c],e=!1,k=0;k<b[c].length;++k){var h=b[c][k][0];14>=h?d._ks.G||(V(d),d._ks.G=d._ks.transform.slice()):(d._ks.m||(d._ks.m={}),z(d._ks.m[h])||(e||(e=getComputedStyle(d)),d._ks.m[h]=O(h)&1?d.getAttribute(h):e[h]))}}},play:function(a){z(a)&&this.u(a,
!0);if(!this.f)return this;a=this.c();if(null===a||0>a||a>=this.g)this.a=0;if(null===this.a)return this;this.b=null;this.h=!0;this.s();Q();return this},pause:function(a){z(a)&&this.u(a,!0);if(!this.f||"paused"==this.B())return this;z(a)||P();a=this.c();null===a&&(this.a=0);null!==this.b&&null===this.a&&(this.a=a);this.b=null;this.h=!1;this.j(!1);this.s();J(!1);return this},c:function(){return null!==this.a?this.a:null===this.b?null:1*(A-this.b)},u:function(a,b){N(a);b&&P();null!==a&&(this.s(),null!==
this.a||null===this.b?(this.a=a,J(!1)):this.b=A-a/1,this.f||(this.b=null),this.i=null,this.j(!0),Q())},I:function(){return this.c()},time:function(a){return z(a)?(this.f&&this.u(a,!0),this):this.I()},startTime:function(a){if(z(a)){N(a);if(!this.f)return this;this.i=this.c();this.b=a;null!==a?this.a=null:this.a=this.i;this.h=!1;this.j(!0);J(!1);Q();return this}return this.D?this.D[0].startTime:this.b},B:function(){var a=this.c();return this.h?"running":null===a?"idle":null===this.b?"paused":a>=this.g?
"finished":"running"}};return{setmptr:function(a){for(var b in a){var c=document.getElementById(b);c._ks||(c._ks={});c._ks.w=a[b]}},animate:function(){if(0<x.length)throw"data already set";var a={};if(1==arguments.length%2){a=arguments[arguments.length-1];var b={};for(c in a)b[c]=a[c];a=b}var c=new W(a);a=arguments;for(var d=b=0;d<a.length-1;d+=2){var e=a[d];var k=e instanceof Element?e:document.getElementById(e.substring(1));if(!k)throw"invalid target: "+e;e=k;k=a[d+1];e._ks||(e._ks={H:M},++M);for(var h=
[],f=0;f<k.length;++f){var g=k[f],l=G(g,"p","property");14>=l||-1==l.indexOf("-")||(l=null);var q=O(l);q||(q=0);var n=G(g,"t","times");if(!n||2>n.length)throw"not enough times";n=n.slice();if(!isFinite(n[0])||0>n[0])throw"bad time: "+n[0];for(var y=1;y<n.length;++y)if(!isFinite(n[y])||0>n[y]||n[y]<n[y-1])throw"bad time: "+n[y];y=n[0];var w=n[n.length-1]-y,A=g.iterations||0;1>A&&(A=1);w*=A;b<w+y&&(b=w+y);var t=G(g,"v","values");if(!t||t.length!=n.length)throw"values don't match times";t=t.slice();
for(var B=l,m=t,H=O(B)&240,p=0;p<m.length;++p)if(96==H){for(var F=m[p].substring(6,m[p].length-2).match(/[A-DF-Za-df-z][-+0-9eE., ]*/ig),I=[],r=0;r<F.length;++r){I.push(F[r][0]);for(var u=1<F[r].trim().length?F[r].substring(1).split(","):[],E=0;E<u.length;++E)u[E]=parseFloat(u[E]);I.push(u)}m[p]=I}else if(48==H)v(m[p],"#")?m[p]=parseInt(m[p].substring(1),16):v(m[p],"url(")||"none"==m[p]||(console.warn("unsupported color: "+m[p]),m[p]=0);else if(80==H){F=m;I=p;r=m[p];if("none"==r)r=[0];else{u=[];for(var C=
r.indexOf("(");0<C;)if(E=R.indexOf(r.substring(0,C)),0<=E){u.push(E);var D=r.indexOf(") ");0>D&&(D=r.length-1);C=r.substring(C+1,D).split(" ");5==E?(u.push(parseFloat(C[0])),u.push(parseFloat(C[1])),u.push(parseFloat(C[2])),u.push(ca(C[3]))):1==E?u.push(C[0]):u.push(parseFloat(C[0]));r=r.substring(D+1).trim();C=r.indexOf("(")}else break;r=u}F[I]=r}else 64==H?"none"!=m[p]?/^[0-9 .]*$/.test(m[p])?m[p]=U(m[p]," "):(console.warn("unsupported value: "+m[p]),m[p]=[0]):m[p]=[0]:32==H?(N(m[p]),m[p]=parseFloat(m[p])):
0===B&&(m[p]=parseFloat(m[p]));B=G(g,"e","easing");m=n.length;for(B||(B=[]);B.length<m;)B.push([1,0,0,.58,1]);for(m=0;m<B.length;++m)B[m]=ba(B[m]);q=[l,q,y,w,n,t,B,A];n=G(g,"m","motionPath");z(n)&&0===l&&(q[8]=[],q[8][0]=g.motionRotate,g=document.createElementNS("http://www.w3.org/2000/svg","path"),n||(n="M0,0"),g.setAttribute("d",n),q[8][1]=g,q[8][2]=g.getTotalLength());h.push(q)}0<h.length&&(c.v.push(e),c.o.push(h))}c.g=b;!1===c.f&&(x.push(c),c.f=!0,!1!==c.C.autoplay&&c.play());return c},_priv_list:function(){return x.slice()},
play:function(){return x[0]?x[0].play():this},pause:function(){return x[0]?x[0].pause():this},time:function(a){return x[0]?x[0].time(a):z(a)?this:null}}}();
document.ks=ks;(function(ks){
ks.animate("#_a0",[{p:'d',t:[0,2000,4000,8000,12000],v:["path('M72.5049,273.107C109.249,280.436,135.703,282.063,151.865,277.988C168.027,273.913,194.481,258.947,231.225,233.09C201.929,289.041,168.823,315.974,131.908,313.887C94.9919,311.801,75.191,298.207,72.5049,273.107Z')","path('M72.5049,273.107C109.249,280.436,135.703,282.063,151.865,277.988C168.027,273.913,194.481,258.947,231.225,233.09C201.929,289.041,167.916,309.087,131,307C94.0843,304.913,75.191,298.207,72.5049,273.107Z')","path('M72.5049,273.107C109.249,280.436,135.703,282.063,151.865,277.988C168.027,273.913,194.481,258.947,231.225,233.09C201.929,289.041,188.781,308.087,151.865,306C114.949,303.913,75.191,298.207,72.5049,273.107Z')","path('M72.5049,273.107C109.249,280.436,135.703,282.063,151.865,277.988C168.027,273.913,194.481,258.947,231.225,233.09C201.929,289.041,187,293.5,151.865,306C114.949,303.913,75.191,298.207,72.5049,273.107Z')","path('M72.5049,273.107C109.249,280.436,135.703,282.063,151.865,277.988C168.027,273.913,194.481,258.947,231.225,233.09C201.929,289.041,168.823,315.974,131.908,313.887C94.9919,311.801,75.191,298.207,72.5049,273.107Z')"],e:[[0],[0],[0],[0],[0]],iterations:Infinity}],
"#eye",[{p:'d',t:[0,800,1300,1800,6000,6500,7000,12000],v:["path('M4.52581,0C4.52581,2.48528,2.49954,4.5,0,4.5C-2.49954,4.5,-4.52581,2.48528,-4.52581,0C-4.52581,-2.48528,-2.49954,-4.5,0,-4.5C2.49954,-4.5,4.52581,-2.48528,4.52581,0Z')","path('M4.52581,0C4.52581,2.48528,2.49954,4.5,0,4.5C-2.49954,4.5,-4.52581,2.48528,-4.52581,0C-4.52581,-2.48528,-2.49954,-4.5,0,-4.5C2.49954,-4.5,4.52581,-2.48528,4.52581,0Z')","path('M4.52581,0C4.52581,2.48528,2.49954,4.5,0,4.5C-2.49954,4.5,-4.52581,2.48528,-4.52581,0C-4.52581,-2.48528,-2.49954,1.5,0,1.5C2.49954,1.5,4.52581,-2.48528,4.52581,0Z')","path('M4.52581,0C4.52581,2.48528,2.49954,4.5,0,4.5C-2.49954,4.5,-4.52581,2.48528,-4.52581,0C-4.52581,-2.48528,-2.49954,-4.5,0,-4.5C2.49954,-4.5,4.52581,-2.48528,4.52581,0Z')","path('M4.52581,0C4.52581,2.48528,2.49954,4.5,0,4.5C-2.49954,4.5,-4.52581,2.48528,-4.52581,0C-4.52581,-2.48528,-2.49954,-4.5,0,-4.5C2.49954,-4.5,4.52581,-2.48528,4.52581,0Z')","path('M4.52581,0C4.52581,2.48528,2.49954,4.5,0,4.5C-2.49954,4.5,-4.52581,2.48528,-4.52581,0C-4.52581,-2.48528,-2.49954,1.5,0,1.5C2.49954,1.5,4.52581,-2.48528,4.52581,0Z')","path('M4.52581,0C4.52581,2.48528,2.49954,4.5,0,4.5C-2.49954,4.5,-4.52581,2.48528,-4.52581,0C-4.52581,-2.48528,-2.49954,-4.5,0,-4.5C2.49954,-4.5,4.52581,-2.48528,4.52581,0Z')","path('M4.52581,0C4.52581,2.48528,2.49954,4.5,0,4.5C-2.49954,4.5,-4.52581,2.48528,-4.52581,0C-4.52581,-2.48528,-2.49954,-4.5,0,-4.5C2.49954,-4.5,4.52581,-2.48528,4.52581,0Z')"],e:[[0],[0],[0],[0],[0],[0],[0],[0]],iterations:Infinity}],
"#Path-7",[{p:'d',t:[0,1300,2600,6000,7300,8600,12000],v:["path('M116.579,160.874C119.296,160.429,120.809,160.952,122.936,161.832C125.062,162.712,147.418,171.587,148.124,169.718C148.83,167.848,151.352,163.72,148.896,161.832C146.44,159.944,125.321,150.805,124.491,150.805C123.717,150.805,118.97,148.445,115.897,151.806C115.673,152.051,115.457,152.327,115.253,152.636C112.251,157.184,107.677,163.255,110.354,163.888C113.031,164.521,113.862,161.318,116.579,160.874Z')","path('M116.579,160.874C119.296,160.429,120.809,160.952,122.936,161.832C125.062,162.712,147.418,171.587,148.124,169.718C148.83,167.848,151.352,163.72,148.896,161.832C146.44,159.944,125.321,150.805,124.491,150.805C123.717,150.805,116.144,146.854,112.687,149.999C112.435,150.229,112.204,150.496,112,150.805C108.998,155.353,106.323,160.241,109,160.874C111.677,161.507,113.862,161.318,116.579,160.874Z')","path('M116.579,160.874C119.296,160.429,120.809,160.952,122.936,161.832C125.062,162.712,147.418,171.587,148.124,169.718C148.83,167.848,151.352,163.72,148.896,161.832C146.44,159.944,134.321,150.805,133.491,150.805C132.717,150.805,123.327,146.854,118.806,149.999C118.476,150.229,114.204,151.496,114,151.805C110.998,156.353,106.323,160.241,109,160.874C111.677,161.507,113.862,161.318,116.579,160.874Z')","path('M116.579,160.874C119.296,160.429,120.809,160.952,122.936,161.832C125.062,162.712,147.418,171.587,148.124,169.718C148.83,167.848,151.352,163.72,148.896,161.832C146.44,159.944,125.321,150.805,124.491,150.805C123.717,150.805,118.97,148.445,115.897,151.806C115.673,152.051,115.457,152.327,115.253,152.636C112.251,157.184,107.677,163.255,110.354,163.888C113.031,164.521,113.862,161.318,116.579,160.874Z')","path('M116.579,160.874C119.296,160.429,120.809,160.952,122.936,161.832C125.062,162.712,147.418,171.587,148.124,169.718C148.83,167.848,151.352,163.72,148.896,161.832C146.44,159.944,125.321,150.805,124.491,150.805C123.717,150.805,116.144,146.854,112.687,149.999C112.435,150.229,112.204,150.496,112,150.805C108.998,155.353,106.323,160.241,109,160.874C111.677,161.507,113.862,161.318,116.579,160.874Z')","path('M116.579,160.874C119.296,160.429,120.809,160.952,122.936,161.832C125.062,162.712,147.418,171.587,148.124,169.718C148.83,167.848,151.352,163.72,148.896,161.832C146.44,159.944,134.321,150.805,133.491,150.805C132.717,150.805,123.327,146.854,118.806,149.999C118.476,150.229,114.204,151.496,114,151.805C110.998,156.353,106.323,160.241,109,160.874C111.677,161.507,113.862,161.318,116.579,160.874Z')","path('M116.579,160.874C119.296,160.429,120.809,160.952,122.936,161.832C125.062,162.712,147.418,171.587,148.124,169.718C148.83,167.848,151.352,163.72,148.896,161.832C146.44,159.944,134.321,150.805,133.491,150.805C132.717,150.805,123.327,146.854,118.806,149.999C118.476,150.229,114.204,151.496,114,151.805C110.998,156.353,106.323,160.241,109,160.874C111.677,161.507,113.862,161.318,116.579,160.874Z')"],e:[[0],[0],[0],[0],[0],[0],[0]],iterations:Infinity}],
"#moustache",[{p:'d',t:[0,1000,2000,3000,6000,7000,8000,9000,12000],v:["path('M230.507,264.201C235.359,266.112,229.263,268.599,230.507,269.855C231.751,271.111,232.598,278.221,230.507,277.967C228.416,277.713,215.29,278.475,212.584,278.221C209.878,277.967,199.138,276.098,196.522,276.098C193.906,276.098,177.859,275.461,176,274.87C174.141,274.278,166.86,273.641,165.612,274.87C164.364,276.098,162.958,279.836,160.68,277.967C158.402,276.098,153.421,278.221,151.574,278.221C150.342,278.221,144.005,281.577,132.563,288.289C129.162,289.934,127.071,289.3,126.289,286.384C125.117,282.011,123.637,274.885,127.461,271.053C130.011,268.499,143.54,261.544,168.048,250.191C171.261,248.603,175.444,248.603,180.597,250.191C188.326,252.573,225.656,262.289,230.507,264.201Z')","path('M230.507,264.201C235.359,266.112,229.263,268.599,230.507,269.855C231.751,271.111,232.598,278.221,230.507,277.967C228.416,277.713,215.29,278.475,212.584,278.221C209.878,277.967,200.616,272.87,198,272.87C195.384,272.87,186.5,271.053,175,271.053C168.048,271.053,166.86,273.641,165.612,274.87C164.364,276.098,160.958,277.836,158.68,275.967C156.402,274.098,153.421,278.221,151.574,278.221C150.342,278.221,144.005,281.577,132.563,288.289C129.162,289.934,127.071,289.3,126.289,286.384C125.117,282.011,123.637,274.885,127.461,271.053C130.011,268.499,143.54,261.544,168.048,250.191C171.261,248.603,175.444,248.603,180.597,250.191C188.326,252.573,225.656,262.289,230.507,264.201Z')","path('M230.507,264.201C235.359,266.112,229.263,268.599,230.507,269.855C231.751,271.111,232.598,278.221,230.507,277.967C228.416,277.713,214.706,275.124,212,274.87C209.294,274.616,200.616,272.87,198,272.87C195.384,272.87,186.5,271.053,175,271.053C168.048,271.053,166.86,273.641,165.612,274.87C164.364,276.098,160.958,277.836,158.68,275.967C156.402,274.098,153.421,278.221,151.574,278.221C150.342,278.221,146.442,277.288,135,284C131.599,285.645,127.071,289.3,126.289,286.384C125.117,282.011,123.637,274.885,127.461,271.053C130.011,268.499,143.54,261.544,168.048,250.191C171.261,248.603,175.444,248.603,180.597,250.191C188.326,252.573,225.656,262.289,230.507,264.201Z')","path('M230.507,264.201C235.359,266.112,229.263,268.599,230.507,269.855C231.751,271.111,232.598,278.221,230.507,277.967C228.416,277.713,215.29,278.475,212.584,278.221C209.878,277.967,199.138,276.098,196.522,276.098C193.906,276.098,177.859,275.461,176,274.87C174.141,274.278,166.86,273.641,165.612,274.87C164.364,276.098,162.958,279.836,160.68,277.967C158.402,276.098,153.421,278.221,151.574,278.221C150.342,278.221,144.005,281.577,132.563,288.289C129.162,289.934,127.071,289.3,126.289,286.384C125.117,282.011,123.637,274.885,127.461,271.053C130.011,268.499,143.54,261.544,168.048,250.191C171.261,248.603,175.444,248.603,180.597,250.191C188.326,252.573,225.656,262.289,230.507,264.201Z')","path('M230.507,264.201C235.359,266.112,229.263,268.599,230.507,269.855C231.751,271.111,232.598,278.221,230.507,277.967C228.416,277.713,215.29,278.475,212.584,278.221C209.878,277.967,199.138,276.098,196.522,276.098C193.906,276.098,177.859,275.461,176,274.87C174.141,274.278,166.86,273.641,165.612,274.87C164.364,276.098,162.958,279.836,160.68,277.967C158.402,276.098,153.421,278.221,151.574,278.221C150.342,278.221,144.005,281.577,132.563,288.289C129.162,289.934,127.071,289.3,126.289,286.384C125.117,282.011,123.637,274.885,127.461,271.053C130.011,268.499,143.54,261.544,168.048,250.191C171.261,248.603,175.444,248.603,180.597,250.191C188.326,252.573,225.656,262.289,230.507,264.201Z')","path('M230.507,264.201C235.359,266.112,229.263,268.599,230.507,269.855C231.751,271.111,232.598,278.221,230.507,277.967C228.416,277.713,215.29,278.475,212.584,278.221C209.878,277.967,200.616,272.87,198,272.87C195.384,272.87,186.5,271.053,175,271.053C168.048,271.053,166.86,273.641,165.612,274.87C164.364,276.098,160.958,277.836,158.68,275.967C156.402,274.098,153.421,278.221,151.574,278.221C150.342,278.221,144.005,281.577,132.563,288.289C129.162,289.934,127.071,289.3,126.289,286.384C125.117,282.011,123.637,274.885,127.461,271.053C130.011,268.499,143.54,261.544,168.048,250.191C171.261,248.603,175.444,248.603,180.597,250.191C188.326,252.573,225.656,262.289,230.507,264.201Z')","path('M230.507,264.201C235.359,266.112,229.263,268.599,230.507,269.855C231.751,271.111,232.598,278.221,230.507,277.967C228.416,277.713,214.706,275.124,212,274.87C209.294,274.616,200.616,272.87,198,272.87C195.384,272.87,186.5,271.053,175,271.053C168.048,271.053,166.86,273.641,165.612,274.87C164.364,276.098,160.958,277.836,158.68,275.967C156.402,274.098,153.421,278.221,151.574,278.221C150.342,278.221,146.442,277.288,135,284C131.599,285.645,127.071,289.3,126.289,286.384C125.117,282.011,123.637,274.885,127.461,271.053C130.011,268.499,143.54,261.544,168.048,250.191C171.261,248.603,175.444,248.603,180.597,250.191C188.326,252.573,225.656,262.289,230.507,264.201Z')","path('M230.507,264.201C235.359,266.112,229.263,268.599,230.507,269.855C231.751,271.111,232.598,278.221,230.507,277.967C228.416,277.713,215.29,278.475,212.584,278.221C209.878,277.967,199.138,276.098,196.522,276.098C193.906,276.098,177.859,275.461,176,274.87C174.141,274.278,166.86,273.641,165.612,274.87C164.364,276.098,162.958,279.836,160.68,277.967C158.402,276.098,153.421,278.221,151.574,278.221C150.342,278.221,144.005,281.577,132.563,288.289C129.162,289.934,127.071,289.3,126.289,286.384C125.117,282.011,123.637,274.885,127.461,271.053C130.011,268.499,143.54,261.544,168.048,250.191C171.261,248.603,175.444,248.603,180.597,250.191C188.326,252.573,225.656,262.289,230.507,264.201Z')","path('M230.507,264.201C235.359,266.112,229.263,268.599,230.507,269.855C231.751,271.111,232.598,278.221,230.507,277.967C228.416,277.713,215.29,278.475,212.584,278.221C209.878,277.967,199.138,276.098,196.522,276.098C193.906,276.098,177.859,275.461,176,274.87C174.141,274.278,166.86,273.641,165.612,274.87C164.364,276.098,162.958,279.836,160.68,277.967C158.402,276.098,153.421,278.221,151.574,278.221C150.342,278.221,144.005,281.577,132.563,288.289C129.162,289.934,127.071,289.3,126.289,286.384C125.117,282.011,123.637,274.885,127.461,271.053C130.011,268.499,143.54,261.544,168.048,250.191C171.261,248.603,175.444,248.603,180.597,250.191C188.326,252.573,225.656,262.289,230.507,264.201Z')"],e:[[0],[0],[0],[0],[0],[0],[0],[0],[0]],iterations:Infinity}],
{autoplay:document.location.search.substr(1).split('&').indexOf('autoplay=false')<0})
})(ks);
]]></script>
</svg>
