<?xml version="1.0" encoding="UTF-8"?>
<svg width="120px" height="120px" viewBox="0 0 120 120" version="1.1" xmlns="http://www.w3.org/2000/svg" xmlns:xlink="http://www.w3.org/1999/xlink">
    <!-- Generator: Sketch 48.2 (47327) - http://www.bohemiancoding.com/sketch -->
    <title>cover-3</title>
    <desc>Created with Sketch.</desc>
    <defs>
        <rect id="path-1" x="0" y="0" width="120" height="120"></rect>
    </defs>
    <g id="Destkop" stroke="none" stroke-width="1" fill="none" fill-rule="evenodd" transform="translate(-355.000000, -2103.000000)">
        <g id="Content" transform="translate(150.000000, 876.000000)">
            <g id="Episode-3" transform="translate(195.000000, 1217.000000)">
                <g id="Cover">
                    <g id="cover-3" transform="translate(10.000000, 10.000000)">
                        <mask id="mask-2" fill="white">
                            <use xlink:href="#path-1"></use>
                        </mask>
                        <use id="BG" fill="#F7F7F7" xlink:href="#path-1"></use>
                        <path d="M-38.671875,-50.9634848 C-19.6557745,-50.9634848 -10.0625,-34.715438 1.74609375,-40.5377036 C13.5546875,-46.3599692 65.0351563,-61.4283286 81.5898438,-34.715438 C98.1445312,-8.00254733 97.515625,27.4037027 112.824219,37.3646402 C128.132813,47.3255777 179.378906,53.1497964 177.117188,70.7279214 C174.855469,88.3060464 161.269531,91.4701089 150.324219,88.3060464 C139.378906,85.1419839 110.230469,89.2357339 95.9101562,97.1927652 C81.5898437,105.149796 42.7304688,99.4896402 37.5507813,78.9662027 C32.3710938,58.4427652 8.2890625,-5.48692233 -2.91796875,-5.26035983 C-14.125,-5.03379733 -59,-28.8931723 -59,-40.5377036 C-59,-52.1822348 -57.6879755,-50.9634848 -38.671875,-50.9634848 Z" id="Path-12" fill="#7F87AA" mask="url(#mask-2)"></path>
                        <path d="M41.2812738,56.8461288 C30.5059252,61.1562682 22.5406014,67.5550845 15.5797802,94.3274736 C8.61895904,121.099863 -2.62544439,122.170758 -21.3661168,125.383445 C-40.1067892,128.596132 -69.5564172,148.4077 -71.1627605,176.786432 C-72.7691039,205.165165 -62.595596,236.756584 -71.1627605,250.142778 C-79.729925,263.528973 -73.3045517,284.411436 -58.3120138,268.348003 C-43.3194758,252.284569 -36.3586547,215.338672 -5.30268331,205.165165 C25.7532881,194.991657 73.9435885,169.290163 68.5891107,147.336804 C63.2346328,125.383445 45.564856,93.7920258 47.7066471,81.4767268 C49.8484383,69.1614278 52.0566223,52.5359894 41.2812738,56.8461288 Z" id="Path-26" fill="#F4BBBC" mask="url(#mask-2)"></path>
                        <path d="M91.5718615,-63.0053537 C55.1416102,-43.6354058 35.246562,-41.7920908 28.3495866,19.8273871 C21.4526111,81.4468651 43.0198828,96.0941181 47.316269,74.8808551 C51.6126552,53.6675922 42.7182854,26.3933971 65.1334556,31.444174 C87.5486258,36.4949508 75.7520693,60.8684004 68.0071954,81.9519428 C60.2623215,103.035485 71.48413,141.926467 81.5279958,141.926467 C91.5718615,141.926467 82.4106753,98.9883894 87.5486258,89.5281081 C92.6865764,80.0678268 111.68804,76.9011659 111.68804,96.0941181 C111.68804,115.28707 127.780983,157.713596 140.425438,152.662819 C153.069893,147.612042 137.551698,135.490178 135.252706,108.72106 C132.953714,81.9519428 138.701194,51.1422038 155.368884,22.8578533 C172.036575,-5.42649728 177.784055,-45.8327123 165.1396,-52.9038 C152.495145,-59.9748876 128.002113,-82.3753016 91.5718615,-63.0053537 Z" id="Path-27" fill="#181E39" mask="url(#mask-2)"></path>
                    </g>
                </g>
            </g>
        </g>
    </g>
</svg>