<?xml version="1.0" encoding="UTF-8"?>
<svg width="120px" height="120px" viewBox="0 0 120 120" version="1.1" xmlns="http://www.w3.org/2000/svg" xmlns:xlink="http://www.w3.org/1999/xlink">
    <!-- Generator: Sketch 48.2 (47327) - http://www.bohemiancoding.com/sketch -->
    <title>cover</title>
    <desc>Created with Sketch.</desc>
    <defs>
        <rect id="path-1" x="0" y="0" width="120" height="120"></rect>
    </defs>
    <g id="Destkop" stroke="none" stroke-width="1" fill="none" fill-rule="evenodd" transform="translate(-355.000000, -1298.000000)">
        <g id="Content" transform="translate(150.000000, 876.000000)">
            <g id="Episode-1" transform="translate(195.000000, 412.000000)">
                <g id="Cover">
                    <g id="cover" transform="translate(10.000000, 10.000000)">
                        <mask id="mask-2" fill="white">
                            <use xlink:href="#path-1"></use>
                        </mask>
                        <use id="BG" fill="#F7F7F7" xlink:href="#path-1"></use>
                        <path d="M72.1618525,75.7725401 C101.769247,75.7725401 93.1884531,39.5426067 132.296949,49.1826091 C171.405446,58.8226115 161.511136,100.018235 145.355501,112.4933 C129.199867,124.968366 103.544978,119.888255 76.4200615,106.085271 C49.2951447,92.2822873 -10.6454331,81.0347913 17.3950864,49.1826091 C27.696424,37.4809684 42.5544583,75.7725401 72.1618525,75.7725401 Z" id="Path-4-Copy-3" fill="#F4BBBC" mask="url(#mask-2)"></path>
                        <path d="M72.1618525,33.284045 C42.5544583,33.284045 27.696424,71.5756168 17.3950864,59.8739761 C-10.6454331,28.0217939 49.2951447,16.7742979 76.4200615,2.97131397 C103.544978,-10.8316699 129.199867,-15.9117804 145.355501,-3.43671511 C161.511136,9.03835013 171.405446,50.2339737 132.296949,59.8739761 C93.1884531,69.5139785 101.769247,33.284045 72.1618525,33.284045 Z" id="Path-4-Copy-4" fill="#737B9D" mask="url(#mask-2)"></path>
                        <path d="M84.0860397,29.5625276 C113.693434,29.5625276 105.11264,-6.66740584 144.221137,2.97259657 C183.329633,12.612599 185.789364,27.2883794 169.63373,39.7634446 C153.478095,52.2385099 129.508231,64.5648588 129.820534,76.4318978 C130.132836,88.2989369 120.809146,115.153426 93.6842294,101.350443 C66.5593126,87.5474587 42.4666636,65.138667 29.3192735,74.3946153 C22.9092268,78.9073788 1.27875411,34.8247787 29.3192735,2.97259657 C39.6206112,-8.72904411 54.4786455,29.5625276 84.0860397,29.5625276 Z" id="Path-4" fill="#232D58" mask="url(#mask-2)"></path>
                    </g>
                </g>
            </g>
        </g>
    </g>
</svg>