<?xml version="1.0" encoding="UTF-8"?>
<svg width="120px" height="120px" viewBox="0 0 120 120" version="1.1" xmlns="http://www.w3.org/2000/svg" xmlns:xlink="http://www.w3.org/1999/xlink">
    <!-- Generator: Sketch 48.2 (47327) - http://www.bohemiancoding.com/sketch -->
    <title>Group 3</title>
    <desc>Created with Sketch.</desc>
    <defs>
        <rect id="path-1" x="0" y="0" width="120" height="120"></rect>
    </defs>
    <g id="Destkop" stroke="none" stroke-width="1" fill="none" fill-rule="evenodd" transform="translate(-355.000000, -1721.000000)">
        <g id="Content" transform="translate(150.000000, 876.000000)">
            <g id="Episode-2" transform="translate(195.000000, 835.000000)">
                <g id="Cover">
                    <g id="Group-3" transform="translate(10.000000, 10.000000)">
                        <mask id="mask-2" fill="white">
                            <use xlink:href="#path-1"></use>
                        </mask>
                        <use id="BG" fill="#F7F7F7" xlink:href="#path-1"></use>
                        <path d="M196.093013,46.8540129 C189.119687,58.6120855 168.261105,40.3004024 151.545689,63.019107 C134.830274,85.7378116 97.4706259,90.927582 81.6213685,85.7378116 C65.7721111,80.5480411 36.7797421,46.5381762 39.6150939,77.9926355 C41.5053284,98.962275 59.407524,107.567229 93.3216808,103.807496 C114.379053,110.806947 118.981814,116.519124 107.129964,120.944027 C89.3521884,127.581382 -0.89574212,98.5100543 -6.59755076,57.2311611 C-12.2993594,15.9522678 44.0554978,-18.9811801 69.3085245,6.85282242 C94.5615513,32.6868249 82.0807673,51.0149215 122.058031,46.8540129 C162.035294,42.6931043 145.671606,-0.217611711 181.674591,12.2172601 C217.677577,24.6521319 203.066339,35.0959403 196.093013,46.8540129 Z" id="Path-13" fill="#F4BBBC" mask="url(#mask-2)"></path>
                        <path d="M-38.671875,-50.9634848 C-19.6557745,-50.9634848 -10.0625,-34.715438 1.74609375,-40.5377036 C13.5546875,-46.3599692 65.0351563,-61.4283286 81.5898438,-34.715438 C98.1445312,-8.00254733 97.515625,27.4037027 112.824219,37.3646402 C128.132813,47.3255777 179.378906,53.1497964 177.117188,70.7279214 C174.855469,88.3060464 161.269531,91.4701089 150.324219,88.3060464 C139.378906,85.1419839 110.230469,89.2357339 95.9101562,97.1927652 C81.5898437,105.149796 42.7304688,99.4896402 37.5507813,78.9662027 C32.3710938,58.4427652 8.2890625,-5.48692233 -2.91796875,-5.26035983 C-14.125,-5.03379733 -59,-28.8931723 -59,-40.5377036 C-59,-52.1822348 -57.6879755,-50.9634848 -38.671875,-50.9634848 Z" id="Path-12" fill="#7F87AA" mask="url(#mask-2)"></path>
                        <path d="M126.241773,21.6623897 C101.538648,6.33035843 87.7304688,11.078125 77.4257813,30.703125 C67.1210938,50.328125 -37.7148437,65.4895916 30,87.9537802 C97.7148438,110.417969 -18.9804687,123.615515 -18.9804687,137.178015 C-18.9804687,150.740515 -36.0160399,126.076452 -13.0121337,137.178015 C9.99177259,148.279577 97.3667726,183.021765 108.620679,148.279577 C119.874585,113.53739 149.107069,103.259582 152.828125,76.5217647 C156.549181,49.7839469 150.944898,36.9944209 126.241773,21.6623897 Z" id="Path" fill="#081340" mask="url(#mask-2)"></path>
                    </g>
                </g>
            </g>
        </g>
    </g>
</svg>