<?xml version="1.0" encoding="UTF-8" standalone="no"?>
<svg width="605px" height="1154px" viewBox="0 0 605 1154" version="1.1" xmlns="http://www.w3.org/2000/svg" xmlns:xlink="http://www.w3.org/1999/xlink">
    <!-- Generator: Sketch 49.1 (51147) - http://www.bohemiancoding.com/sketch -->
    <title>Artboard</title>
    <desc>Created with Sketch.</desc>
    <defs>
        <path d="M372.048186,278.600525 C416.256812,341.127412 423.889188,405.119945 394.945313,470.578125 C351.5295,568.765395 328.860688,577.031666 324.182242,593.882881 C319.503797,610.734097 294.74956,662.192614 281.527344,651.425781 C268.305128,640.658948 154.809308,664.174638 153.519531,659.492188 C152.229754,654.809737 192.761187,474.140272 182.226674,457.070398 C177.908717,450.073685 177.398591,366.675555 226.227292,323.306115 C246.6203,305.193134 295.227265,290.29127 372.048186,278.600525 Z" id="path-1"></path>
        <filter x="-7.5%" y="-5.1%" width="115.1%" height="110.2%" filterUnits="objectBoundingBox" id="filter-2">
            <feOffset dx="0" dy="-39" in="SourceAlpha" result="shadowOffsetInner1"></feOffset>
            <feComposite in="shadowOffsetInner1" in2="SourceAlpha" operator="arithmetic" k2="-1" k3="1" result="shadowInnerInner1"></feComposite>
            <feColorMatrix values="0 0 0 0 0.836176658   0 0 0 0 0.621787614   0 0 0 0 0.625548826  0 0 0 1 0" type="matrix" in="shadowInnerInner1"></feColorMatrix>
        </filter>
        <ellipse id="path-3" cx="107" cy="33" rx="27" ry="33"></ellipse>
        <filter x="-5.6%" y="-4.5%" width="111.1%" height="109.1%" filterUnits="objectBoundingBox" id="filter-4">
            <feOffset dx="0" dy="-6" in="SourceAlpha" result="shadowOffsetInner1"></feOffset>
            <feComposite in="shadowOffsetInner1" in2="SourceAlpha" operator="arithmetic" k2="-1" k3="1" result="shadowInnerInner1"></feComposite>
            <feColorMatrix values="0 0 0 0 0.243838094   0 0 0 0 0.265935451   0 0 0 0 0.322757228  0 0 0 1 0" type="matrix" in="shadowInnerInner1"></feColorMatrix>
        </filter>
        <ellipse id="path-5" cx="27" cy="33" rx="27" ry="33"></ellipse>
        <filter x="-5.6%" y="-4.5%" width="111.1%" height="109.1%" filterUnits="objectBoundingBox" id="filter-6">
            <feOffset dx="0" dy="-6" in="SourceAlpha" result="shadowOffsetInner1"></feOffset>
            <feComposite in="shadowOffsetInner1" in2="SourceAlpha" operator="arithmetic" k2="-1" k3="1" result="shadowInnerInner1"></feComposite>
            <feColorMatrix values="0 0 0 0 0.243838094   0 0 0 0 0.265935451   0 0 0 0 0.322757228  0 0 0 1 0" type="matrix" in="shadowInnerInner1"></feColorMatrix>
        </filter>
        <path d="M540.211861,209.50934 C500.852488,269.701722 453.315238,239.454587 396.73019,287.578312 C332.857784,341.899695 232.54718,324.131104 223.363347,347.96008 C197.383555,415.368947 246.88375,479.621466 282.112283,474.23805 C317.340817,468.854633 316.519686,444.745418 335.245484,449.191544 C353.971282,453.637669 369.64888,447.789612 374.215171,444.745418 C378.781462,441.701224 395.753515,456.677857 391.597454,465.457954 C387.441393,474.23805 408.037768,438.657031 407.921608,429.412294 C407.805448,420.167558 418.219795,461.131994 408.037768,474.23805 C397.85574,487.344105 385.222336,501.507618 385.570816,512.506771 C385.919296,523.505925 388.026198,536.968472 365.907726,547.382819 C343.789254,557.797167 333.955707,570.554743 315.466234,568.564 C296.976762,566.573257 241.852819,567.041903 232.608083,557.212361 C223.363347,547.382819 203.932577,528.076221 199.722778,492.495202 C195.512978,456.914183 210.253285,408.221194 199.722778,398.507812 C197.626654,396.57434 196.927856,380.220703 178.216797,377.423828 C124.422835,369.382862 12.3942512,330.502403 4.98649442,251.294907 C-1.17933341,185.366746 -1.17933341,103.730277 4.98649442,6.38550123 C337.695628,-3.63308657 527.117924,0.112073037 573.253381,17.6209801 C642.456567,43.8843406 579.571234,149.316958 540.211861,209.50934 Z" id="path-7"></path>
        <filter x="-1.6%" y="-1.7%" width="103.1%" height="103.3%" filterUnits="objectBoundingBox" id="filter-8">
            <feOffset dx="0" dy="-19" in="SourceAlpha" result="shadowOffsetInner1"></feOffset>
            <feComposite in="shadowOffsetInner1" in2="SourceAlpha" operator="arithmetic" k2="-1" k3="1" result="shadowInnerInner1"></feComposite>
            <feColorMatrix values="0 0 0 0 0.297956809   0 0 0 0 0.324502737   0 0 0 0 0.394185799  0 0 0 1 0" type="matrix" in="shadowInnerInner1"></feColorMatrix>
        </filter>
        <path d="M19,607.67154 C86.8697917,617.332998 126.282552,613.756175 137.238281,596.941071 C153.671875,571.718415 168.625,574.573884 168.625,583.019196 C168.625,591.464509 175.015625,673.183259 250.570312,649.784821 C326.125,626.386384 307.09375,632.728232 313.371094,621.832031 C319.648437,610.93583 464.875,698.827455 487.164062,746.45279 C509.453125,794.078125 490.8125,849.019531 487.164062,885.085938 C483.515625,921.152344 408.398438,1126.74576 377.46875,1144.43716 C356.848958,1156.23144 237.359375,1156.23144 19,1144.43716 L19,607.67154 Z" id="path-9"></path>
        <filter x="-10.3%" y="-8.6%" width="120.7%" height="117.2%" filterUnits="objectBoundingBox" id="filter-10">
            <feOffset dx="-40" dy="-99" in="SourceAlpha" result="shadowOffsetInner1"></feOffset>
            <feComposite in="shadowOffsetInner1" in2="SourceAlpha" operator="arithmetic" k2="-1" k3="1" result="shadowInnerInner1"></feComposite>
            <feColorMatrix values="0 0 0 0 0.450417922   0 0 0 0 0.48095538   0 0 0 0 0.61455676  0 0 0 1 0" type="matrix" in="shadowInnerInner1"></feColorMatrix>
        </filter>
    </defs>
    <g id="Artboard" stroke="none" stroke-width="1" fill="none" fill-rule="evenodd">
        <g id="Guy-#1">
            <g id="Path-16">
                <use fill="#F4BBBC" fill-rule="evenodd" xlink:href="#path-1"></use>
                <use fill="black" fill-opacity="1" filter="url(#filter-2)" xlink:href="#path-1"></use>
            </g>
            <g id="Glasses" transform="translate(289.000000, 351.000000)">
                <path d="M36.7109375,12.7265625 C55.4296875,0.171875 78.5221354,0.171875 105.988281,12.7265625" id="Path-17" stroke="#FFFFFF" stroke-width="3"></path>
                <g id="Oval-6-Copy">
                    <use fill="#4C5365" fill-rule="evenodd" xlink:href="#path-3"></use>
                    <use fill="black" fill-opacity="1" filter="url(#filter-4)" xlink:href="#path-3"></use>
                </g>
                <g id="Oval-6-Copy-2">
                    <use fill="#4C5365" fill-rule="evenodd" xlink:href="#path-5"></use>
                    <use fill="black" fill-opacity="1" filter="url(#filter-6)" xlink:href="#path-5"></use>
                </g>
                <path d="" id="Path-11" stroke="#979797"></path>
            </g>
            <g id="Ear-Gray-Copy" transform="translate(176.000000, 419.500000) rotate(-360.000000) translate(-176.000000, -419.500000) translate(148.000000, 377.000000)">
                <path d="M6.0198753,45.4094299 C2.25018304,40.6330738 0,34.5987718 0,28.0381944 C0,12.5531272 12.536027,0 28,0 C43.1698013,0 55.5219939,12.0800728 55.9864567,27.1577249 L56,27.1527778 L56,70.8333333 L55.9970428,70.8338113 C55.8398439,78.6843821 49.4354104,85 41.5578947,85 C35.2732777,85 29.9262358,80.9802881 27.9409492,75.3683514 L27.8793997,75.3782993 L5.89473684,45.4551403 L6.0198753,45.4094299 Z" id="Combined-Shape" fill="#F4BBBC"></path>
                <path d="M46.9978722,28.2380952 L47,28.2380952 L47,47.8809524 L46.9956744,47.8809524 C46.9985513,47.9797988 47,48.0790121 47,48.1785714 C47,53.6027966 42.6999289,58 37.3955224,58 C32.0911159,58 27.7910448,53.6027966 27.7910448,48.1785714 C27.7910448,48.0782594 27.7925154,47.9782985 27.7954359,47.8787103 C27.6971318,47.8802033 27.5986514,47.8809524 27.5,47.8809524 C16.7304474,47.8809524 8,38.9532971 8,27.9404762 C8,16.9276553 16.7304474,8 27.5,8 C38.2695526,8 47,16.9276553 47,27.9404762 C47,28.039854 46.9992891,28.139062 46.9978722,28.2380952 Z" id="Combined-Shape" fill="#D59FA0"></path>
                <path d="M39.2068966,46.9950412 C34.6481929,46.8405633 31,43.0963222 31,38.5 C31,33.9036778 34.6481929,30.1594367 39.2068966,30.0049588 L39.2068966,30 L48,30 L48,47 L39.2068966,47 L39.2068966,46.9950412 Z" id="Combined-Shape" fill="#BE8C8D"></path>
                <path d="M48,31 L48,47 L48,47 C43.581722,47 40,43.418278 40,39 L40,39 C40,34.581722 43.581722,31 48,31 Z" id="Rectangle-2" fill="#F4BBBC"></path>
            </g>
            <g id="Path-15-Copy">
                <use fill="#5E667B" fill-rule="evenodd" xlink:href="#path-7"></use>
                <use fill="black" fill-opacity="1" filter="url(#filter-8)" xlink:href="#path-7"></use>
            </g>
            <g id="Path-18">
                <use fill="#7F87AA" fill-rule="evenodd" xlink:href="#path-9"></use>
                <use fill="black" fill-opacity="1" filter="url(#filter-10)" xlink:href="#path-9"></use>
            </g>
            <path d="M132.298828,604.654297 C144.414557,636.071602 158.417749,653.653746 174.308406,657.400727 C198.144391,663.0212 235.003231,688.39575 254.192121,680.993368 C273.381012,673.590986 324.279259,678.92494 325.338985,668.162833 C326.045469,660.988096 332.89276,649.676657 345.880859,634.228516 C342.946116,627.062389 332.014475,621.642467 313.085938,617.96875 C304.294997,616.262574 260.011956,647.846878 242.574219,642.253906 C227.581783,637.445239 202.302975,635.919897 189.859375,624.09375 C170.030963,605.249227 172.064966,580.996139 168.277344,577.337891 C165.752262,574.899059 158.815739,576.669566 147.467773,582.649414 L132.298828,604.654297 Z" id="Path-6" fill="#737B9D"></path>
            <path d="M355.504883,422.962891 L342.930664,428.441406" id="Path-15" stroke="#D59FA0" stroke-width="6" transform="translate(349.217773, 425.702148) scale(1, -1) translate(-349.217773, -425.702148) "></path>
            <path d="M362.696289,423.082031 L375.239258,427.347656" id="Path-25" stroke="#D59FA0" stroke-width="6" transform="translate(368.967773, 425.214844) scale(1, -1) translate(-368.967773, -425.214844) "></path>
            <path d="M252.732704,183.692777 C245.111477,181.065019 218.925657,190.104189 240.087694,206.725139 C261.249731,223.346089 260.353931,186.320535 252.732704,183.692777 Z M293.495559,172.719767 C293.495559,172.719767 261.241209,176.391263 282.403246,193.012213 C303.565283,209.633163 293.495559,172.719767 293.495559,172.719767 Z M331.193178,167.550727 C323.247609,160.927765 299.397744,168.170323 314.319391,183.74708 C329.241039,199.323837 339.138746,174.173688 331.193178,167.550727 Z" id="Combined-Shape" fill="#D8D8D8"></path>
        </g>
    </g>
</svg>