<?xml version="1.0" encoding="UTF-8" standalone="no"?>
<svg width="415px" height="935px" viewBox="0 0 415 935" version="1.1" xmlns="http://www.w3.org/2000/svg" xmlns:xlink="http://www.w3.org/1999/xlink">
    <!-- Generator: Sketch 49.1 (51147) - http://www.bohemiancoding.com/sketch -->
    <title>Artboard</title>
    <desc>Created with Sketch.</desc>
    <defs>
        <path d="M12.2172039,6.32226563 C-4.52539464,13.0989709 0.585892686,116.289063 3,135 C5.41410731,153.710938 16.7548025,191.634766 22.2175998,204.378906 C27.680397,217.123047 50.46875,268.5 64.8515625,271.320313 C79.234375,274.140625 91.3442803,289.34375 91.3442803,296.414062 C91.3442803,303.484375 80.5090449,348.158203 74.1996221,354.5 C69.9933402,358.727865 102.059692,379.105469 170.398677,415.632813 L287.028711,354.5 C263.165547,312.078656 248.229449,282.38139 242.220416,265.408203 C224.281504,214.73774 226.469633,182.573138 227.980999,179.662109 C231.387144,173.101563 202.986885,132.574219 199.472701,115.5625 C195.958518,98.5507813 197.137115,70.7128906 191.159663,63.8359375 C185.182212,56.9589844 203.114566,47.6445313 197.137115,36.8632812 C191.159663,26.0820313 169.277045,-4.20703125 156.982314,1.56640625 C144.687582,7.33984375 122.498529,23.2675781 91.3442803,22.8554688 C60.190032,22.4433594 28.9598025,-0.454439643 12.2172039,6.32226563 Z" id="path-1"></path>
        <path d="M185.289797,28.0105853 C180.100042,30.0639708 177.505164,32.7091531 177.505164,35.9461322 C177.505164,40.801601 182.700812,59.1590228 159.431378,71.6805072 C136.161944,84.2019916 79.3320313,114.078945 68.8984375,120.90625 C58.4648438,127.733555 39.8037791,156.864101 37.578195,171.287929 C35.3526109,185.711757 27.8213759,227.092617 26.9217135,241.725429 C26.0220511,256.358242 -17.1445313,466.742187 7.953125,500.46875 C24.6848958,522.953125 200.502453,522.953125 535.405797,500.46875 C540.448883,422.065651 540.448883,380.176601 535.405797,374.801601 C527.841169,366.739101 519.469201,309.21957 519.349377,297.914882 C519.229553,286.610195 511.311345,280.254726 511.179735,263.871913 C511.048125,247.489101 493.437921,158.09457 489.886415,152.758632 C486.33491,147.422695 467.724862,98.4148822 456.722659,92.5789447 C445.720456,86.7430072 402.289155,74.5418353 390.844978,61.3348041 C379.4008,48.1277728 359.195719,23.6043353 358.445345,18.0789447 C357.694972,12.5535541 337.774717,-5.55972715 339.9453,1.6863666 C342.115883,8.93246035 363.045802,33.2176166 339.9453,61.3348041 C316.844798,89.4519916 277.903952,113.926601 269.439661,114.078945 C260.97537,114.231288 240.772253,94.0379291 230.111843,96.270351 C219.451432,98.5027728 185.289797,85.6473041 185.289797,71.6805072 C185.289797,62.3693093 185.289797,47.8126687 185.289797,28.0105853 Z" id="path-3"></path>
        <filter x="-1.9%" y="-2.0%" width="103.9%" height="104.1%" filterUnits="objectBoundingBox" id="filter-5">
            <feOffset dx="0" dy="21" in="SourceAlpha" result="shadowOffsetInner1"></feOffset>
            <feComposite in="shadowOffsetInner1" in2="SourceAlpha" operator="arithmetic" k2="-1" k3="1" result="shadowInnerInner1"></feComposite>
            <feColorMatrix values="0 0 0 0 0.817814626   0 0 0 0 0.817814626   0 0 0 0 0.817814626  0 0 0 1 0" type="matrix" in="shadowInnerInner1"></feColorMatrix>
        </filter>
    </defs>
    <g id="Artboard" stroke="none" stroke-width="1" fill="none" fill-rule="evenodd">
        <g id="Guy-#2" transform="translate(0.000000, 115.000000)">
            <g id="Path-24" transform="translate(95.000000, 73.000000)">
                <mask id="mask-2" fill="white">
                    <use xlink:href="#path-1"></use>
                </mask>
                <use id="Mask" fill="#F4BBBC" xlink:href="#path-1"></use>
                <path d="M72.5048828,273.107121 C109.24928,280.435805 135.702672,282.062682 151.86506,277.987749 C168.027447,273.912817 194.480839,258.946848 231.225236,233.089844 C201.929207,289.041468 168.823332,315.974013 131.907612,313.88748 C94.9918921,311.800947 75.1909824,298.207494 72.5048828,273.107121 Z" fill="#D59FA0" mask="url(#mask-2)"></path>
            </g>
            <path d="M167.504883,226.962891 L154.930664,232.441406" id="Path-15" stroke="#D59FA0" stroke-width="6" transform="translate(161.217773, 229.702148) scale(1, -1) translate(-161.217773, -229.702148) "></path>
            <path d="M174.696289,227.082031 L187.239258,231.347656" id="Path-25" stroke="#D59FA0" stroke-width="6" transform="translate(180.967773, 229.214844) scale(1, -1) translate(-180.967773, -229.214844) "></path>
            <g id="Group-7" transform="translate(0.000000, 347.000000)">
                <g id="Path-9">
                    <mask id="mask-4" fill="white">
                        <use xlink:href="#path-3"></use>
                    </mask>
                    <g id="Mask">
                        <use fill="#E9E9E9" fill-rule="evenodd" xlink:href="#path-3"></use>
                        <use fill="black" fill-opacity="1" filter="url(#filter-5)" xlink:href="#path-3"></use>
                    </g>
                    <path d="M146.578125,91.7929688 C81.3020833,240.589844 52.1497396,348.553385 59.1210937,415.683594 C66.0924479,482.813802 44.6536458,479.74349 -5.1953125,406.472656 L32.6132813,144.847656 L156.109375,49.0859375 L146.578125,91.7929688 Z" fill="#D1D1D1" mask="url(#mask-4)"></path>
                </g>
            </g>
            <ellipse id="Oval-5" fill="#FFFFFF" cx="217.661568" cy="184.5" rx="4.52581262" ry="4.5"></ellipse>
            <ellipse id="Oval-5-Copy" fill="#FFFFFF" cx="138.208413" cy="192.5" rx="4.52581262" ry="4.5"></ellipse>
            <path d="M207.590302,149.087775 C193.52833,153.023322 186.475409,155.356981 186.431539,156.088752 C186.365734,157.186408 184.040961,165.23133 190.629309,165.562384 C197.217657,165.893439 217.447302,160.953986 220.308347,158.521369 C223.169391,156.088752 231.522697,150.306525 238.047214,151.581916 C244.571731,152.857306 259.517324,151.604377 252.491903,150.306525 C245.466483,149.008674 227.916191,142.045783 222.65179,143.110236 C219.14219,143.819871 214.121694,145.812384 207.590302,149.087775 Z" id="Path-3" fill="#FFFFFF"></path>
            <path d="M116.578878,160.873584 C119.296207,160.429449 120.808742,160.952057 122.935513,161.831781 C125.062284,162.711504 148.418131,171.587007 149.12387,169.717698 C149.829609,167.848388 151.35241,163.719676 148.896032,161.831781 C146.439653,159.943885 125.321069,150.805291 124.490922,150.805291 C123.660775,150.805291 118.255787,148.08806 115.253177,152.63619 C112.250567,157.18432 107.676971,163.255446 110.35392,163.888186 C113.030868,164.520926 113.861549,161.317719 116.578878,160.873584 Z" id="Path-7" fill="#FFFFFF"></path>
            <path d="M305.808594,559.75 C315.160156,553.320313 387.449219,567.425781 393.023438,571.921875 C396.739583,574.919271 396.739583,582.183594 393.023438,593.714844 L296.457031,586.429688 C296.457031,572.929688 299.574219,564.036458 305.808594,559.75 Z" id="Path-10" fill="#D1D1D1"></path>
            <path d="M110.265625,65.28125 C119.421892,42.4270833 126.826854,28 132.480511,22 C140.960996,13 165.000104,-2.84217094e-14 214.000197,0 C263.00029,2.84217094e-14 324.103922,13.7988281 339.094184,55.3007813 C349.087693,82.96875 354.056608,126.201823 354.000931,185 L322.14298,151.458984 L266.990532,117.238281 L209.125188,94.9564404 L132.480511,85.4316406 L110.265625,65.28125 Z" id="Path-21" fill="#5E667B"></path>
            <path d="M354.382813,185.003906 C305.854167,123.997396 252.048828,87.6113281 192.966797,75.8457031 C104.34375,58.1972656 30.9160156,59.3320313 28.2402344,73.7519531 C25.5644531,88.171875 23.1992188,108.404297 55.3867188,121.181641 C76.8450521,129.69987 90.0494792,135.639323 95,139 C94.7473958,115.966146 105.414062,103.632812 127,102 C159.378906,99.5507813 190.806641,89.9785156 257.482422,121.181641 C301.932943,141.983724 334.233073,163.257813 354.382813,185.003906 Z" id="Path-20" fill="#4C5365"></path>
            <path d="M259.246094,474.726562 C238.178385,683.315104 238.178385,796.567708 259.246094,814.484375" id="Path-19" stroke="#D1D1D1" stroke-width="4"></path>
            <circle id="Oval-6" fill="#D1D1D1" cx="235" cy="524" r="8"></circle>
            <circle id="Oval-6-Copy-3" fill="#D1D1D1" cx="229" cy="584" r="8"></circle>
            <circle id="Oval-6-Copy-4" fill="#D1D1D1" cx="226" cy="644" r="8"></circle>
            <circle id="Oval-6-Copy-5" fill="#D1D1D1" cx="223" cy="701" r="8"></circle>
            <path d="M280.716797,131.724609 C285.855041,147.89201 289.018452,158.912843 290.207031,164.787109 C294.604279,186.519452 290.694345,185.153646 290.207031,185.917969 C289.179688,187.529297 305.791016,157.111328 322.509766,159.223633 C333.655599,160.631836 319.724609,151.465495 280.716797,131.724609 Z" id="Path-22" fill="#E9E9E9"></path>
            <path d="M230.507138,264.200684 C235.358579,266.112099 229.262997,268.599121 230.507138,269.85498 C231.751279,271.11084 232.597958,278.221191 230.507138,277.967285 C228.416318,277.713379 215.290341,278.475098 212.584286,278.221191 C209.878232,277.967285 199.137997,276.098145 196.521786,276.098145 C193.905575,276.098145 179.742489,275.461426 177.883114,274.869629 C176.023739,274.277832 166.859677,273.641113 165.61163,274.869629 C164.363583,276.098145 162.95831,279.836426 160.679989,277.967285 C158.401669,276.098145 153.4212,278.221191 151.573544,278.221191 C150.341773,278.221191 144.004859,281.576986 132.562802,288.288574 C129.16176,289.934408 127.070614,289.299642 126.289364,286.384277 C125.117489,282.01123 123.637021,274.885254 127.461239,271.053223 C130.010719,268.498535 143.53969,261.544434 168.048154,250.190918 C171.261044,248.603027 175.443987,248.603027 180.596982,250.190918 C188.326474,252.572754 225.655697,262.289268 230.507138,264.200684 Z" id="Path-23" fill="#FFFFFF"></path>
            <g id="Ear-Gray-Copy" transform="translate(323.506258, 200.558899) scale(-1, 1) rotate(-349.000000) translate(-323.506258, -200.558899) translate(295.006258, 158.058899)">
                <path d="M6.05440613,45.4094299 C2.2630904,40.6330738 0,34.5987718 0,28.0381944 C0,12.5531272 12.6079354,0 28.1606119,0 C43.4174293,0 55.8404757,12.0800728 56.3076027,27.1577249 L56.3212237,27.1527778 L56.3212237,70.8333333 L56.3182495,70.8338113 C56.160149,78.6843821 49.7189787,85 41.7962765,85 C35.4756101,85 30.0978968,80.9802881 28.1012223,75.3683514 L28.0393197,75.3782993 L5.92854986,45.4551403 L6.05440613,45.4094299 Z" id="Combined-Shape" fill="#F4BBBC"></path>
                <path d="M47.2674584,28.2380952 L47.2695985,28.2380952 L47.2695985,47.8809524 L47.2652481,47.8809524 C47.2681415,47.9797988 47.2695985,48.0790121 47.2695985,48.1785714 C47.2695985,53.6027966 42.9448616,58 37.6100283,58 C32.2751949,58 27.950458,53.6027966 27.950458,48.1785714 C27.950458,48.0782594 27.9519371,47.9782985 27.9548743,47.8787103 C27.8560063,47.8802033 27.7569611,47.8809524 27.6577438,47.8809524 C16.8264155,47.8809524 8.0458891,38.9532971 8.0458891,27.9404762 C8.0458891,16.9276553 16.8264155,8 27.6577438,8 C38.489072,8 47.2695985,16.9276553 47.2695985,27.9404762 C47.2695985,28.039854 47.2688835,28.139062 47.2674584,28.2380952 Z" id="Combined-Shape" fill="#D59FA0"></path>
                <path d="M39.4317927,46.9950412 C34.8469397,46.8405633 31.1778203,43.0963222 31.1778203,38.5 C31.1778203,33.9036778 34.8469397,30.1594367 39.4317927,30.0049588 L39.4317927,30 L48.2753346,30 L48.2753346,47 L39.4317927,47 L39.4317927,46.9950412 Z" id="Combined-Shape" fill="#BE8C8D"></path>
                <path d="M48.2294455,31 L48.2753346,31 L48.2753346,47 L48.2294455,47 C43.8111675,47 40.2294455,43.418278 40.2294455,39 L40.2294455,39 C40.2294455,34.581722 43.8111675,31 48.2294455,31 Z" id="Rectangle-2" fill="#F4BBBC"></path>
            </g>
        </g>
    </g>
</svg>