<?xml version="1.0" encoding="UTF-8" standalone="no"?>
<svg width="320px" height="510px" viewBox="0 0 320 510" version="1.1" xmlns="http://www.w3.org/2000/svg" xmlns:xlink="http://www.w3.org/1999/xlink">
    <!-- Generator: Sketch 49.1 (51147) - http://www.bohemiancoding.com/sketch -->
    <title>BG</title>
    <desc>Created with Sketch.</desc>
    <defs>
        <rect id="path-1" x="0" y="0" width="320" height="510"></rect>
        <path d="M113.333182,41.3032864 C127.512947,61.3238028 129.961005,81.8136054 120.677357,102.772694 C106.751883,134.211327 99.4809394,136.858109 97.980344,142.253708 C96.4797487,147.649308 88.5399119,164.125837 84.2989314,160.678399 C80.057951,157.230961 43.6545555,164.760463 43.2408639,163.261186 C42.8271724,161.76191 55.8274906,103.91326 52.4485815,98.4476481 C51.0636118,96.2073667 50.8999905,69.5040761 66.5616293,55.6175924 C73.1026167,49.8179876 88.6931342,45.0465523 113.333182,41.3032864 Z" id="path-3"></path>
        <filter x="-7.8%" y="-5.3%" width="115.7%" height="110.6%" filterUnits="objectBoundingBox" id="filter-4">
            <feOffset dx="0" dy="-13" in="SourceAlpha" result="shadowOffsetInner1"></feOffset>
            <feComposite in="shadowOffsetInner1" in2="SourceAlpha" operator="arithmetic" k2="-1" k3="1" result="shadowInnerInner1"></feComposite>
            <feColorMatrix values="0 0 0 0 0.836176658   0 0 0 0 0.621787614   0 0 0 0 0.625548826  0 0 0 1 0" type="matrix" in="shadowInnerInner1"></feColorMatrix>
        </filter>
        <ellipse id="path-5" cx="34.3198836" cy="10.5662872" rx="8.66015754" ry="10.5662872"></ellipse>
        <filter x="-5.8%" y="-4.7%" width="111.5%" height="109.5%" filterUnits="objectBoundingBox" id="filter-6">
            <feOffset dx="0" dy="-2" in="SourceAlpha" result="shadowOffsetInner1"></feOffset>
            <feComposite in="shadowOffsetInner1" in2="SourceAlpha" operator="arithmetic" k2="-1" k3="1" result="shadowInnerInner1"></feComposite>
            <feColorMatrix values="0 0 0 0 0.243838094   0 0 0 0 0.265935451   0 0 0 0 0.322757228  0 0 0 1 0" type="matrix" in="shadowInnerInner1"></feColorMatrix>
        </filter>
        <ellipse id="path-7" cx="8.66015754" cy="10.5662872" rx="8.66015754" ry="10.5662872"></ellipse>
        <filter x="-5.8%" y="-4.7%" width="111.5%" height="109.5%" filterUnits="objectBoundingBox" id="filter-8">
            <feOffset dx="0" dy="-2" in="SourceAlpha" result="shadowOffsetInner1"></feOffset>
            <feComposite in="shadowOffsetInner1" in2="SourceAlpha" operator="arithmetic" k2="-1" k3="1" result="shadowInnerInner1"></feComposite>
            <feColorMatrix values="0 0 0 0 0.243838094   0 0 0 0 0.265935451   0 0 0 0 0.322757228  0 0 0 1 0" type="matrix" in="shadowInnerInner1"></feColorMatrix>
        </filter>
        <path d="M121.24985,44.1778888 C100.762994,61.5710808 68.5887117,55.8817464 65.6430285,63.5115584 C57.3100993,85.0952388 73.1871174,105.668286 84.4865488,103.944567 C95.7859803,102.220848 95.5226053,94.5013064 101.528841,95.9249136 C107.535076,97.3485207 112.563613,95.4760284 114.028235,94.5013064 C115.492857,93.5265843 120.936585,98.3219602 119.603542,101.133264 C118.2705,103.944567 124.876717,92.5518623 124.839459,89.5917854 C124.802201,86.6317085 128.142567,99.7481325 124.876717,103.944567 C121.610866,108.141002 117.558745,112.676025 117.670519,116.197849 C117.782293,119.719674 118.458074,124.030254 111.36365,127.364829 C104.269226,130.699405 101.115149,134.784259 95.1847144,134.146843 C89.2542794,133.509426 71.5734635,133.659482 68.608246,130.512155 C65.6430285,127.364829 59.4106758,121.183039 58.060397,109.790334 C56.7101181,98.3976294 61.4380212,82.8065961 58.060397,79.6964633 C57.3880725,79.0773836 57.1639353,73.8411042 51.1624273,72.9455713 C45.3921611,72.0845439 35.4874245,53.6465595 44,42 C60.941697,18.8210595 110.103185,-4.59699587 124.876717,1 C147.073402,9.40927909 139.39931,28.7691282 121.24985,44.1778888 Z" id="path-9"></path>
        <filter x="-3.1%" y="-2.2%" width="106.1%" height="104.5%" filterUnits="objectBoundingBox" id="filter-10">
            <feOffset dx="0" dy="-6" in="SourceAlpha" result="shadowOffsetInner1"></feOffset>
            <feComposite in="shadowOffsetInner1" in2="SourceAlpha" operator="arithmetic" k2="-1" k3="1" result="shadowInnerInner1"></feComposite>
            <feColorMatrix values="0 0 0 0 0.297956809   0 0 0 0 0.324502737   0 0 0 0 0.394185799  0 0 0 1 0" type="matrix" in="shadowInnerInner1"></feColorMatrix>
        </filter>
        <path d="M0.0941849355,146.668706 C21.8631882,149.762213 34.5046961,148.616949 38.0187087,143.232912 C43.2897277,135.156856 48.0858913,136.07115 48.0858913,138.775259 C48.0858913,141.479368 50.1356624,167.644937 74.3695697,160.15298 C98.603477,152.661022 92.4992687,154.691621 94.5127052,151.202761 C96.5261417,147.713901 143.107064,175.855966 150.256205,191.105147 C157.405345,206.354328 151.426429,223.946045 150.256205,235.494167 C149.085981,247.042288 124.9924,312.871351 115.071809,318.535971 C108.458081,322.312385 70.1322067,322.312385 0.0941849355,318.535971 L0.0941849355,146.668706 Z" id="path-11"></path>
        <filter x="-10.4%" y="-8.7%" width="120.8%" height="117.3%" filterUnits="objectBoundingBox" id="filter-12">
            <feOffset dx="-13" dy="-32" in="SourceAlpha" result="shadowOffsetInner1"></feOffset>
            <feComposite in="shadowOffsetInner1" in2="SourceAlpha" operator="arithmetic" k2="-1" k3="1" result="shadowInnerInner1"></feComposite>
            <feColorMatrix values="0 0 0 0 0.450417922   0 0 0 0 0.48095538   0 0 0 0 0.61455676  0 0 0 1 0" type="matrix" in="shadowInnerInner1"></feColorMatrix>
        </filter>
        <path d="M3.91507278,2.02413848 C-1.45018856,4.1937705 0.187752658,37.2311415 0.961367134,43.221641 C1.73498161,49.2121404 5.36917216,61.3538447 7.11975675,65.4340127 C8.87034133,69.5141806 16.1729992,85.9630415 20.7820536,86.8659936 C25.391108,87.7689457 29.2717963,92.6363828 29.2717963,94.9000162 C29.2717963,97.1636496 25.7995833,111.466436 23.7776927,113.496828 C22.4297656,114.850422 32.7056111,121.374522 54.6052291,133.069127 L91.9799896,113.496828 C84.3329026,99.9151972 79.5465446,90.4073116 77.6209156,84.9731709 C71.8722891,68.7505001 72.5734875,58.4526712 73.0578132,57.5206755 C74.149332,55.4202488 65.0483065,42.4450021 63.9221663,36.9985251 C62.7960262,31.552048 63.1737143,22.6394605 61.2582059,20.4377331 C59.3426975,18.2360057 65.0892227,15.2538876 63.1737143,11.8021593 C61.2582059,8.35043104 54.2457959,-1.3469244 50.305879,0.5015011 C46.3659621,2.3499266 39.2553531,7.44935487 29.2717963,7.31741381 C19.2882395,7.18547275 9.28033411,-0.145493534 3.91507278,2.02413848 Z" id="path-13"></path>
        <path d="M59.3771738,8.96787751 C57.714087,9.62529 56.8825436,10.4721724 56.8825436,11.5085246 C56.8825436,13.063053 58.5475188,18.9403707 51.0906957,22.9492529 C43.6338727,26.9581352 25.4224025,36.5235496 22.0788978,38.7093817 C18.7353931,40.8952138 12.7553483,50.2216582 12.0421472,54.8395954 C11.3289461,59.4575326 8.91551879,72.7060411 8.62721684,77.3908867 C8.33891488,82.0757324 -5.49406296,149.43232 2.54862433,160.230227 C7.91041586,167.428831 64.2521563,167.428831 171.573846,160.230227 C173.189931,135.128667 173.189931,121.717456 171.573846,119.996594 C169.149717,117.415302 166.466872,98.9998313 166.428474,95.3805191 C166.390076,91.7612069 163.852641,89.7264381 163.810466,84.4813119 C163.768291,79.2361857 158.125,50.6156054 156.9869,48.9072501 C155.848799,47.1988947 149.885104,31.5085386 146.359385,29.640103 C142.833666,27.7716675 128.915857,23.8653366 125.248505,19.6369695 C121.581153,15.4086024 115.10632,7.55717117 114.865858,5.78816043 C114.625397,4.01914969 108.241837,-1.78000393 108.937413,0.539907641 C109.632989,2.85981922 116.340101,10.6349622 108.937413,19.6369695 C101.534725,28.6389768 89.0559088,36.4747751 86.3434783,36.5235496 C83.6310479,36.572324 77.1568435,30.1072119 73.7406542,30.8219448 C70.3244649,31.5366777 59.3771738,27.4208669 59.3771738,22.9492529 C59.3771738,19.968177 59.3771738,15.3077185 59.3771738,8.96787751 Z" id="path-15"></path>
        <filter x="-1.7%" y="-1.8%" width="103.5%" height="103.6%" filterUnits="objectBoundingBox" id="filter-17">
            <feOffset dx="0" dy="6" in="SourceAlpha" result="shadowOffsetInner1"></feOffset>
            <feComposite in="shadowOffsetInner1" in2="SourceAlpha" operator="arithmetic" k2="-1" k3="1" result="shadowInnerInner1"></feComposite>
            <feColorMatrix values="0 0 0 0 0.817814626   0 0 0 0 0.817814626   0 0 0 0 0.817814626  0 0 0 1 0" type="matrix" in="shadowInnerInner1"></feColorMatrix>
        </filter>
    </defs>
    <g id="Page-1" stroke="none" stroke-width="1" fill="none" fill-rule="evenodd">
        <g id="Artboard">
            <g id="BG">
                <mask id="mask-2" fill="white">
                    <use xlink:href="#path-1"></use>
                </mask>
                <use id="Mask" fill="#1B244D" xlink:href="#path-1"></use>
                <g id="Group" mask="url(#mask-2)">
                    <g transform="translate(-166.000000, 140.000000)">
                        <g id="BG" stroke-width="1" fill="none">
                            <path d="M397.079097,147.99434 C411.482933,165.323835 414.016941,181.720204 404.681122,197.183446 C390.677392,220.378308 366.670999,238.374323 363.470147,255.970425 C360.269294,273.566528 359.469081,285.163959 344.265032,273.566528 C329.060983,261.969097 262.643296,199.982826 266.644361,151.193632 C269.311738,118.667502 312.789984,117.601072 397.079097,147.99434 Z" id="Path-29" fill="#131A3A"></path>
                            <path d="M272.321229,212.352967 C272.321229,212.352967 370.403762,308.015859 321.362495,332.524534 C272.321229,357.033209 177.402648,352.289595 224.861939,402.888149 C272.321229,453.486704 300.005815,482.738993 243.054666,519.897307 C186.103518,557.05562 127.570394,505.666463 171.865731,573.658271 C216.161069,641.650079 183.730554,661.415139 159.20992,664.577549 C134.689287,667.739958 38.9797186,679.598994 75.3651744,712.013693 C111.75063,744.428392 124.406441,772.890079 107.004701,795.817549 C89.6029615,818.745019 84.0660443,831.394658 99.0948195,862.228152 C114.123595,893.061646 61.9183756,926.266948 48.4715767,880.412008 C35.0247778,834.557068 21.5779789,798.189357 35.0247778,772.890079 C48.4715767,747.590802 49.2625648,729.406947 21.5779789,718.338513 C-6.10660707,707.270079 -10.8525361,636.115862 30.2788488,622.675621 C71.4102336,609.23538 39.7707068,576.990419 35.0247778,567.333452 C30.2788488,557.676484 27.9058842,496.179234 75.3651744,477.995379 C122.824465,459.811523 118.869524,425.815619 99.0948195,402.888149 C79.3201153,379.960679 69.8282573,315.131281 111.75063,300.109835 C153.673003,285.088389 242.263678,277.972968 231.189844,250.301883 C220.11601,222.630799 272.321229,212.352967 272.321229,212.352967 Z" id="Path-28" fill="#202A54"></path>
                            <path d="M407.375054,212.872784 C399.323311,216.09191 393.371324,220.871012 388.169939,240.866584 C382.968554,260.862155 374.566316,261.661978 360.562587,264.061446 C346.558857,266.460915 324.552997,281.257638 323.352677,302.452943 C322.152358,323.648249 329.754382,347.243023 323.352677,357.240808 C316.950973,367.238594 321.752251,382.83514 332.955235,370.837797 C344.158218,358.840454 349.359603,331.246566 372.565783,323.648249 C395.771964,316.049932 431.781553,296.854183 427.780488,280.457815 C423.779422,264.061446 410.575906,240.466672 412.176332,231.268709 C413.776758,222.070746 415.426796,209.653657 407.375054,212.872784 Z" id="Path-26" fill="#222D5C"></path>
                            <path d="M448.324701,242.311124 C430.286555,249.522863 416.952446,260.229384 405.299894,305.025034 C393.647342,349.820685 374.823989,351.612511 343.451733,356.987989 C312.079478,362.363467 262.78022,395.512249 260.091169,442.995638 C257.402119,490.479028 274.432772,543.337896 260.091169,565.735721 C245.749567,588.133546 256.505769,623.074154 281.603573,596.196763 C306.701377,569.319373 318.353929,507.501375 370.342238,490.479028 C422.330547,473.456681 503.00206,430.452856 494.038559,393.720423 C485.075057,356.987989 455.495502,304.129121 459.080903,283.523122 C462.666303,262.917123 466.362847,235.099384 448.324701,242.311124 Z" id="Path-26-Copy-2" fill="#182045"></path>
                            <path d="M553.448668,54.5676101 C505.310443,80.1502 479.021514,82.5847327 469.907984,163.967803 C460.794455,245.350874 489.293029,264.69603 494.97019,236.678907 C500.647351,208.661784 488.894504,172.63977 518.513473,179.310513 C548.132443,185.981257 532.544703,218.172152 522.310777,246.017948 C512.076851,273.863744 526.905131,325.228469 540.1769,325.228469 C553.448668,325.228469 541.343255,268.518598 548.132443,256.024063 C554.921631,243.529528 580.029795,239.347204 580.029795,264.69603 C580.029795,290.044855 601.294697,346.0791 618.002833,339.408357 C634.71097,332.737613 614.20553,316.727829 611.167687,281.372888 C608.129843,246.017948 615.724451,205.326413 637.748813,167.970249 C659.773175,130.614086 667.367783,77.2481379 650.659646,67.909097 C633.951509,58.5700562 601.586894,28.9850202 553.448668,54.5676101 Z" id="Path-27" fill="#181E39"></path>
                            <path d="M214.158312,331.706228 C166.020086,357.288818 139.731157,359.723351 130.617627,441.106421 C121.504098,522.489492 150.002672,541.834648 155.679833,513.817525 C161.356994,485.800403 149.604147,449.778388 179.223116,456.449131 C208.842086,463.119875 193.254346,495.31077 183.02042,523.156566 C172.786494,551.002362 187.614774,602.367087 200.886543,602.367087 C214.158312,602.367087 202.052898,545.657217 208.842086,533.162681 C215.631274,520.668146 240.739438,516.485823 240.739438,541.834648 C240.739438,567.183473 262.00434,623.217718 278.712476,616.546975 C295.420613,609.876231 274.915173,593.866447 271.87733,558.511507 C268.839487,523.156566 276.434094,482.465031 298.458456,445.108867 C320.482818,407.752704 328.077426,354.386756 311.369289,345.047715 C294.661153,335.708674 262.296537,306.123638 214.158312,331.706228 Z" id="Path-27-Copy" fill="#181E39" transform="translate(224.634399, 469.311482) scale(1, -1) translate(-224.634399, -469.311482) "></path>
                        </g>
                        <path d="M340.061185,398.197695 C340.061185,398.197695 348.302442,376.882885 348.645502,376.358001 C348.988563,375.833117 316.702621,367.77787 313.689318,356.481153 C311.68045,348.950009 313.63644,348.516251 319.557287,355.179879 C330.684209,364.749635 337.922074,369.146577 341.270882,368.370708 C346.294095,367.206903 330.790748,355.179879 329.215328,355.179879 C327.639908,355.179879 319.557287,333.865069 319.557287,329.848771 C319.557287,325.832473 323.301253,334.526641 324.489069,337.014371 C325.676886,339.502102 330.700098,348.812539 333.34846,350.022428 C335.996822,351.232316 342.11642,359.638456 343.120594,361.56987 C344.124767,363.501284 344.011456,360.452149 343.120594,358.466651 C342.229731,356.481153 337.892639,348.218921 336.179683,344.568167 C334.466727,340.917413 330.787081,329.186418 330.787081,325.786389 C330.787081,322.386361 330.471131,314.217077 331.909796,317.617105 C333.34846,321.017133 342.57201,341.624288 344.23886,345.823358 C345.90571,350.022428 350.814049,360.154559 350.426446,361.56987 C350.038842,362.985182 349.832537,349.406158 348.645502,345.823358 C347.458468,342.240557 347.252944,320.607068 347.458468,317.617105 C347.663991,314.627142 348.554072,306.366472 349.490259,305.156583 C350.426446,303.946695 350.426446,308.967458 350.426446,312.824416 C350.426446,316.681375 354.216517,332.791869 354.285286,337.014371 C354.354054,341.236874 354.422822,360.748177 354.354054,361.56987 C354.285286,362.391563 359.102975,343.107553 359.102975,338.360948 C359.102975,333.614343 362.664861,323.960231 365.085037,314.558407 C367.505213,305.156583 371.637563,298.424481 371.637563,300.409979 C371.637563,302.395476 371.021774,314.74196 370.10825,320.264175 C369.194725,325.786389 364.011313,353.878605 362.413232,355.179879 C360.81515,356.481153 368.578936,338.132092 370.10825,333.020725 C371.637563,327.909357 384.652748,305.201105 386.296154,302.805542 C387.939561,300.409979 392.096136,293.700527 390.38318,300.409979 C388.670224,307.11943 384.697291,323.252576 383.007779,325.786389 C381.318266,328.320203 378.122102,336.99172 376.227067,338.360948 C374.332031,339.730176 367.756842,351.392437 365.085037,356.481153 C362.413232,361.56987 374.149169,344.523646 376.227067,341.442297 C378.304964,338.360948 387.826249,327.52038 389.561086,325.786389 C391.295923,324.052398 401.981582,314.558407 402.940431,314.558407 C403.89928,314.558407 399.082372,328.296771 396.821614,329.848771 C394.560855,331.400771 367.778723,362.803191 363.965989,365.586949 C360.153255,368.370708 384.241701,351.072195 386.296154,350.022428 C388.350608,348.97266 411.410655,337.083887 412.918088,335.57719 C414.42552,334.070492 410.292389,344.044064 404.812804,347.033246 C399.33322,350.022428 378.555812,361.569089 376.227067,363.578019 C373.898321,365.586949 366.591688,366.339907 366.477595,368.370708 C366.363502,370.401508 370.10825,372.432308 370.10825,370.401508 C370.10825,368.370708 383.214084,365.586949 384.309688,365.586949 C385.405292,365.586949 403.351478,358.466651 404.812804,358.466651 C406.274131,358.466651 416.434649,358.466651 416.959789,358.466651 C417.484929,358.466651 406.799271,364.046762 402.940431,365.586949 C399.08159,367.127137 374.514892,373.689842 373.076227,374.236596 C371.637563,374.78335 400.109989,378.479406 401.52521,376.358001 C402.940431,374.236596 400.109989,381.562317 389.561086,381.652922 C379.012183,381.743527 370.450528,381.288159 368.464062,380.511769 C366.477595,379.735378 363.424518,380.923396 364.951057,381.288159 C366.477595,381.652922 396.637971,394.980439 399.08159,394.272783 C401.52521,393.565127 398.921392,399.110774 394.652286,396.691779 C390.38318,394.272783 378.761335,392.059992 375.199449,391.306253 C371.637563,390.552513 353.806252,380.877313 353.212344,379.576038 C352.816405,378.708522 350.365752,384.915741 345.860386,398.197695 C341.994252,398.197695 340.061185,398.197695 340.061185,398.197695 Z" id="Path-14" fill="#7F87AA" transform="translate(364.952211, 347.853719) scale(-1, 1) translate(-364.952211, -347.853719) "></path>
                        <g id="Guy-#1" stroke-width="1" fill="none" transform="translate(146.000000, 179.000000)">
                            <g id="Path-16">
                                <use fill="#F4BBBC" fill-rule="evenodd" xlink:href="#path-3"></use>
                                <use fill="black" fill-opacity="1" filter="url(#filter-4)" xlink:href="#path-3"></use>
                            </g>
                            <g id="Glasses" transform="translate(86.695760, 64.484912)">
                                <path d="M11.7749075,4.07492468 C17.7788824,0.0550327458 25.185706,0.0550327458 33.9953783,4.07492468" id="Path-17" stroke="#FFFFFF" stroke-width="0.96"></path>
                                <g id="Oval-6-Copy">
                                    <use fill="#4C5365" fill-rule="evenodd" xlink:href="#path-5"></use>
                                    <use fill="black" fill-opacity="1" filter="url(#filter-6)" xlink:href="#path-5"></use>
                                </g>
                                <g id="Oval-6-Copy-2">
                                    <use fill="#4C5365" fill-rule="evenodd" xlink:href="#path-7"></use>
                                    <use fill="black" fill-opacity="1" filter="url(#filter-8)" xlink:href="#path-7"></use>
                                </g>
                                <path d="" id="Path-11" stroke="#979797" stroke-width="0.5"></path>
                            </g>
                            <g id="Ear-Gray-Copy" transform="translate(50.470493, 86.809866) rotate(-360.000000) translate(-50.470493, -86.809866) translate(41.470493, 72.809866)">
                                <path d="M1.93085439,14.539669 C0.721738505,13.0103251 0,11.0781988 0,8.97756408 C0,4.01939235 4.02088773,0 8.98090412,0 C13.8465659,0 17.8084894,3.86792481 17.9574643,8.69564607 L17.9618082,8.69406206 L17.9618082,22.6801619 L17.9608597,22.6803149 C17.9104387,25.1939933 15.8562386,27.2161943 13.3295524,27.2161943 C11.313783,27.2161943 9.59873764,25.9291206 8.96196377,24.1322317 L8.94222197,24.1354169 L1.89071666,14.554305 L1.93085439,14.539669 Z" id="Combined-Shape" fill="#F4BBBC"></path>
                                <path d="M15.0744102,9.04157042 L15.0750891,9.04157042 L15.0750891,15.3310271 L15.0737016,15.3310271 C15.0746244,15.3626768 15.0750891,15.3944439 15.0750891,15.4263219 C15.0750891,17.1631074 13.695856,18.5710502 11.9944857,18.5710502 C10.2931155,18.5710502 8.91388244,17.1631074 8.91388244,15.4263219 C8.91388244,15.3942029 8.91435415,15.3621964 8.91529087,15.3303092 C8.88376017,15.3307872 8.85217294,15.3310271 8.82053083,15.3310271 C5.3662337,15.3310271 2.5659726,12.4724765 2.5659726,8.94627562 C2.5659726,5.42007476 5.3662337,2.56152417 8.82053083,2.56152417 C12.274828,2.56152417 15.0750891,5.42007476 15.0750891,8.94627562 C15.0750891,8.97809546 15.074861,9.00986093 15.0744066,9.04157042 Z" id="Combined-Shape" fill="#D59FA0"></path>
                                <path d="M12.5754778,15.0473667 C11.1132892,14.9979044 9.94314384,13.7990339 9.94314384,12.3273351 C9.94314384,10.8556362 11.1132892,9.65676574 12.5754778,9.60730338 L12.5754778,9.60571563 L15.3958356,9.60571563 L15.3958356,15.0489545 L12.5754778,15.0489545 L12.5754778,15.0473667 Z" id="Combined-Shape" fill="#BE8C8D"></path>
                                <path d="M15.3913872,9.92590615 L15.3958356,9.92590615 L15.3958356,15.0489545 L15.3913872,15.0489545 C13.9766965,15.0489545 12.829863,13.902121 12.829863,12.4874303 L12.829863,12.4874303 C12.829863,11.0727396 13.9766965,9.92590615 15.3913872,9.92590615 Z" id="Rectangle-2" fill="#F4BBBC"></path>
                            </g>
                            <g id="Path-15-Copy">
                                <use fill="#5E667B" fill-rule="evenodd" xlink:href="#path-9"></use>
                                <use fill="black" fill-opacity="1" filter="url(#filter-10)" xlink:href="#path-9"></use>
                            </g>
                            <g id="Path-18">
                                <use fill="#7F87AA" fill-rule="evenodd" xlink:href="#path-11"></use>
                                <use fill="black" fill-opacity="1" filter="url(#filter-12)" xlink:href="#path-11"></use>
                            </g>
                            <path d="M36.4343961,145.702613 C40.3204745,155.762137 44.8119506,161.391772 49.9088243,162.59152 C57.5541349,164.391143 69.3764816,172.515833 75.5312524,170.14566 C81.6860233,167.775488 98.0114617,169.483369 98.3513652,166.037445 C98.5779675,163.740162 100.774213,160.118346 104.940101,155.171998 C103.998792,152.877472 100.492506,151.142064 94.4212423,149.965775 C91.6015782,149.419474 77.3979444,159.532469 71.80485,157.741652 C66.9960775,156.201962 58.8879865,155.713562 54.8967444,151.926942 C48.5368492,145.893104 49.1892486,138.127495 47.9743818,136.956159 C47.1644706,136.175268 44.9396044,136.742168 41.2997833,138.656859 L36.4343961,145.702613 Z" id="Path-6" fill="#737B9D"></path>
                            <path d="M108.026974,87.5267475 L103.993836,89.2809162" id="Path-15" stroke="#D59FA0" stroke-width="1.92" transform="translate(106.010405, 88.403832) scale(1, -1) translate(-106.010405, -88.403832) "></path>
                            <path d="M110.333593,87.5648952 L114.356707,88.9307079" id="Path-25" stroke="#D59FA0" stroke-width="1.92" transform="translate(112.345150, 88.247802) scale(1, -1) translate(-112.345150, -88.247802) "></path>
                        </g>
                        <path d="M438.718694,235.183348 C437.80388,235.183348 434.92436,235.584905 434.593914,237.218657 C434.263468,238.852409 434.800363,247.122573 435.821783,250.500172 C436.843202,253.877772 440.745721,272.88104 440.398462,274.827984 C440.051204,276.774927 442.532739,281.65938 442.109246,282.607356 C441.685753,283.555332 439.076638,276.080749 438.327357,273.041837 C437.578075,270.002925 434.080273,257.026199 433.529819,255.27395 C432.979365,253.521701 430.616675,242.514228 429.922158,240.897569 C429.227642,239.280911 427.068147,239.907293 426.297395,242.048931 C425.526644,244.190569 438.077513,279.988543 439.45814,283.188541 C440.838767,286.38854 440.588923,289.630549 439.45814,288.047498 C438.327357,286.464448 416.76953,248.397647 416.346037,247.474877 C416.063708,246.859697 414.604238,247.167287 411.967625,248.397647 C427.43444,271.96957 435.276836,284.111118 435.494815,284.822294 C435.821783,285.889056 434.953057,286.955819 434.241438,285.889056 C433.529819,284.822294 410.824107,262.406948 410.197419,260.951087 C409.57073,259.495225 406.750343,257.488888 405.522475,258.098467 C404.294606,258.708046 401.271023,259.38513 402.676869,260.951087 C404.082715,262.517043 437.196573,293.369144 438.327357,293.868627 C439.45814,294.368111 437.740689,295.604072 436.167302,295.265385 C434.593914,294.926698 405.263045,282.296772 403.969957,279.909738 C402.676869,277.522704 394.264114,276.287033 394.171068,276.84562 C394.109037,277.218012 394.078021,278.425677 394.078021,280.468615 C422.718624,292.426865 437.598849,298.135099 438.718694,297.593315 C440.398462,296.78064 434.70986,299.184478 433.529819,299.065981 C432.349778,298.947484 405.263045,306.837241 403.969957,306.312261 C402.676869,305.787282 399.421974,308.394506 398.168597,307.996715 C396.915221,307.598924 393.332488,307.590233 393.705255,308.792296 C394.078021,309.99436 394.146139,312.533789 395.738078,312.643884 C397.330017,312.753979 414.416115,308.621649 415.991532,307.123198 C417.566949,305.624747 438.517818,299.758421 439.45814,300.291802 C440.398462,300.825184 439.110032,302.111847 438.718694,302.492833 C438.327357,302.87382 421.332006,314.166092 420.391974,315.503457 C419.451941,316.840821 413.769136,320.870299 412.608806,321.022694 C411.448476,321.175088 404.072279,325.847463 404.334607,327.472813 C404.596935,329.098163 404.609979,331.705677 405.522475,331.222997 C406.43497,330.740317 416.968687,322.622548 417.91813,321.462784 C418.867573,320.30302 430.301012,310.228167 431.173216,309.510232 C432.04542,308.792296 434.241438,307.201134 434.241438,307.996715 C434.241438,308.792296 431.118721,311.923051 429.922158,313.108021 C428.725595,314.292991 425.753029,318.63537 424.474144,319.829032 C423.195259,321.022694 417.955368,325.977549 416.346037,327.472813 C414.736706,328.968077 410.04466,334.427631 408.410111,335.722986 C406.775561,337.018341 403.413996,341.225129 402.676869,341.479217 C401.939742,341.733305 399.915614,343.02837 401.296242,344.670524 C402.676869,346.312678 405.852631,345.567798 406.758749,343.900148 C407.664867,342.232499 433.366045,313.332847 434.593914,312.24957 C435.821783,311.166293 442.718543,301.336256 443.226676,302.492833 C443.73481,303.64941 441.744596,308.626864 440.85529,310.438217 C439.965984,312.24957 435.658009,326.02854 434.593914,327.472813 C433.529819,328.917086 430.887989,340.810245 429.922158,342.740384 C428.956328,344.670524 425.908396,350.09647 426.297395,351.577827 C426.686394,353.059185 428.236303,353.711353 429.286484,352.64459 C430.336665,351.577827 435.167847,335.702705 435.494815,333.462851 C435.821783,331.222997 440.991816,315.706843 442.109246,312.24957 C443.226676,308.792296 444.073372,305.833058 444.564693,305.816254 C445.056015,305.79945 445.547336,308.940055 445.056015,310.438217 C444.564693,311.936378 444.242943,314.819709 443.73481,317.921201 C443.226676,321.022694 442.770428,331.109425 442.109246,332.802571 C441.448064,334.495716 441.312117,337.128436 440.85529,338.660495 C440.398462,340.192554 439.906561,345.085408 439.898155,346.685263 C439.889749,348.285117 440.197586,350.130078 439.45814,351.577827 C438.718694,353.025577 442.431576,354.202145 442.109246,350.697646 C441.786916,347.193148 442.718543,336.095281 443.226676,333.462851 C443.73481,330.830421 446.360118,323.116527 446.089094,319.829032 C445.81807,316.541537 446.063876,308.209952 447.308846,309.510232 C448.553817,310.810512 447.94423,311.894368 448.553817,314.357599 C449.163403,316.820831 452.153651,333.339429 452.763527,335.159473 C453.373404,336.979518 455.685657,348.00959 457.404847,347.052922 C459.124037,346.096254 460.34321,346.460437 459.4626,342.117768 C458.581989,337.775099 453.000637,313.293444 451.815089,311.04287 C450.629541,308.792296 449.443992,305.320247 450.629541,305.816254 C451.815089,306.312261 456.075236,313.211742 457.404847,314.357599 C458.734458,315.503457 469.133369,329.338344 470.82734,331.222997 C472.521312,333.10765 480.355206,341.598293 481.219004,341.022612 C482.082802,340.446931 483.793585,338.999472 482.082802,338.000504 C480.372018,337.001537 455.710006,308.870232 455.633772,307.996715 C455.557537,307.123198 475.392136,320.884496 477.060599,323.618618 C478.729062,326.352741 488.282146,335.197717 489.484796,335.722986 C490.687447,336.248255 492.457653,336.35806 492.000246,334.352013 C491.542839,332.345966 488.578678,330.057728 487.299793,328.765271 C486.020909,327.472813 479.805042,321.143798 478.43282,320.486415 C477.060599,319.829032 455.523913,302.414029 453.98241,301.922947 C452.440908,301.431865 451.517687,299.660204 453.10151,299.976003 C454.685333,300.291802 483.91301,304.064005 485.005511,304.758183 C486.098013,305.452361 492.450116,307.996715 493.644071,307.996715 C494.838025,307.996715 505.449696,311.366202 506.914964,310.438217 C508.380232,309.510232 510.006375,306.808268 507.906013,306.312261 C505.80565,305.816254 497.590874,304.538283 495.820668,303.700112 C494.050462,302.861941 491.06775,301.312209 489.484796,301.617578 C487.901843,301.922947 476.375648,301.199796 474.58863,300.745799 C472.801611,300.291802 467.66897,298.46973 465.06917,299.065981 C462.46937,299.662233 456.62569,298.021527 457.015269,297.593315 C457.404847,297.165104 461.681517,296.736892 462.604737,297.165104 C463.527957,297.593315 474.537613,296.736892 475.545474,297.165104 C476.553335,297.593315 486.46904,297.208852 487.299793,297.593315 C488.130547,297.977779 498.827148,298.689051 500.732721,298.468861 C502.638295,298.248671 505.306213,299.344406 505.712604,298.468861 C506.118995,297.593315 506.678144,297.845665 505.712604,296.555525 C504.747063,295.265385 504.416617,294.516739 504.069358,293.868627 C503.7221,293.220515 503.578327,293.246011 502.756849,293.220515 C501.935372,293.19502 487.283561,293.89731 485.005511,293.558913 C482.727462,293.220515 471.040101,293.399479 469.845857,293.89731 C468.651613,294.395141 458.675326,293.975246 457.404847,295.265385 C456.134369,296.555525 453.542975,296.200034 454.914906,294.879473 C456.286838,293.558913 467.779119,290.663993 468.812488,290.003713 C469.845857,289.343432 486.775427,284.381334 487.969382,284.14434 C489.163336,283.907346 492.931582,281.516256 493.287826,280.468615 C493.644071,279.420974 496.100677,277.202849 493.644071,277.609332 C491.187464,278.015814 487.469944,279.350861 486.444981,279.909738 C485.420018,280.468615 479.441261,283.475947 477.87425,283.543453 C476.30724,283.610959 471.556061,286.819359 470.370513,286.666965 C469.184965,286.51457 461.918047,289.311273 459.987255,290.003713 C458.056464,290.696152 455.847402,292.930792 454.914906,292.448402 C453.98241,291.966011 454.803308,291.297329 455.633772,290.366157 C456.464235,289.434985 467.254463,284.286884 468.812488,282.607356 C470.370513,280.927827 473.647727,279.937262 474.943714,278.074918 C476.239701,276.212574 483.115301,270.680299 485.723507,269.359738 C488.331713,268.039178 492.498814,266.540726 492.557946,265.287961 C492.617079,264.035196 493.233912,261.853866 492.617079,260.951087 C492.000246,260.048307 488.154606,261.715957 487.299793,262.968723 C486.444981,264.221488 474.916757,272.22105 473.7057,273.753109 C472.494644,275.285168 469.335404,277.347711 467.446933,278.908163 C465.558462,280.468615 464.455816,281.499742 461.959208,283.543453 C459.4626,285.587164 455.847402,288.160201 454.914906,288.761377 C453.98241,289.362554 453.344997,289.23015 454.489384,287.026222 C455.633772,284.822294 461.315127,273.575219 461.637167,271.467478 C461.959208,269.359738 464.796117,265.660546 465.956447,264.111393 C467.116777,262.56224 472.542182,253.814612 473.354964,252.157392 C474.167745,250.500172 476.344052,247.474877 474.167745,247.474877 C471.991438,247.474877 470.687045,248.813691 469.238879,250.853635 C467.790713,252.89358 464.321028,260.633839 462.604737,264.111393 C460.888446,267.588947 458.985192,271.25569 458.195019,273.041837 C457.404847,274.827984 457.003674,276.853732 455.95929,278.381735 C454.914906,279.909738 453.000637,282.379053 451.815089,284.523009 C450.629541,286.666965 450.018215,288.761377 449.061081,288.761377 C448.103946,288.761377 448.222501,286.791835 448.103946,284.523009 C447.985391,282.254182 448.739041,269.539946 449.501386,266.04385 C450.263731,262.547754 451.815089,261.134192 451.815089,258.687765 C451.815089,256.241338 452.811065,252.314133 452.313077,250.853635 C451.815089,249.393138 451.757696,244.838971 450.629541,245.253855 C449.501386,245.668739 446.513746,247.02117 447.308846,248.397647 C448.103946,249.774125 448.899046,258.329956 448.103946,260.951087 C447.308846,263.572217 446.578386,273.515825 446.943616,275.795371 C447.308846,278.074918 447.728861,289.068774 446.578386,288.047498 C445.427912,287.026222 444.369324,284.917323 444.225261,283.543453 C444.081198,282.169583 441.99446,258.721083 441.196461,256.997517 C440.398462,255.27395 439.45814,252.917917 439.45814,249.684021 C439.45814,246.450124 439.633508,235.183348 438.718694,235.183348 Z" id="Flower-Copy" fill="#7F87AA"></path>
                        <g id="Guy-#2" stroke-width="1" fill="none" transform="translate(325.000000, 211.000000)">
                            <g id="Path-24" transform="translate(30.443293, 23.371702)">
                                <mask id="mask-14" fill="white">
                                    <use xlink:href="#path-13"></use>
                                </mask>
                                <use id="Mask" fill="#F4BBBC" xlink:href="#path-13"></use>
                                <path d="M23.2346038,87.4380587 C35.0095558,89.7844126 43.4866965,90.3052737 48.6660257,89.0006421 C53.845355,87.6960105 62.3224956,82.9045015 74.0974476,74.6261151 C64.7093676,92.5396041 54.1004009,101.162336 42.2705476,100.494311 C30.4406944,99.8262859 24.0953798,95.4742018 23.2346038,87.4380587 Z" fill="#D59FA0" mask="url(#mask-14)"></path>
                            </g>
                            <path d="M53.6778964,72.6645079 L49.6484162,74.4185112" id="Path-15" stroke="#D59FA0" stroke-width="1.92" transform="translate(51.663156, 73.541510) scale(1, -1) translate(-51.663156, -73.541510) "></path>
                            <path d="M55.9824236,72.702652 L60.0018896,74.0683358" id="Path-25" stroke="#D59FA0" stroke-width="1.92" transform="translate(57.992157, 73.385494) scale(1, -1) translate(-57.992157, -73.385494) "></path>
                            <g id="Group-7" transform="translate(0.000000, 111.095625)">
                                <g id="Path-9">
                                    <mask id="mask-16" fill="white">
                                        <use xlink:href="#path-15"></use>
                                    </mask>
                                    <g id="Mask">
                                        <use fill="#E9E9E9" fill-rule="evenodd" xlink:href="#path-15"></use>
                                        <use fill="black" fill-opacity="1" filter="url(#filter-17)" xlink:href="#path-15"></use>
                                    </g>
                                    <path d="M46.9717973,29.3884647 C26.053717,77.0273174 16.7116819,111.592958 18.9456922,133.085386 C21.1797024,154.577813 14.3095158,153.594821 -1.66486756,130.136409 L10.4511122,46.3744696 L50.0261408,15.7153686 L46.9717973,29.3884647 Z" fill="#D1D1D1" mask="url(#mask-16)"></path>
                                </g>
                            </g>
                            <ellipse id="Oval-5" fill="#FFFFFF" cx="69.7508926" cy="59.069576" rx="1.4503225" ry="1.44072137"></ellipse>
                            <ellipse id="Oval-5-Copy" fill="#FFFFFF" cx="44.2896753" cy="61.6308584" rx="1.4503225" ry="1.44072137"></ellipse>
                            <path d="M66.5234981,47.7319873 C62.0172588,48.9919932 59.7571099,49.7391381 59.7430515,49.9734221 C59.7219639,50.3248481 58.9769769,52.9005127 61.0882508,53.0065033 C63.1995247,53.1124938 69.68223,51.531077 70.599068,50.7522496 C71.515906,49.9734221 74.1927707,48.1221827 76.2835894,48.5305121 C78.3744081,48.9388416 83.1638086,48.5377032 80.9124724,48.1221827 C78.6611363,47.7066621 73.037045,45.477421 71.3500379,45.8182166 C70.2253665,46.0454137 68.6165199,46.6833373 66.5234981,47.7319873 Z" id="Path-3" fill="#FFFFFF"></path>
                            <path d="M37.3583672,51.5053355 C38.2291508,51.3631409 38.7138515,51.5304594 39.3953873,51.812112 C40.0769232,52.0937646 47.5614379,54.9353483 47.787596,54.3368696 C48.0137541,53.7383909 48.5017444,52.4165411 47.7145838,51.812112 C46.9274232,51.2076829 40.1598522,48.2818678 39.893827,48.2818678 C39.6278017,48.2818678 37.8957423,47.4119184 36.9335388,48.868049 C35.9713353,50.3241797 34.5057005,52.2679131 35.3635438,52.4704914 C36.2213871,52.6730697 36.4875837,51.64753 37.3583672,51.5053355 Z" id="Path-7" fill="#FFFFFF"></path>
                            <path d="M35.3352493,20.9004648 C38.2694275,13.5834679 40.6423898,8.9644885 42.4541364,7.04352668 C45.1717562,4.16208395 52.8752257,-9.09950312e-15 68.5775854,0 C84.279945,9.09950312e-15 103.860953,4.417837 108.664668,17.7051149 C111.867145,26.5633002 113.459462,40.4048139 113.44162,59.2296561 L103.232558,48.4911544 L85.5586409,37.5350437 L67.0153608,30.4012828 L42.4541364,27.35182 L35.3352493,20.9004648 Z" id="Path-21" fill="#5E667B"></path>
                            <path d="M113.563996,59.2309068 C98.0127146,39.6990439 80.7704865,28.0496694 61.8373122,24.2827833 C33.4375506,18.6324542 9.90721378,18.9957611 9.0497444,23.6124477 C8.19227501,28.2291343 7.43432215,34.7067526 17.7489904,38.7975508 C24.6254358,41.5247497 28.8568699,43.4263268 30.4432926,44.5022822 C30.3623441,37.1277564 33.7805384,33.1791127 40.6978754,32.656351 C51.0738808,31.8722083 61.1450778,28.8075489 82.5117127,38.7975508 C96.756136,45.4575522 107.106897,52.2686708 113.563996,59.2309068 Z" id="Path-20" fill="#4C5365"></path>
                            <path d="M83.0768914,151.9886 C76.3256239,218.770371 76.3256239,255.029359 83.0768914,260.765565" id="Path-19" stroke="#D1D1D1" stroke-width="1.28"></path>
                            <path d="M89.9573009,42.1729909 C91.6038805,47.3491508 92.6176138,50.8775842 92.9985007,52.758291 C94.4076238,59.7161243 93.1546632,59.2788474 92.9985007,59.5235533 C92.6692825,60.0394366 97.9924775,50.3008105 103.350096,50.9770866 C106.921842,51.4279373 102.457577,48.4932388 89.9573009,42.1729909 Z" id="Path-22" fill="#E9E9E9"></path>
                            <path d="M73.8673289,84.586571 C75.4220009,85.1985304 73.4686369,85.9947761 73.8673289,86.3968524 C74.2660208,86.7989288 74.5373442,89.0753811 73.8673289,88.9940904 C73.1973136,88.9127997 68.9910194,89.1566718 68.1238487,89.0753811 C67.256678,88.9940904 63.8149086,88.3956658 62.9765289,88.3956658 C62.1381491,88.3956658 57.5995073,88.1918137 57.00366,88.0023438 C56.4078127,87.8128739 53.4711365,87.6090219 53.0711927,88.0023438 C52.671249,88.3956658 52.2209211,89.592515 51.4908203,88.9940904 C50.7607196,88.3956658 49.1646999,89.0753811 48.5726079,89.0753811 C48.1778799,89.0753811 46.1471796,90.1497732 42.480507,92.2985574 C41.3906238,92.8254879 40.7205042,92.6222612 40.4701481,91.6888772 C40.0946141,90.2888011 39.6201894,88.0073463 40.8456822,86.780482 C41.6626773,85.9625725 45.9981135,83.7361452 53.8519906,80.1012002 C54.8815797,79.5928207 56.2220276,79.5928207 57.8733342,80.1012002 C60.3502942,80.8637695 72.3126569,83.9746117 73.8673289,84.586571 Z" id="Path-23" fill="#FFFFFF"></path>
                            <g id="Ear-Gray-Copy" transform="translate(103.384183, 64.666984) scale(-1, 1) rotate(-349.000000) translate(-103.384183, -64.666984) translate(93.884183, 50.666984)">
                                <path d="M1.94016902,14.5382969 C0.725220244,13.0090972 0,11.0771533 0,8.97671684 C0,4.01901303 4.0402849,0 9.02422891,0 C13.9133632,0 17.8943994,3.86755978 18.0440929,8.69482543 L18.0484578,8.69324157 L18.0484578,22.6780215 L18.0475047,22.6781745 C17.9968405,25.1916157 15.9327307,27.2136258 13.3938555,27.2136258 C11.3683619,27.2136258 9.64504293,25.9266736 9.00519719,24.1299543 L8.98536016,24.1331392 L1.89983766,14.5529315 L1.94016902,14.5382969 Z" id="Combined-Shape" fill="#F4BBBC"></path>
                                <path d="M15.1471307,9.04071714 L15.1478128,9.04071714 L15.1478128,15.3295802 L15.1464187,15.3295802 C15.1473459,15.361227 15.1478128,15.3929911 15.1478128,15.4248661 C15.1478128,17.1614876 13.7619262,18.5692976 12.0523484,18.5692976 C10.3427706,18.5692976 8.95688391,17.1614876 8.95688391,15.4248661 C8.95688391,15.3927501 8.95735789,15.3607466 8.95829913,15.3288624 C8.92661632,15.3293404 8.89487672,15.3295802 8.86308196,15.3295802 C5.39212096,15.3295802 2.57835112,12.4712994 2.57835112,8.94543134 C2.57835112,5.41956325 5.39212096,2.56128243 8.86308196,2.56128243 C12.334043,2.56128243 15.1478128,5.41956325 15.1478128,8.94543134 C15.1478128,8.97724817 15.1475837,9.00901064 15.147127,9.04071714 Z" id="Combined-Shape" fill="#D59FA0"></path>
                                <path d="M12.6361432,15.0459467 C11.1669009,14.996489 9.99111057,13.7977316 9.99111057,12.3261717 C9.99111057,10.8546118 11.1669009,9.6558544 12.6361432,9.60639671 L12.6361432,9.60480911 L15.4701067,9.60480911 L15.4701067,15.0475343 L12.6361432,15.0475343 L12.6361432,15.0459467 Z" id="Combined-Shape" fill="#BE8C8D"></path>
                                <path d="M15.453038,9.92496941 L15.4701067,9.92496941 L15.4701067,15.0475343 L15.453038,15.0475343 C14.0384808,15.0475343 12.8917556,13.9008091 12.8917556,12.4862518 L12.8917556,12.4862518 C12.8917556,11.0716946 14.0384808,9.92496941 15.453038,9.92496941 Z" id="Rectangle-2" fill="#F4BBBC"></path>
                            </g>
                        </g>
                    </g>
                </g>
            </g>
        </g>
    </g>
</svg>