<?xml version="1.0" encoding="UTF-8" standalone="no"?>
<svg width="1405px" height="935px" viewBox="0 0 1405 935" version="1.1" xmlns="http://www.w3.org/2000/svg" xmlns:xlink="http://www.w3.org/1999/xlink">
    <!-- Generator: Sketch 49.1 (51147) - http://www.bohemiancoding.com/sketch -->
    <title>Artboard</title>
    <desc>Created with Sketch.</desc>
    <defs>
        <rect id="path-1" x="0" y="0" width="1405" height="935"></rect>
    </defs>
    <g id="Artboard" stroke="none" stroke-width="1" fill="none" fill-rule="evenodd">
        <g id="BG">
            <mask id="mask-2" fill="white">
                <use xlink:href="#path-1"></use>
            </mask>
            <use id="Mask" fill="#1B244D" xlink:href="#path-1"></use>
            <g mask="url(#mask-2)">
                <g transform="translate(-348.000000, -336.000000)">
                    <path d="M992.433376,370.067797 C1028.43338,413.40113 1034.76671,454.40113 1011.43338,493.067797 C976.433376,551.067797 916.433376,596.067797 908.433376,640.067797 C900.433376,684.067797 898.433376,713.067797 860.433376,684.067797 C822.433376,655.067797 656.433376,500.067797 666.433376,378.067797 C673.100043,296.734463 781.76671,294.067797 992.433376,370.067797 Z" id="Path-29" fill="#131A3A"></path>
                    <path d="M680.621766,531 C680.621766,531 925.762798,770.2102 803.192282,831.495458 C680.621766,892.780716 443.38851,880.919053 562.005138,1007.44346 C680.621766,1133.96786 749.814799,1207.11478 607.474846,1300.03114 C465.134892,1392.9475 318.84105,1264.44615 429.549903,1434.46332 C540.258756,1604.48048 459.20406,1653.90408 397.918803,1661.81185 C336.633545,1669.71963 97.4233447,1699.37379 188.36276,1780.42848 C279.302174,1861.48318 310.933275,1932.65316 267.440512,1989.98453 C223.947748,2047.3159 210.109141,2078.947 247.671074,2156.04781 C285.233006,2233.14861 154.754715,2316.18025 121.14667,2201.51751 C87.5386257,2086.85477 53.930581,1995.91536 87.5386257,1932.65316 C121.14667,1869.39095 123.123614,1823.92125 53.930581,1796.24403 C-15.262452,1768.56682 -27.1241148,1590.64188 75.6769629,1557.03383 C178.478041,1523.42579 99.4002885,1442.79553 87.5386257,1418.64777 C75.6769629,1394.5 69.7461315,1240.72282 188.36276,1195.25312 C306.979388,1149.78341 297.094669,1064.77483 247.671074,1007.44346 C198.247479,950.112086 174.524153,788.002694 279.302174,750.440762 C384.080196,712.87883 605.497902,695.086336 577.820689,625.893302 C550.143475,556.700269 680.621766,531 680.621766,531 Z" id="Path-28" fill="#202A54"></path>
                    <path d="M1636.43338,1015.0678 C1672.43338,1058.40113 1678.76671,1099.40113 1655.43338,1138.0678 C1620.43338,1196.0678 1560.43338,1241.0678 1552.43338,1285.0678 C1544.43338,1329.0678 1542.43338,1358.0678 1504.43338,1329.0678 C1466.43338,1300.0678 1300.43338,1145.0678 1310.43338,1023.0678 C1317.10004,941.734463 1425.76671,939.067797 1636.43338,1015.0678 Z" id="Path-29-Copy" fill="#252E57" transform="translate(1489.598711, 1150.365163) scale(-1, -1) translate(-1489.598711, -1150.365163) "></path>
                    <path d="M1018.16641,532.299829 C998.042417,540.349427 983.166412,552.299829 970.166412,602.299829 C957.166412,652.299829 936.166412,654.299829 901.166412,660.299829 C866.166412,666.299829 811.166412,703.299829 808.166412,756.299829 C805.166412,809.299829 824.166412,868.299829 808.166412,893.299829 C792.166412,918.299829 804.166412,957.299829 832.166412,927.299829 C860.166412,897.299829 873.166412,828.299829 931.166412,809.299829 C989.166412,790.299829 1079.16641,742.299829 1069.16641,701.299829 C1059.16641,660.299829 1026.16641,601.299829 1030.16641,578.299829 C1034.16641,555.299829 1038.29041,524.250231 1018.16641,532.299829 Z" id="Path-26" fill="#222D5C"></path>
                    <path d="M1753.51327,2.91197901 C1708.42991,20.9453212 1675.10352,47.7175511 1645.97989,159.731481 C1616.85627,271.745412 1569.81042,276.225969 1491.40067,289.667641 C1412.99092,303.109312 1289.7756,385.999621 1283.05476,504.734387 C1276.33392,623.469153 1318.89922,755.645591 1283.05476,811.652556 C1247.2103,867.659521 1274.09365,955.030387 1336.82145,887.822029 C1399.54925,820.61367 1428.67287,666.034447 1558.60903,623.469153 C1688.54519,580.903859 1890.17026,473.370486 1867.76748,381.519064 C1845.36469,289.667641 1771.4355,157.491203 1780.39661,105.964795 C1789.35772,54.438387 1798.59662,-15.1213632 1753.51327,2.91197901 Z" id="Path-26-Copy" fill="#222D5C"></path>
                    <path d="M1120.51327,605.911979 C1075.42991,623.945321 1042.10352,650.717551 1012.97989,762.731481 C983.856272,874.745412 936.810421,879.225969 858.40067,892.667641 C779.990919,906.109312 656.775596,988.999621 650.05476,1107.73439 C643.333924,1226.46915 685.899217,1358.64559 650.05476,1414.65256 C614.210302,1470.65952 641.093645,1558.03039 703.821446,1490.82203 C766.549247,1423.61367 795.672869,1269.03445 925.609028,1226.46915 C1055.54519,1183.90386 1257.17026,1076.37049 1234.76748,984.519064 C1212.36469,892.667641 1138.4355,760.491203 1147.39661,708.964795 C1156.35772,657.438387 1165.59662,587.878637 1120.51327,605.911979 Z" id="Path-26-Copy-2" fill="#182045"></path>
                    <path d="M1383.2532,136.44924 C1262.93968,200.41988 1197.23486,206.50756 1174.45711,410.010298 C1151.67935,613.513037 1222.90681,661.886639 1237.09593,591.828319 C1251.28506,521.769999 1221.91076,431.695016 1295.93847,448.375569 C1369.96617,465.056121 1331.0072,545.551184 1305.4292,615.181092 C1279.8512,684.811001 1316.91203,813.251254 1350.08261,813.251254 C1383.2532,813.251254 1352.99772,671.445177 1369.96617,640.201921 C1386.93462,608.958664 1449.68832,598.50054 1449.68832,661.886639 C1449.68832,725.272738 1502.83641,865.389377 1544.59563,848.708825 C1586.35485,832.028273 1535.1049,791.994947 1527.51231,703.58802 C1519.91973,615.181092 1538.90119,513.429723 1593.94743,420.01863 C1648.99368,326.607537 1667.97514,193.163118 1626.21592,169.810345 C1584.4567,146.457571 1503.56671,72.4785998 1383.2532,136.44924 Z" id="Path-27" fill="#181E39"></path>
                    <path d="M535.253197,829.44924 C414.939683,893.41988 349.234862,899.50756 326.457106,1103.0103 C303.679351,1306.51304 374.90681,1354.88664 389.095933,1284.82832 C403.285056,1214.77 373.910763,1124.69502 447.938468,1141.37557 C521.966173,1158.05612 483.0072,1238.55118 457.429199,1308.18109 C431.851199,1377.811 468.912025,1506.25125 502.082611,1506.25125 C535.253197,1506.25125 504.997723,1364.44518 521.966173,1333.20192 C538.934622,1301.95866 601.688316,1291.50054 601.688316,1354.88664 C601.688316,1418.27274 654.836412,1558.38938 696.59563,1541.70883 C738.354848,1525.02827 687.104899,1484.99495 679.512314,1396.58802 C671.919729,1308.18109 690.901191,1206.42972 745.947433,1113.01863 C800.993675,1019.60754 819.975138,886.163118 778.21592,862.810345 C736.456702,839.457571 655.566711,765.4786 535.253197,829.44924 Z" id="Path-27-Copy" fill="#181E39" transform="translate(561.436442, 1173.538568) scale(1, -1) translate(-561.436442, -1173.538568) "></path>
                    <path d="M803.730656,1031.91909 C822.435352,1048.28569 839.556349,1039.91909 841.556349,1063.91909 C843.556349,1087.91909 854.556349,1109.91909 827.556349,1110.91909 C800.556349,1111.91909 792.556349,1095.91909 788.556349,1079.91909 C784.556349,1063.91909 777.556349,1044.91909 766.556349,1035.91909 C755.556349,1026.91909 766.556349,1001.91909 777.556349,1007.91909 C788.556349,1013.91909 785.025961,1015.55248 803.730656,1031.91909 Z" id="Path-31" fill="#222D5C"></path>
                    <path d="M1567.73066,468.919085 C1586.43535,485.285694 1603.55635,476.919085 1605.55635,500.919085 C1607.55635,524.919085 1618.55635,546.919085 1591.55635,547.919085 C1564.55635,548.919085 1556.55635,532.919085 1552.55635,516.919085 C1548.55635,500.919085 1541.55635,481.919085 1530.55635,472.919085 C1519.55635,463.919085 1530.55635,438.919085 1541.55635,444.919085 C1552.55635,450.919085 1549.02596,452.552476 1567.73066,468.919085 Z" id="Path-31-Copy" fill="#222D5C"></path>
                </g>
            </g>
            <path d="M901.820033,934.775632 C901.820033,934.775632 922.417689,881.476804 923.275111,880.164304 C924.132533,878.851804 843.439173,858.709226 835.907923,830.461179 C830.88709,811.629148 835.775762,810.544512 850.573939,827.207273 C878.383835,851.13696 896.473678,862.131752 904.84347,860.191648 C917.398158,857.281491 878.650111,827.207273 874.712611,827.207273 C870.775111,827.207273 850.573939,773.908444 850.573939,763.865476 C850.573939,753.822507 859.931361,775.562741 862.900111,781.783444 C865.868861,788.004148 878.423548,811.285398 885.042689,814.310788 C891.66183,817.336179 906.956751,838.356183 909.466517,843.185788 C911.976283,848.015393 911.69308,840.390866 909.466517,835.426023 C907.239955,830.461179 896.400111,809.801023 892.118861,800.672116 C887.837611,791.54321 878.640947,762.209226 878.640947,753.707273 C878.640947,745.205319 877.851283,724.777585 881.446986,733.279538 C885.042689,741.781491 908.095423,793.310788 912.261439,803.810788 C916.427455,814.310788 928.695033,839.646726 927.726283,843.185788 C926.757533,846.724851 926.241908,812.769773 923.275111,803.810788 C920.308314,794.851804 919.794642,740.756101 920.308314,733.279538 C920.821986,725.802976 923.046595,705.146726 925.386439,702.121335 C927.726283,699.095944 927.726283,711.650632 927.726283,721.295163 C927.726283,730.939694 937.198939,771.224851 937.370814,781.783444 C937.542689,792.342038 937.714564,841.131101 937.542689,843.185788 C937.370814,845.240476 949.41183,797.019773 949.41183,785.150632 C949.41183,773.281491 958.314173,749.140866 964.363001,725.631101 C970.41183,702.121335 980.739955,685.287351 980.739955,690.252194 C980.739955,695.217038 979.200892,726.090085 976.917689,739.898679 C974.634486,753.707273 961.679408,823.953366 957.685267,827.207273 C953.691126,830.461179 973.095423,784.578366 976.917689,771.797116 C980.739955,759.015866 1013.26925,702.232663 1017.37667,696.242429 C1021.4841,690.252194 1031.87277,673.474851 1027.59152,690.252194 C1023.31027,707.029538 1013.38058,747.371335 1009.15792,753.707273 C1004.93527,760.04321 996.946986,781.726804 992.210658,785.150632 C987.47433,788.57446 971.040736,817.736569 964.363001,830.461179 C957.685267,843.185788 987.017298,800.560788 992.210658,792.85571 C997.404017,785.150632 1021.20089,758.04321 1025.53683,753.707273 C1029.87277,749.371335 1056.5798,725.631101 1058.97628,725.631101 C1061.37277,725.631101 1049.3337,759.984616 1043.68331,763.865476 C1038.03292,767.746335 971.095423,846.269773 961.566126,853.23071 C952.03683,860.191648 1012.24191,816.935788 1017.37667,814.310788 C1022.51144,811.685788 1080.1462,781.957273 1083.91378,778.189694 C1087.68136,774.422116 1077.35128,799.361569 1063.65597,806.836179 C1049.96066,814.310788 998.03097,843.183835 992.210658,848.207273 C986.390345,853.23071 968.128626,855.113523 967.84347,860.191648 C967.558314,865.269773 976.917689,870.347898 976.917689,865.269773 C976.917689,860.191648 1009.67355,853.23071 1012.41183,853.23071 C1015.15011,853.23071 1060.00363,835.426023 1063.65597,835.426023 C1067.30831,835.426023 1092.70285,835.426023 1094.01535,835.426023 C1095.32785,835.426023 1068.62081,849.379389 1058.97628,853.23071 C1049.33175,857.082031 987.931361,873.492429 984.335658,874.859616 C980.739955,876.226804 1051.90206,885.468991 1055.43917,880.164304 C1058.97628,874.859616 1051.90206,893.177976 1025.53683,893.404538 C999.171595,893.631101 977.773158,892.492429 972.808314,890.551023 C967.84347,888.609616 960.212811,891.580319 964.02814,892.492429 C967.84347,893.404538 1043.22433,926.73071 1049.33175,924.961179 C1055.43917,923.191648 1048.93136,937.058835 1038.26144,931.010007 C1027.59152,924.961179 998.544642,919.427976 989.642298,917.54321 C980.739955,915.658444 936.173548,891.465085 934.689173,888.211179 C933.69959,886.041908 927.57459,901.563392 916.314173,934.775632 C906.651413,934.775632 901.820033,934.775632 901.820033,934.775632 Z" id="Path-14" fill="#7F87AA" mask="url(#mask-2)" transform="translate(964.031026, 808.887816) scale(-1, 1) translate(-964.031026, -808.887816) "></path>
            <path d="M498.571224,-148 C496.284797,-148 489.087915,-146.995885 488.262019,-142.9106 C487.436124,-138.825315 488.778004,-118.145327 491.330873,-109.699458 C493.883742,-101.25359 503.637441,-53.7348955 502.769526,-48.8664588 C501.901611,-43.9980222 508.103797,-31.7841869 507.045346,-29.4137219 C505.986896,-27.0432569 499.465846,-45.7338517 497.593141,-53.3328148 C495.720435,-60.9317779 486.978259,-93.3807775 485.602491,-97.7623704 C484.226723,-102.143963 478.32157,-129.668742 476.585741,-133.711283 C474.849911,-137.753824 469.452612,-136.187521 467.526247,-130.832241 C465.599881,-125.47696 496.968697,-35.9622038 500.419346,-27.9604356 C503.869995,-19.9586673 503.245551,-11.8518509 500.419346,-15.8103536 C497.593141,-19.7688562 443.712926,-114.956935 442.654476,-117.264371 C441.948842,-118.802662 438.301137,-118.033517 431.711361,-114.956935 C470.3681,-56.0140773 489.96887,-25.6534824 490.513671,-23.8751507 C491.330873,-21.2076531 489.159637,-18.5401556 487.381064,-21.2076531 C485.602491,-23.8751507 428.853327,-79.9259255 427.287024,-83.5663859 C425.72072,-87.2068463 418.67163,-92.2237993 415.602776,-90.699515 C412.533922,-89.1752306 404.976978,-87.4821448 408.490656,-83.5663859 C412.004335,-79.650627 494.766935,-2.50329343 497.593141,-1.2543076 C500.419346,-0.00532176757 496.126863,3.08526614 492.194441,2.23836101 C488.262019,1.39145589 414.954375,-30.1903534 411.722516,-36.1592596 C408.490656,-42.1281658 387.464371,-45.2180292 387.231816,-43.8212516 C387.07678,-42.8900665 386.999262,-39.8702351 386.999262,-34.7617575 C458.581702,-4.85951051 495.772356,9.41423378 498.571224,8.05947536 C502.769526,6.02733775 488.551807,12.0382632 485.602491,11.741955 C482.653175,11.4456469 414.954375,31.1744068 411.722516,29.8616677 C408.490656,28.5489285 400.355586,35.0684317 397.222979,34.0737347 C394.090371,33.0790378 385.135925,33.0573037 386.067594,36.0631286 C386.999262,39.0689536 387.169512,45.4189309 391.1483,45.6942294 C395.127088,45.9695279 437.830956,35.636416 441.768449,31.8894585 C445.705942,28.142501 498.069166,13.4734377 500.419346,14.8071865 C502.769526,16.1409353 499.549307,19.3583054 498.571224,20.3109831 C497.593141,21.2636608 455.11608,49.5005934 452.766625,52.8447457 C450.417169,56.188898 436.21394,66.2648231 433.313888,66.6458942 C430.413835,67.0269653 411.978254,78.7104888 412.633899,82.774764 C413.289544,86.8390392 413.322145,93.3592669 415.602776,92.1523003 C417.883407,90.9453337 444.210686,70.6464161 446.583662,67.7463637 C448.956638,64.8463114 477.532623,39.6536007 479.712552,37.8583647 C481.892481,36.0631286 487.381064,32.0843408 487.381064,34.0737347 C487.381064,36.0631286 479.576352,43.8917486 476.585741,46.8548299 C473.59513,49.8179111 466.165692,60.6762636 462.969332,63.6610789 C459.772971,66.6458942 446.676732,79.0357757 442.654476,82.774764 C438.63222,86.5137523 426.905228,100.16566 422.819943,103.404764 C418.734659,106.643868 410.332983,117.163169 408.490656,117.798529 C406.64833,118.433889 401.589358,121.672269 405.040007,125.778563 C408.490656,129.884858 416.427947,128.022246 418.692639,123.852198 C420.957332,119.68215 485.193166,47.4170184 488.262019,44.708226 C491.330873,41.9994337 508.568182,17.4188999 509.838177,20.3109831 C511.108173,23.2030663 506.133963,35.6494564 503.91129,40.1788412 C501.688617,44.708226 490.921548,79.1632823 488.262019,82.774764 C485.602491,86.3862456 478.999674,116.125728 476.585741,120.952146 C474.171807,125.778563 466.554008,139.346432 467.526247,143.050646 C468.498485,146.75486 472.372225,148.385641 474.996978,145.718144 C477.621732,143.050646 489.696469,103.354051 490.513671,97.7531758 C491.330873,92.1523003 504.252515,53.3533234 507.045346,44.708226 C509.838177,36.0631286 511.954353,28.6633947 513.182329,28.6213755 C514.410306,28.5793562 515.638282,36.4326082 514.410306,40.1788412 C513.182329,43.9250743 512.378168,51.1349971 511.108173,58.8904456 C509.838177,66.6458942 508.697862,91.8683082 507.045346,96.1021093 C505.392831,100.33591 505.053055,106.919167 503.91129,110.750163 C502.769526,114.581159 501.540101,126.816004 501.519091,130.816526 C501.498082,134.817048 502.267468,139.430471 500.419346,143.050646 C498.571224,146.670822 507.850957,149.612893 507.045346,140.849707 C506.239736,132.086521 508.568182,104.335708 509.838177,97.7531758 C511.108173,91.1706438 517.669695,71.881637 516.992316,63.6610789 C516.314937,55.4405207 516.929287,34.6069445 520.040884,37.8583647 C523.152482,41.1097848 521.628922,43.8200261 523.152482,49.9794679 C524.676042,56.1389096 532.149672,97.4445517 533.673956,101.995671 C535.19824,106.54679 540.977335,134.128077 545.274165,131.735878 C549.570996,129.343679 552.618115,130.254337 550.417176,119.39526 C548.216237,108.536183 534.266572,47.3184905 531.303491,41.6908096 C528.34041,36.0631286 525.377329,27.3810833 528.34041,28.6213755 C531.303491,29.8616677 541.951023,47.11419 545.274165,49.9794679 C548.597308,52.8447457 574.58766,87.4396246 578.821461,92.1523003 C583.055262,96.8649759 602.634782,118.096286 604.793701,116.656765 C606.952621,115.217243 611.228442,111.597793 606.952621,109.099821 C602.676801,106.601849 541.038191,36.258011 540.847655,34.0737347 C540.65712,31.8894585 590.230411,66.3003221 594.400458,73.1371431 C598.570506,79.973964 622.446855,102.091301 625.45268,103.404764 C628.458505,104.718228 632.882842,104.992802 631.739629,99.9765735 C630.596416,94.960345 623.187988,89.238483 619.991628,86.0066235 C616.795267,82.774764 601.259738,66.9487225 597.830098,65.3049007 C594.400458,63.6610789 540.573081,20.1139273 536.720351,18.8859511 C532.867621,17.6579749 530.560185,13.2278425 534.518688,14.0175145 C538.47719,14.8071865 611.526923,24.2397825 614.25745,25.975612 C616.987976,27.7114415 632.864006,34.0737347 635.848097,34.0737347 C638.832188,34.0737347 665.3543,42.4993178 669.016495,40.1788412 C672.678689,37.8583647 676.742965,31.1019599 671.493457,29.8616677 C666.243949,28.6213755 645.712477,25.4257395 641.28814,23.3298485 C636.863803,21.2339576 629.40901,17.3587689 625.45268,18.12236 C621.496351,18.8859511 592.688536,17.0776747 588.222181,15.9424306 C583.755825,14.8071865 570.927639,10.2509963 564.42987,11.741955 C557.932101,13.2329138 543.326791,9.13024164 544.300478,8.05947536 C545.274165,6.98870909 555.962992,5.91794282 558.270428,6.98870909 C560.577864,8.05947536 588.094674,5.91794282 590.613655,6.98870909 C593.132636,8.05947536 617.915297,7.09810402 619.991628,8.05947536 C622.067958,9.02084671 648.80234,10.7994199 653.565004,10.2488229 C658.327668,9.69822591 664.995688,12.4381705 666.011394,10.2488229 C667.027101,8.05947536 668.424603,8.69048851 666.011394,5.46442476 C663.598186,2.23836101 662.77229,0.366331208 661.904375,-1.2543076 C661.036461,-2.8749464 660.677124,-2.81119307 658.623976,-2.8749464 C656.570829,-2.93869974 619.951057,-1.18258509 614.25745,-2.02876575 C608.563842,-2.8749464 579.353222,-2.42743908 576.368407,-1.18258509 C573.383591,0.0622688896 548.449516,-0.987702733 545.274165,2.23836101 C542.098815,5.46442476 535.622055,4.57550039 539.05097,1.27336732 C542.479886,-2.02876575 571.202937,-9.26766738 573.785672,-10.9187339 C576.368407,-12.5698004 618.681062,-24.9777937 621.665153,-25.5704099 C624.649243,-26.1630262 634.06735,-32.1420749 634.957723,-34.7617575 C635.848097,-37.3814401 641.987978,-42.9279804 635.848097,-41.9115493 C629.708216,-40.8951183 620.416891,-37.5567617 617.855166,-36.1592596 C615.293441,-34.7617575 600.350528,-27.2417616 596.434045,-27.0729601 C592.517562,-26.9041587 580.642778,-18.8813808 577.679697,-19.2624519 C574.716616,-19.643523 556.554159,-12.6502166 551.728466,-10.9187339 C546.902773,-9.18725124 541.38159,-3.59941614 539.05097,-4.80565826 C536.720351,-6.01190037 538.77205,-7.68397653 540.847655,-10.0124223 C542.923261,-12.340868 569.891647,-25.2139708 573.785672,-29.4137219 C577.679697,-33.6134729 585.870552,-36.090435 589.109656,-40.7473265 C592.34876,-45.4042179 609.533182,-59.2379676 616.051961,-62.5401007 C622.57074,-65.8422337 632.985717,-69.5891912 633.133509,-72.7217984 C633.2813,-75.8544055 634.822972,-81.3089382 633.2813,-83.5663859 C631.739629,-85.8238336 622.128089,-81.6537858 619.991628,-78.5211786 C617.855166,-75.3885715 589.04228,-55.3852375 586.015446,-51.5542416 C582.988611,-47.7232456 575.092615,-42.5657455 570.372695,-38.6637515 C565.652775,-34.7617575 562.896892,-32.1833697 556.657034,-27.0729601 C550.417176,-21.9625506 541.38159,-15.5285349 539.05097,-14.0252602 C536.720351,-12.5219854 535.127242,-12.8530681 537.987449,-18.3641094 C540.847655,-23.8751507 555.047262,-51.999066 555.852148,-57.2695833 C556.657034,-62.5401007 563.747419,-71.7901303 566.647472,-75.66387 C569.547524,-79.5376097 583.107424,-101.411525 585.138837,-105.555491 C587.17025,-109.699458 592.609569,-117.264371 587.17025,-117.264371 C581.730932,-117.264371 578.470818,-113.916597 574.851367,-108.815605 C571.231916,-103.714614 562.560013,-84.3596803 558.270428,-75.66387 C553.980843,-66.9680597 549.223975,-57.7991707 547.24907,-53.3328148 C545.274165,-48.8664588 544.271499,-43.8009664 541.661235,-39.980113 C539.05097,-36.1592596 534.266572,-29.984604 531.303491,-24.623528 C528.34041,-19.2624519 526.812503,-14.0252602 524.420304,-14.0252602 C522.028105,-14.0252602 522.324413,-18.9502054 522.028105,-24.623528 C521.731797,-30.2968505 523.615418,-62.0894805 525.520774,-70.8316568 C527.426129,-79.5738332 531.303491,-83.108521 531.303491,-89.2259435 C531.303491,-95.343366 533.792769,-105.163553 532.54813,-108.815605 C531.303491,-112.467657 531.160046,-123.855597 528.34041,-122.818156 C525.520774,-121.780716 518.053664,-118.398891 520.040884,-114.956935 C522.028105,-111.514979 524.015325,-90.1206636 522.028105,-83.5663859 C520.040884,-77.0121082 518.215221,-52.1475823 519.128053,-46.4474544 C520.040884,-40.7473265 521.090641,-13.2565978 518.215221,-15.8103536 C515.3398,-18.3641094 512.694037,-23.6375246 512.333975,-27.0729601 C511.973914,-30.5083956 506.758456,-89.1426295 504.763991,-93.4525 C502.769526,-97.7623704 500.419346,-103.653758 500.419346,-111.74029 C500.419346,-119.826821 500.85765,-148 498.571224,-148 Z" id="Flower-Copy-2" fill="#7F87AA" mask="url(#mask-2)"></path>
        </g>
    </g>
</svg>