<?xml version="1.0" encoding="UTF-8"?>
<svg width="1405px" height="935px" viewBox="0 0 1405 935" version="1.1" xmlns="http://www.w3.org/2000/svg" xmlns:xlink="http://www.w3.org/1999/xlink">
    <!-- Generator: Sketch 48.2 (47327) - http://www.bohemiancoding.com/sketch -->
    <title>Hero Image</title>
    <desc>Created with Sketch.</desc>
    <defs>
        <rect id="path-1" x="0" y="0" width="1405" height="935"></rect>
        <path d="M12.2172039,6.32226563 C-4.52539464,13.0989709 0.585892686,116.289063 3,135 C5.41410731,153.710938 16.7548025,191.634766 22.2175998,204.378906 C27.680397,217.123047 50.46875,268.5 64.8515625,271.320313 C79.234375,274.140625 91.3442803,289.34375 91.3442803,296.414062 C91.3442803,303.484375 80.5090449,348.158203 74.1996221,354.5 C69.9933402,358.727865 102.059692,379.105469 170.398677,415.632813 L287.028711,354.5 C263.165547,312.078656 248.229449,282.38139 242.220416,265.408203 C224.281504,214.73774 226.469633,182.573138 227.980999,179.662109 C231.387144,173.101563 202.986885,132.574219 199.472701,115.5625 C195.958518,98.5507813 197.137115,70.7128906 191.159663,63.8359375 C185.182212,56.9589844 203.114566,47.6445313 197.137115,36.8632812 C191.159663,26.0820313 169.277045,-4.20703125 156.982314,1.56640625 C144.687582,7.33984375 122.498529,23.2675781 91.3442803,22.8554688 C60.190032,22.4433594 28.9598025,-0.454439643 12.2172039,6.32226563 Z" id="path-3"></path>
        <path d="M185.289797,28.0105853 C180.100042,30.0639708 177.505164,32.7091531 177.505164,35.9461322 C177.505164,40.801601 182.700812,59.1590228 159.431378,71.6805072 C136.161944,84.2019916 79.3320313,114.078945 68.8984375,120.90625 C58.4648438,127.733555 39.8037791,156.864101 37.578195,171.287929 C35.3526109,185.711757 27.8213759,227.092617 26.9217135,241.725429 C26.0220511,256.358242 -17.1445313,466.742187 7.953125,500.46875 C24.6848958,522.953125 200.502453,522.953125 535.405797,500.46875 C540.448883,422.065651 540.448883,380.176601 535.405797,374.801601 C527.841169,366.739101 519.469201,309.21957 519.349377,297.914882 C519.229553,286.610195 511.311345,280.254726 511.179735,263.871913 C511.048125,247.489101 493.437921,158.09457 489.886415,152.758632 C486.33491,147.422695 467.724862,98.4148822 456.722659,92.5789447 C445.720456,86.7430072 402.289155,74.5418353 390.844978,61.3348041 C379.4008,48.1277728 359.195719,23.6043353 358.445345,18.0789447 C357.694972,12.5535541 337.774717,-5.55972715 339.9453,1.6863666 C342.115883,8.93246035 363.045802,33.2176166 339.9453,61.3348041 C316.844798,89.4519916 277.903952,113.926601 269.439661,114.078945 C260.97537,114.231288 240.772253,94.0379291 230.111843,96.270351 C219.451432,98.5027728 185.289797,85.6473041 185.289797,71.6805072 C185.289797,62.3693093 185.289797,47.8126687 185.289797,28.0105853 Z" id="path-5"></path>
        <filter x="-1.9%" y="-2.0%" width="103.9%" height="104.1%" filterUnits="objectBoundingBox" id="filter-7">
            <feOffset dx="0" dy="21" in="SourceAlpha" result="shadowOffsetInner1"></feOffset>
            <feComposite in="shadowOffsetInner1" in2="SourceAlpha" operator="arithmetic" k2="-1" k3="1" result="shadowInnerInner1"></feComposite>
            <feColorMatrix values="0 0 0 0 0.817814626   0 0 0 0 0.817814626   0 0 0 0 0.817814626  0 0 0 1 0" type="matrix" in="shadowInnerInner1"></feColorMatrix>
        </filter>
        <path d="M372.048186,278.600525 C416.256812,341.127412 423.889188,405.119945 394.945313,470.578125 C351.5295,568.765395 328.860688,577.031666 324.182242,593.882881 C319.503797,610.734097 294.74956,662.192614 281.527344,651.425781 C268.305128,640.658948 154.809308,664.174638 153.519531,659.492188 C152.229754,654.809737 192.761187,474.140272 182.226674,457.070398 C177.908717,450.073685 177.398591,366.675555 226.227292,323.306115 C246.6203,305.193134 295.227265,290.29127 372.048186,278.600525 Z" id="path-8"></path>
        <filter x="-7.5%" y="-5.1%" width="115.1%" height="110.2%" filterUnits="objectBoundingBox" id="filter-9">
            <feOffset dx="0" dy="-39" in="SourceAlpha" result="shadowOffsetInner1"></feOffset>
            <feComposite in="shadowOffsetInner1" in2="SourceAlpha" operator="arithmetic" k2="-1" k3="1" result="shadowInnerInner1"></feComposite>
            <feColorMatrix values="0 0 0 0 0.836176658   0 0 0 0 0.621787614   0 0 0 0 0.625548826  0 0 0 1 0" type="matrix" in="shadowInnerInner1"></feColorMatrix>
        </filter>
        <ellipse id="path-10" cx="107" cy="33" rx="27" ry="33"></ellipse>
        <filter x="-5.6%" y="-4.5%" width="111.1%" height="109.1%" filterUnits="objectBoundingBox" id="filter-11">
            <feOffset dx="0" dy="-6" in="SourceAlpha" result="shadowOffsetInner1"></feOffset>
            <feComposite in="shadowOffsetInner1" in2="SourceAlpha" operator="arithmetic" k2="-1" k3="1" result="shadowInnerInner1"></feComposite>
            <feColorMatrix values="0 0 0 0 0.243838094   0 0 0 0 0.265935451   0 0 0 0 0.322757228  0 0 0 1 0" type="matrix" in="shadowInnerInner1"></feColorMatrix>
        </filter>
        <ellipse id="path-12" cx="27" cy="33" rx="27" ry="33"></ellipse>
        <filter x="-5.6%" y="-4.5%" width="111.1%" height="109.1%" filterUnits="objectBoundingBox" id="filter-13">
            <feOffset dx="0" dy="-6" in="SourceAlpha" result="shadowOffsetInner1"></feOffset>
            <feComposite in="shadowOffsetInner1" in2="SourceAlpha" operator="arithmetic" k2="-1" k3="1" result="shadowInnerInner1"></feComposite>
            <feColorMatrix values="0 0 0 0 0.243838094   0 0 0 0 0.265935451   0 0 0 0 0.322757228  0 0 0 1 0" type="matrix" in="shadowInnerInner1"></feColorMatrix>
        </filter>
        <path d="M540.211861,209.50934 C500.852488,269.701722 453.315238,239.454587 396.73019,287.578312 C332.857784,341.899695 232.54718,324.131104 223.363347,347.96008 C197.383555,415.368947 246.88375,479.621466 282.112283,474.23805 C317.340817,468.854633 316.519686,444.745418 335.245484,449.191544 C353.971282,453.637669 369.64888,447.789612 374.215171,444.745418 C378.781462,441.701224 395.753515,456.677857 391.597454,465.457954 C387.441393,474.23805 408.037768,438.657031 407.921608,429.412294 C407.805448,420.167558 418.219795,461.131994 408.037768,474.23805 C397.85574,487.344105 385.222336,501.507618 385.570816,512.506771 C385.919296,523.505925 388.026198,536.968472 365.907726,547.382819 C343.789254,557.797167 333.955707,570.554743 315.466234,568.564 C296.976762,566.573257 241.852819,567.041903 232.608083,557.212361 C223.363347,547.382819 203.932577,528.076221 199.722778,492.495202 C195.512978,456.914183 210.253285,408.221194 199.722778,398.507812 C197.626654,396.57434 196.927856,380.220703 178.216797,377.423828 C124.422835,369.382862 12.3942512,330.502403 4.98649442,251.294907 C-1.17933341,185.366746 -1.17933341,103.730277 4.98649442,6.38550123 C337.695628,-3.63308657 527.117924,0.112073037 573.253381,17.6209801 C642.456567,43.8843406 579.571234,149.316958 540.211861,209.50934 Z" id="path-14"></path>
        <filter x="-1.6%" y="-1.7%" width="103.1%" height="103.3%" filterUnits="objectBoundingBox" id="filter-15">
            <feOffset dx="0" dy="-19" in="SourceAlpha" result="shadowOffsetInner1"></feOffset>
            <feComposite in="shadowOffsetInner1" in2="SourceAlpha" operator="arithmetic" k2="-1" k3="1" result="shadowInnerInner1"></feComposite>
            <feColorMatrix values="0 0 0 0 0.297956809   0 0 0 0 0.324502737   0 0 0 0 0.394185799  0 0 0 1 0" type="matrix" in="shadowInnerInner1"></feColorMatrix>
        </filter>
        <path d="M19,607.67154 C86.8697917,617.332998 126.282552,613.756175 137.238281,596.941071 C153.671875,571.718415 168.625,574.573884 168.625,583.019196 C168.625,591.464509 175.015625,673.183259 250.570312,649.784821 C326.125,626.386384 307.09375,632.728232 313.371094,621.832031 C319.648437,610.93583 464.875,698.827455 487.164062,746.45279 C509.453125,794.078125 490.8125,849.019531 487.164062,885.085938 C483.515625,921.152344 408.398438,1126.74576 377.46875,1144.43716 C356.848958,1156.23144 237.359375,1156.23144 19,1144.43716 L19,607.67154 Z" id="path-16"></path>
        <filter x="-10.3%" y="-8.6%" width="120.7%" height="117.2%" filterUnits="objectBoundingBox" id="filter-17">
            <feOffset dx="-40" dy="-99" in="SourceAlpha" result="shadowOffsetInner1"></feOffset>
            <feComposite in="shadowOffsetInner1" in2="SourceAlpha" operator="arithmetic" k2="-1" k3="1" result="shadowInnerInner1"></feComposite>
            <feColorMatrix values="0 0 0 0 0.450417922   0 0 0 0 0.48095538   0 0 0 0 0.61455676  0 0 0 1 0" type="matrix" in="shadowInnerInner1"></feColorMatrix>
        </filter>
    </defs>
    <g id="Destkop" stroke="none" stroke-width="1" fill="none" fill-rule="evenodd" transform="translate(-20.000000, -21.000000)">
        <g id="Hero-Image" transform="translate(20.000000, 21.000000)">
            <g id="BG">
                <mask id="mask-2" fill="white">
                    <use xlink:href="#path-1"></use>
                </mask>
                <use id="Mask" fill="#1B244D" xlink:href="#path-1"></use>
                <g mask="url(#mask-2)">
                    <g transform="translate(-348.000000, -336.000000)">
                        <path d="M992.433376,370.067797 C1028.43338,413.40113 1034.76671,454.40113 1011.43338,493.067797 C976.433376,551.067797 916.433376,596.067797 908.433376,640.067797 C900.433376,684.067797 898.433376,713.067797 860.433376,684.067797 C822.433376,655.067797 656.433376,500.067797 666.433376,378.067797 C673.100043,296.734463 781.76671,294.067797 992.433376,370.067797 Z" id="Path-29" fill="#131A3A"></path>
                        <path d="M680.621766,531 C680.621766,531 925.762798,770.2102 803.192282,831.495458 C680.621766,892.780716 443.38851,880.919053 562.005138,1007.44346 C680.621766,1133.96786 749.814799,1207.11478 607.474846,1300.03114 C465.134892,1392.9475 318.84105,1264.44615 429.549903,1434.46332 C540.258756,1604.48048 459.20406,1653.90408 397.918803,1661.81185 C336.633545,1669.71963 97.4233447,1699.37379 188.36276,1780.42848 C279.302174,1861.48318 310.933275,1932.65316 267.440512,1989.98453 C223.947748,2047.3159 210.109141,2078.947 247.671074,2156.04781 C285.233006,2233.14861 154.754715,2316.18025 121.14667,2201.51751 C87.5386257,2086.85477 53.930581,1995.91536 87.5386257,1932.65316 C121.14667,1869.39095 123.123614,1823.92125 53.930581,1796.24403 C-15.262452,1768.56682 -27.1241148,1590.64188 75.6769629,1557.03383 C178.478041,1523.42579 99.4002885,1442.79553 87.5386257,1418.64777 C75.6769629,1394.5 69.7461315,1240.72282 188.36276,1195.25312 C306.979388,1149.78341 297.094669,1064.77483 247.671074,1007.44346 C198.247479,950.112086 174.524153,788.002694 279.302174,750.440762 C384.080196,712.87883 605.497902,695.086336 577.820689,625.893302 C550.143475,556.700269 680.621766,531 680.621766,531 Z" id="Path-28" fill="#202A54"></path>
                        <path d="M1636.43338,1015.0678 C1672.43338,1058.40113 1678.76671,1099.40113 1655.43338,1138.0678 C1620.43338,1196.0678 1560.43338,1241.0678 1552.43338,1285.0678 C1544.43338,1329.0678 1542.43338,1358.0678 1504.43338,1329.0678 C1466.43338,1300.0678 1300.43338,1145.0678 1310.43338,1023.0678 C1317.10004,941.734463 1425.76671,939.067797 1636.43338,1015.0678 Z" id="Path-29-Copy" fill="#252E57" transform="translate(1489.598711, 1150.365163) scale(-1, -1) translate(-1489.598711, -1150.365163) "></path>
                        <path d="M1018.16641,532.299829 C998.042417,540.349427 983.166412,552.299829 970.166412,602.299829 C957.166412,652.299829 936.166412,654.299829 901.166412,660.299829 C866.166412,666.299829 811.166412,703.299829 808.166412,756.299829 C805.166412,809.299829 824.166412,868.299829 808.166412,893.299829 C792.166412,918.299829 804.166412,957.299829 832.166412,927.299829 C860.166412,897.299829 873.166412,828.299829 931.166412,809.299829 C989.166412,790.299829 1079.16641,742.299829 1069.16641,701.299829 C1059.16641,660.299829 1026.16641,601.299829 1030.16641,578.299829 C1034.16641,555.299829 1038.29041,524.250231 1018.16641,532.299829 Z" id="Path-26" fill="#222D5C"></path>
                        <path d="M1753.51327,2.91197901 C1708.42991,20.9453212 1675.10352,47.7175511 1645.97989,159.731481 C1616.85627,271.745412 1569.81042,276.225969 1491.40067,289.667641 C1412.99092,303.109312 1289.7756,385.999621 1283.05476,504.734387 C1276.33392,623.469153 1318.89922,755.645591 1283.05476,811.652556 C1247.2103,867.659521 1274.09365,955.030387 1336.82145,887.822029 C1399.54925,820.61367 1428.67287,666.034447 1558.60903,623.469153 C1688.54519,580.903859 1890.17026,473.370486 1867.76748,381.519064 C1845.36469,289.667641 1771.4355,157.491203 1780.39661,105.964795 C1789.35772,54.438387 1798.59662,-15.1213632 1753.51327,2.91197901 Z" id="Path-26-Copy" fill="#222D5C"></path>
                        <path d="M1120.51327,605.911979 C1075.42991,623.945321 1042.10352,650.717551 1012.97989,762.731481 C983.856272,874.745412 936.810421,879.225969 858.40067,892.667641 C779.990919,906.109312 656.775596,988.999621 650.05476,1107.73439 C643.333924,1226.46915 685.899217,1358.64559 650.05476,1414.65256 C614.210302,1470.65952 641.093645,1558.03039 703.821446,1490.82203 C766.549247,1423.61367 795.672869,1269.03445 925.609028,1226.46915 C1055.54519,1183.90386 1257.17026,1076.37049 1234.76748,984.519064 C1212.36469,892.667641 1138.4355,760.491203 1147.39661,708.964795 C1156.35772,657.438387 1165.59662,587.878637 1120.51327,605.911979 Z" id="Path-26-Copy-2" fill="#182045"></path>
                        <path d="M1383.2532,136.44924 C1262.93968,200.41988 1197.23486,206.50756 1174.45711,410.010298 C1151.67935,613.513037 1222.90681,661.886639 1237.09593,591.828319 C1251.28506,521.769999 1221.91076,431.695016 1295.93847,448.375569 C1369.96617,465.056121 1331.0072,545.551184 1305.4292,615.181092 C1279.8512,684.811001 1316.91203,813.251254 1350.08261,813.251254 C1383.2532,813.251254 1352.99772,671.445177 1369.96617,640.201921 C1386.93462,608.958664 1449.68832,598.50054 1449.68832,661.886639 C1449.68832,725.272738 1502.83641,865.389377 1544.59563,848.708825 C1586.35485,832.028273 1535.1049,791.994947 1527.51231,703.58802 C1519.91973,615.181092 1538.90119,513.429723 1593.94743,420.01863 C1648.99368,326.607537 1667.97514,193.163118 1626.21592,169.810345 C1584.4567,146.457571 1503.56671,72.4785998 1383.2532,136.44924 Z" id="Path-27" fill="#181E39"></path>
                        <path d="M535.253197,829.44924 C414.939683,893.41988 349.234862,899.50756 326.457106,1103.0103 C303.679351,1306.51304 374.90681,1354.88664 389.095933,1284.82832 C403.285056,1214.77 373.910763,1124.69502 447.938468,1141.37557 C521.966173,1158.05612 483.0072,1238.55118 457.429199,1308.18109 C431.851199,1377.811 468.912025,1506.25125 502.082611,1506.25125 C535.253197,1506.25125 504.997723,1364.44518 521.966173,1333.20192 C538.934622,1301.95866 601.688316,1291.50054 601.688316,1354.88664 C601.688316,1418.27274 654.836412,1558.38938 696.59563,1541.70883 C738.354848,1525.02827 687.104899,1484.99495 679.512314,1396.58802 C671.919729,1308.18109 690.901191,1206.42972 745.947433,1113.01863 C800.993675,1019.60754 819.975138,886.163118 778.21592,862.810345 C736.456702,839.457571 655.566711,765.4786 535.253197,829.44924 Z" id="Path-27-Copy" fill="#181E39" transform="translate(561.436442, 1173.538568) scale(1, -1) translate(-561.436442, -1173.538568) "></path>
                        <path d="M803.730656,1031.91909 C822.435352,1048.28569 839.556349,1039.91909 841.556349,1063.91909 C843.556349,1087.91909 854.556349,1109.91909 827.556349,1110.91909 C800.556349,1111.91909 792.556349,1095.91909 788.556349,1079.91909 C784.556349,1063.91909 777.556349,1044.91909 766.556349,1035.91909 C755.556349,1026.91909 766.556349,1001.91909 777.556349,1007.91909 C788.556349,1013.91909 785.025961,1015.55248 803.730656,1031.91909 Z" id="Path-31" fill="#222D5C"></path>
                        <path d="M1567.73066,468.919085 C1586.43535,485.285694 1603.55635,476.919085 1605.55635,500.919085 C1607.55635,524.919085 1618.55635,546.919085 1591.55635,547.919085 C1564.55635,548.919085 1556.55635,532.919085 1552.55635,516.919085 C1548.55635,500.919085 1541.55635,481.919085 1530.55635,472.919085 C1519.55635,463.919085 1530.55635,438.919085 1541.55635,444.919085 C1552.55635,450.919085 1549.02596,452.552476 1567.73066,468.919085 Z" id="Path-31-Copy" fill="#222D5C"></path>
                    </g>
                </g>
                <path d="M901.820033,934.775632 C901.820033,934.775632 922.417689,881.476804 923.275111,880.164304 C924.132533,878.851804 843.439173,858.709226 835.907923,830.461179 C830.88709,811.629148 835.775762,810.544512 850.573939,827.207273 C878.383835,851.13696 896.473678,862.131752 904.84347,860.191648 C917.398158,857.281491 878.650111,827.207273 874.712611,827.207273 C870.775111,827.207273 850.573939,773.908444 850.573939,763.865476 C850.573939,753.822507 859.931361,775.562741 862.900111,781.783444 C865.868861,788.004148 878.423548,811.285398 885.042689,814.310788 C891.66183,817.336179 906.956751,838.356183 909.466517,843.185788 C911.976283,848.015393 911.69308,840.390866 909.466517,835.426023 C907.239955,830.461179 896.400111,809.801023 892.118861,800.672116 C887.837611,791.54321 878.640947,762.209226 878.640947,753.707273 C878.640947,745.205319 877.851283,724.777585 881.446986,733.279538 C885.042689,741.781491 908.095423,793.310788 912.261439,803.810788 C916.427455,814.310788 928.695033,839.646726 927.726283,843.185788 C926.757533,846.724851 926.241908,812.769773 923.275111,803.810788 C920.308314,794.851804 919.794642,740.756101 920.308314,733.279538 C920.821986,725.802976 923.046595,705.146726 925.386439,702.121335 C927.726283,699.095944 927.726283,711.650632 927.726283,721.295163 C927.726283,730.939694 937.198939,771.224851 937.370814,781.783444 C937.542689,792.342038 937.714564,841.131101 937.542689,843.185788 C937.370814,845.240476 949.41183,797.019773 949.41183,785.150632 C949.41183,773.281491 958.314173,749.140866 964.363001,725.631101 C970.41183,702.121335 980.739955,685.287351 980.739955,690.252194 C980.739955,695.217038 979.200892,726.090085 976.917689,739.898679 C974.634486,753.707273 961.679408,823.953366 957.685267,827.207273 C953.691126,830.461179 973.095423,784.578366 976.917689,771.797116 C980.739955,759.015866 1013.26925,702.232663 1017.37667,696.242429 C1021.4841,690.252194 1031.87277,673.474851 1027.59152,690.252194 C1023.31027,707.029538 1013.38058,747.371335 1009.15792,753.707273 C1004.93527,760.04321 996.946986,781.726804 992.210658,785.150632 C987.47433,788.57446 971.040736,817.736569 964.363001,830.461179 C957.685267,843.185788 987.017298,800.560788 992.210658,792.85571 C997.404017,785.150632 1021.20089,758.04321 1025.53683,753.707273 C1029.87277,749.371335 1056.5798,725.631101 1058.97628,725.631101 C1061.37277,725.631101 1049.3337,759.984616 1043.68331,763.865476 C1038.03292,767.746335 971.095423,846.269773 961.566126,853.23071 C952.03683,860.191648 1012.24191,816.935788 1017.37667,814.310788 C1022.51144,811.685788 1080.1462,781.957273 1083.91378,778.189694 C1087.68136,774.422116 1077.35128,799.361569 1063.65597,806.836179 C1049.96066,814.310788 998.03097,843.183835 992.210658,848.207273 C986.390345,853.23071 968.128626,855.113523 967.84347,860.191648 C967.558314,865.269773 976.917689,870.347898 976.917689,865.269773 C976.917689,860.191648 1009.67355,853.23071 1012.41183,853.23071 C1015.15011,853.23071 1060.00363,835.426023 1063.65597,835.426023 C1067.30831,835.426023 1092.70285,835.426023 1094.01535,835.426023 C1095.32785,835.426023 1068.62081,849.379389 1058.97628,853.23071 C1049.33175,857.082031 987.931361,873.492429 984.335658,874.859616 C980.739955,876.226804 1051.90206,885.468991 1055.43917,880.164304 C1058.97628,874.859616 1051.90206,893.177976 1025.53683,893.404538 C999.171595,893.631101 977.773158,892.492429 972.808314,890.551023 C967.84347,888.609616 960.212811,891.580319 964.02814,892.492429 C967.84347,893.404538 1043.22433,926.73071 1049.33175,924.961179 C1055.43917,923.191648 1048.93136,937.058835 1038.26144,931.010007 C1027.59152,924.961179 998.544642,919.427976 989.642298,917.54321 C980.739955,915.658444 936.173548,891.465085 934.689173,888.211179 C933.69959,886.041908 927.57459,901.563392 916.314173,934.775632 C906.651413,934.775632 901.820033,934.775632 901.820033,934.775632 Z" id="Path-14" fill="#7F87AA" mask="url(#mask-2)" transform="translate(964.031026, 808.887816) scale(-1, 1) translate(-964.031026, -808.887816) "></path>
                <g id="Guy-#2" mask="url(#mask-2)">
                    <g transform="translate(989.000000, 117.000000)">
                        <g id="Path-24" stroke="none" stroke-width="1" fill="none" fill-rule="evenodd" transform="translate(95.000000, 73.000000)">
                            <mask id="mask-4" fill="white">
                                <use xlink:href="#path-3"></use>
                            </mask>
                            <use id="Mask" fill="#F4BBBC" xlink:href="#path-3"></use>
                            <path d="M72.5048828,273.107121 C109.24928,280.435805 135.702672,282.062682 151.86506,277.987749 C168.027447,273.912817 194.480839,258.946848 231.225236,233.089844 C201.929207,289.041468 168.823332,315.974013 131.907612,313.88748 C94.9918921,311.800947 75.1909824,298.207494 72.5048828,273.107121 Z" fill="#D59FA0" mask="url(#mask-4)"></path>
                        </g>
                        <path d="M167.504883,226.962891 L154.930664,232.441406" id="Path-15" stroke="#D59FA0" stroke-width="6" fill="none" transform="translate(161.217773, 229.702148) scale(1, -1) translate(-161.217773, -229.702148) "></path>
                        <path d="M174.696289,227.082031 L187.239258,231.347656" id="Path-25" stroke="#D59FA0" stroke-width="6" fill="none" transform="translate(180.967773, 229.214844) scale(1, -1) translate(-180.967773, -229.214844) "></path>
                        <g id="Group-7" stroke="none" stroke-width="1" fill="none" fill-rule="evenodd" transform="translate(0.000000, 347.000000)">
                            <g id="Path-9">
                                <mask id="mask-6" fill="white">
                                    <use xlink:href="#path-5"></use>
                                </mask>
                                <g id="Mask">
                                    <use fill="#E9E9E9" fill-rule="evenodd" xlink:href="#path-5"></use>
                                    <use fill="black" fill-opacity="1" filter="url(#filter-7)" xlink:href="#path-5"></use>
                                </g>
                                <path d="M146.578125,91.7929688 C81.3020833,240.589844 52.1497396,348.553385 59.1210937,415.683594 C66.0924479,482.813802 44.6536458,479.74349 -5.1953125,406.472656 L32.6132813,144.847656 L156.109375,49.0859375 L146.578125,91.7929688 Z" fill="#D1D1D1" mask="url(#mask-6)"></path>
                            </g>
                        </g>
                        <ellipse id="Oval-5" stroke="none" fill="#FFFFFF" fill-rule="evenodd" cx="217.661568" cy="184.5" rx="4.52581262" ry="4.5"></ellipse>
                        <ellipse id="Oval-5-Copy" stroke="none" fill="#FFFFFF" fill-rule="evenodd" cx="138.208413" cy="192.5" rx="4.52581262" ry="4.5"></ellipse>
                        <path d="M207.590302,149.087775 C193.52833,153.023322 186.475409,155.356981 186.431539,156.088752 C186.365734,157.186408 184.040961,165.23133 190.629309,165.562384 C197.217657,165.893439 217.447302,160.953986 220.308347,158.521369 C223.169391,156.088752 231.522697,150.306525 238.047214,151.581916 C244.571731,152.857306 259.517324,151.604377 252.491903,150.306525 C245.466483,149.008674 227.916191,142.045783 222.65179,143.110236 C219.14219,143.819871 214.121694,145.812384 207.590302,149.087775 Z" id="Path-3" stroke="none" fill="#FFFFFF" fill-rule="evenodd"></path>
                        <path d="M116.578878,160.873584 C119.296207,160.429449 120.808742,160.952057 122.935513,161.831781 C125.062284,162.711504 148.418131,171.587007 149.12387,169.717698 C149.829609,167.848388 151.35241,163.719676 148.896032,161.831781 C146.439653,159.943885 125.321069,150.805291 124.490922,150.805291 C123.660775,150.805291 118.255787,148.08806 115.253177,152.63619 C112.250567,157.18432 107.676971,163.255446 110.35392,163.888186 C113.030868,164.520926 113.861549,161.317719 116.578878,160.873584 Z" id="Path-7" stroke="none" fill="#FFFFFF" fill-rule="evenodd"></path>
                        <path d="M305.808594,559.75 C315.160156,553.320313 387.449219,567.425781 393.023438,571.921875 C396.739583,574.919271 396.739583,582.183594 393.023438,593.714844 L296.457031,586.429688 C296.457031,572.929688 299.574219,564.036458 305.808594,559.75 Z" id="Path-10" stroke="none" fill="#D1D1D1" fill-rule="evenodd"></path>
                        <path d="M110.265625,65.28125 C119.421892,42.4270833 126.826854,28 132.480511,22 C140.960996,13 165.000104,-2.84217094e-14 214.000197,0 C263.00029,2.84217094e-14 324.103922,13.7988281 339.094184,55.3007813 C349.087693,82.96875 354.056608,126.201823 354.000931,185 L322.14298,151.458984 L266.990532,117.238281 L209.125188,94.9564404 L132.480511,85.4316406 L110.265625,65.28125 Z" id="Path-21" stroke="none" fill="#5E667B" fill-rule="evenodd"></path>
                        <path d="M354.382813,185.003906 C305.854167,123.997396 252.048828,87.6113281 192.966797,75.8457031 C104.34375,58.1972656 30.9160156,59.3320313 28.2402344,73.7519531 C25.5644531,88.171875 23.1992188,108.404297 55.3867188,121.181641 C76.8450521,129.69987 90.0494792,135.639323 95,139 C94.7473958,115.966146 105.414062,103.632812 127,102 C159.378906,99.5507813 190.806641,89.9785156 257.482422,121.181641 C301.932943,141.983724 334.233073,163.257813 354.382813,185.003906 Z" id="Path-20" stroke="none" fill="#4C5365" fill-rule="evenodd"></path>
                        <path d="M259.246094,474.726562 C238.178385,683.315104 238.178385,796.567708 259.246094,814.484375" id="Path-19" stroke="#D1D1D1" stroke-width="4" fill="none"></path>
                        <circle id="Oval-6" stroke="none" fill="#D1D1D1" fill-rule="evenodd" cx="235" cy="524" r="8"></circle>
                        <circle id="Oval-6-Copy-3" stroke="none" fill="#D1D1D1" fill-rule="evenodd" cx="229" cy="584" r="8"></circle>
                        <circle id="Oval-6-Copy-4" stroke="none" fill="#D1D1D1" fill-rule="evenodd" cx="226" cy="644" r="8"></circle>
                        <circle id="Oval-6-Copy-5" stroke="none" fill="#D1D1D1" fill-rule="evenodd" cx="223" cy="701" r="8"></circle>
                        <path d="M280.716797,131.724609 C285.855041,147.89201 289.018452,158.912843 290.207031,164.787109 C294.604279,186.519452 290.694345,185.153646 290.207031,185.917969 C289.179688,187.529297 305.791016,157.111328 322.509766,159.223633 C333.655599,160.631836 319.724609,151.465495 280.716797,131.724609 Z" id="Path-22" stroke="none" fill="#E9E9E9" fill-rule="evenodd"></path>
                        <path d="M230.507138,264.200684 C235.358579,266.112099 229.262997,268.599121 230.507138,269.85498 C231.751279,271.11084 232.597958,278.221191 230.507138,277.967285 C228.416318,277.713379 215.290341,278.475098 212.584286,278.221191 C209.878232,277.967285 199.137997,276.098145 196.521786,276.098145 C193.905575,276.098145 179.742489,275.461426 177.883114,274.869629 C176.023739,274.277832 166.859677,273.641113 165.61163,274.869629 C164.363583,276.098145 162.95831,279.836426 160.679989,277.967285 C158.401669,276.098145 153.4212,278.221191 151.573544,278.221191 C150.341773,278.221191 144.004859,281.576986 132.562802,288.288574 C129.16176,289.934408 127.070614,289.299642 126.289364,286.384277 C125.117489,282.01123 123.637021,274.885254 127.461239,271.053223 C130.010719,268.498535 143.53969,261.544434 168.048154,250.190918 C171.261044,248.603027 175.443987,248.603027 180.596982,250.190918 C188.326474,252.572754 225.655697,262.289268 230.507138,264.200684 Z" id="Path-23" stroke="none" fill="#FFFFFF" fill-rule="evenodd"></path>
                        <g id="Ear-Gray-Copy" stroke="none" stroke-width="1" fill="none" fill-rule="evenodd" transform="translate(323.506258, 200.558899) scale(-1, 1) rotate(-349.000000) translate(-323.506258, -200.558899) translate(295.006258, 158.058899)">
                            <path d="M6.05440613,45.4094299 C2.2630904,40.6330738 0,34.5987718 0,28.0381944 C0,12.5531272 12.6079354,0 28.1606119,0 C43.4174293,0 55.8404757,12.0800728 56.3076027,27.1577249 L56.3212237,27.1527778 L56.3212237,70.8333333 L56.3182495,70.8338113 C56.160149,78.6843821 49.7189787,85 41.7962765,85 C35.4756101,85 30.0978968,80.9802881 28.1012223,75.3683514 L28.0393197,75.3782993 L5.92854986,45.4551403 L6.05440613,45.4094299 Z" id="Combined-Shape" fill="#F4BBBC"></path>
                            <path d="M47.2674584,28.2380952 L47.2695985,28.2380952 L47.2695985,47.8809524 L47.2652481,47.8809524 C47.2681415,47.9797988 47.2695985,48.0790121 47.2695985,48.1785714 C47.2695985,53.6027966 42.9448616,58 37.6100283,58 C32.2751949,58 27.950458,53.6027966 27.950458,48.1785714 C27.950458,48.0782594 27.9519371,47.9782985 27.9548743,47.8787103 C27.8560063,47.8802033 27.7569611,47.8809524 27.6577438,47.8809524 C16.8264155,47.8809524 8.0458891,38.9532971 8.0458891,27.9404762 C8.0458891,16.9276553 16.8264155,8 27.6577438,8 C38.489072,8 47.2695985,16.9276553 47.2695985,27.9404762 C47.2695985,28.039854 47.2688835,28.139062 47.2674584,28.2380952 Z" id="Combined-Shape" fill="#D59FA0"></path>
                            <path d="M39.4317927,46.9950412 C34.8469397,46.8405633 31.1778203,43.0963222 31.1778203,38.5 C31.1778203,33.9036778 34.8469397,30.1594367 39.4317927,30.0049588 L39.4317927,30 L48.2753346,30 L48.2753346,47 L39.4317927,47 L39.4317927,46.9950412 Z" id="Combined-Shape" fill="#BE8C8D"></path>
                            <path d="M48.2294455,31 L48.2753346,31 L48.2753346,47 L48.2294455,47 C43.8111675,47 40.2294455,43.418278 40.2294455,39 L40.2294455,39 C40.2294455,34.581722 43.8111675,31 48.2294455,31 Z" id="Rectangle-2" fill="#F4BBBC"></path>
                        </g>
                    </g>
                </g>
                <g id="Guy-#1" mask="url(#mask-2)">
                    <g transform="translate(-74.000000, -59.000000)">
                        <g id="Path-16" stroke="none" fill="none">
                            <use fill="#F4BBBC" fill-rule="evenodd" xlink:href="#path-8"></use>
                            <use fill="black" fill-opacity="1" filter="url(#filter-9)" xlink:href="#path-8"></use>
                        </g>
                        <g id="Glasses" stroke="none" stroke-width="1" fill="none" fill-rule="evenodd" transform="translate(289.000000, 351.000000)">
                            <path d="M36.7109375,12.7265625 C55.4296875,0.171875 78.5221354,0.171875 105.988281,12.7265625" id="Path-17" stroke="#FFFFFF" stroke-width="3"></path>
                            <g id="Oval-6-Copy">
                                <use fill="#4C5365" fill-rule="evenodd" xlink:href="#path-10"></use>
                                <use fill="black" fill-opacity="1" filter="url(#filter-11)" xlink:href="#path-10"></use>
                            </g>
                            <g id="Oval-6-Copy-2">
                                <use fill="#4C5365" fill-rule="evenodd" xlink:href="#path-12"></use>
                                <use fill="black" fill-opacity="1" filter="url(#filter-13)" xlink:href="#path-12"></use>
                            </g>
                            <path d="" id="Path-11" stroke="#979797"></path>
                        </g>
                        <g id="Ear-Gray-Copy" stroke="none" stroke-width="1" fill="none" fill-rule="evenodd" transform="translate(176.000000, 419.500000) rotate(-360.000000) translate(-176.000000, -419.500000) translate(148.000000, 377.000000)">
                            <path d="M6.0198753,45.4094299 C2.25018304,40.6330738 0,34.5987718 0,28.0381944 C0,12.5531272 12.536027,0 28,0 C43.1698013,0 55.5219939,12.0800728 55.9864567,27.1577249 L56,27.1527778 L56,70.8333333 L55.9970428,70.8338113 C55.8398439,78.6843821 49.4354104,85 41.5578947,85 C35.2732777,85 29.9262358,80.9802881 27.9409492,75.3683514 L27.8793997,75.3782993 L5.89473684,45.4551403 L6.0198753,45.4094299 Z" id="Combined-Shape" fill="#F4BBBC"></path>
                            <path d="M46.9978722,28.2380952 L47,28.2380952 L47,47.8809524 L46.9956744,47.8809524 C46.9985513,47.9797988 47,48.0790121 47,48.1785714 C47,53.6027966 42.6999289,58 37.3955224,58 C32.0911159,58 27.7910448,53.6027966 27.7910448,48.1785714 C27.7910448,48.0782594 27.7925154,47.9782985 27.7954359,47.8787103 C27.6971318,47.8802033 27.5986514,47.8809524 27.5,47.8809524 C16.7304474,47.8809524 8,38.9532971 8,27.9404762 C8,16.9276553 16.7304474,8 27.5,8 C38.2695526,8 47,16.9276553 47,27.9404762 C47,28.039854 46.9992891,28.139062 46.9978722,28.2380952 Z" id="Combined-Shape" fill="#D59FA0"></path>
                            <path d="M39.2068966,46.9950412 C34.6481929,46.8405633 31,43.0963222 31,38.5 C31,33.9036778 34.6481929,30.1594367 39.2068966,30.0049588 L39.2068966,30 L48,30 L48,47 L39.2068966,47 L39.2068966,46.9950412 Z" id="Combined-Shape" fill="#BE8C8D"></path>
                            <path d="M48,31 L48,47 L48,47 C43.581722,47 40,43.418278 40,39 L40,39 C40,34.581722 43.581722,31 48,31 Z" id="Rectangle-2" fill="#F4BBBC"></path>
                        </g>
                        <g id="Path-15-Copy" stroke="none" fill="none">
                            <use fill="#5E667B" fill-rule="evenodd" xlink:href="#path-14"></use>
                            <use fill="black" fill-opacity="1" filter="url(#filter-15)" xlink:href="#path-14"></use>
                        </g>
                        <g id="Path-18" stroke="none" fill="none">
                            <use fill="#7F87AA" fill-rule="evenodd" xlink:href="#path-16"></use>
                            <use fill="black" fill-opacity="1" filter="url(#filter-17)" xlink:href="#path-16"></use>
                        </g>
                        <path d="M132.298828,604.654297 C144.414557,636.071602 158.417749,653.653746 174.308406,657.400727 C198.144391,663.0212 235.003231,688.39575 254.192121,680.993368 C273.381012,673.590986 324.279259,678.92494 325.338985,668.162833 C326.045469,660.988096 332.89276,649.676657 345.880859,634.228516 C342.946116,627.062389 332.014475,621.642467 313.085938,617.96875 C304.294997,616.262574 260.011956,647.846878 242.574219,642.253906 C227.581783,637.445239 202.302975,635.919897 189.859375,624.09375 C170.030963,605.249227 172.064966,580.996139 168.277344,577.337891 C165.752262,574.899059 158.815739,576.669566 147.467773,582.649414 L132.298828,604.654297 Z" id="Path-6" stroke="none" fill="#737B9D" fill-rule="evenodd"></path>
                        <path d="M355.504883,422.962891 L342.930664,428.441406" id="Path-15" stroke="#D59FA0" stroke-width="6" fill="none" transform="translate(349.217773, 425.702148) scale(1, -1) translate(-349.217773, -425.702148) "></path>
                        <path d="M362.696289,423.082031 L375.239258,427.347656" id="Path-25" stroke="#D59FA0" stroke-width="6" fill="none" transform="translate(368.967773, 425.214844) scale(1, -1) translate(-368.967773, -425.214844) "></path>
                        <path d="M252.732704,183.692777 C245.111477,181.065019 218.925657,190.104189 240.087694,206.725139 C261.249731,223.346089 260.353931,186.320535 252.732704,183.692777 Z M293.495559,172.719767 C293.495559,172.719767 261.241209,176.391263 282.403246,193.012213 C303.565283,209.633163 293.495559,172.719767 293.495559,172.719767 Z M331.193178,167.550727 C323.247609,160.927765 299.397744,168.170323 314.319391,183.74708 C329.241039,199.323837 339.138746,174.173688 331.193178,167.550727 Z" id="Combined-Shape" stroke="none" fill="#D8D8D8" fill-rule="evenodd"></path>
                    </g>
                </g>
                <path d="M498.571224,-148 C496.284797,-148 489.087915,-146.995885 488.262019,-142.9106 C487.436124,-138.825315 488.778004,-118.145327 491.330873,-109.699458 C493.883742,-101.25359 503.637441,-53.7348955 502.769526,-48.8664588 C501.901611,-43.9980222 508.103797,-31.7841869 507.045346,-29.4137219 C505.986896,-27.0432569 499.465846,-45.7338517 497.593141,-53.3328148 C495.720435,-60.9317779 486.978259,-93.3807775 485.602491,-97.7623704 C484.226723,-102.143963 478.32157,-129.668742 476.585741,-133.711283 C474.849911,-137.753824 469.452612,-136.187521 467.526247,-130.832241 C465.599881,-125.47696 496.968697,-35.9622038 500.419346,-27.9604356 C503.869995,-19.9586673 503.245551,-11.8518509 500.419346,-15.8103536 C497.593141,-19.7688562 443.712926,-114.956935 442.654476,-117.264371 C441.948842,-118.802662 438.301137,-118.033517 431.711361,-114.956935 C470.3681,-56.0140773 489.96887,-25.6534824 490.513671,-23.8751507 C491.330873,-21.2076531 489.159637,-18.5401556 487.381064,-21.2076531 C485.602491,-23.8751507 428.853327,-79.9259255 427.287024,-83.5663859 C425.72072,-87.2068463 418.67163,-92.2237993 415.602776,-90.699515 C412.533922,-89.1752306 404.976978,-87.4821448 408.490656,-83.5663859 C412.004335,-79.650627 494.766935,-2.50329343 497.593141,-1.2543076 C500.419346,-0.00532176757 496.126863,3.08526614 492.194441,2.23836101 C488.262019,1.39145589 414.954375,-30.1903534 411.722516,-36.1592596 C408.490656,-42.1281658 387.464371,-45.2180292 387.231816,-43.8212516 C387.07678,-42.8900665 386.999262,-39.8702351 386.999262,-34.7617575 C458.581702,-4.85951051 495.772356,9.41423378 498.571224,8.05947536 C502.769526,6.02733775 488.551807,12.0382632 485.602491,11.741955 C482.653175,11.4456469 414.954375,31.1744068 411.722516,29.8616677 C408.490656,28.5489285 400.355586,35.0684317 397.222979,34.0737347 C394.090371,33.0790378 385.135925,33.0573037 386.067594,36.0631286 C386.999262,39.0689536 387.169512,45.4189309 391.1483,45.6942294 C395.127088,45.9695279 437.830956,35.636416 441.768449,31.8894585 C445.705942,28.142501 498.069166,13.4734377 500.419346,14.8071865 C502.769526,16.1409353 499.549307,19.3583054 498.571224,20.3109831 C497.593141,21.2636608 455.11608,49.5005934 452.766625,52.8447457 C450.417169,56.188898 436.21394,66.2648231 433.313888,66.6458942 C430.413835,67.0269653 411.978254,78.7104888 412.633899,82.774764 C413.289544,86.8390392 413.322145,93.3592669 415.602776,92.1523003 C417.883407,90.9453337 444.210686,70.6464161 446.583662,67.7463637 C448.956638,64.8463114 477.532623,39.6536007 479.712552,37.8583647 C481.892481,36.0631286 487.381064,32.0843408 487.381064,34.0737347 C487.381064,36.0631286 479.576352,43.8917486 476.585741,46.8548299 C473.59513,49.8179111 466.165692,60.6762636 462.969332,63.6610789 C459.772971,66.6458942 446.676732,79.0357757 442.654476,82.774764 C438.63222,86.5137523 426.905228,100.16566 422.819943,103.404764 C418.734659,106.643868 410.332983,117.163169 408.490656,117.798529 C406.64833,118.433889 401.589358,121.672269 405.040007,125.778563 C408.490656,129.884858 416.427947,128.022246 418.692639,123.852198 C420.957332,119.68215 485.193166,47.4170184 488.262019,44.708226 C491.330873,41.9994337 508.568182,17.4188999 509.838177,20.3109831 C511.108173,23.2030663 506.133963,35.6494564 503.91129,40.1788412 C501.688617,44.708226 490.921548,79.1632823 488.262019,82.774764 C485.602491,86.3862456 478.999674,116.125728 476.585741,120.952146 C474.171807,125.778563 466.554008,139.346432 467.526247,143.050646 C468.498485,146.75486 472.372225,148.385641 474.996978,145.718144 C477.621732,143.050646 489.696469,103.354051 490.513671,97.7531758 C491.330873,92.1523003 504.252515,53.3533234 507.045346,44.708226 C509.838177,36.0631286 511.954353,28.6633947 513.182329,28.6213755 C514.410306,28.5793562 515.638282,36.4326082 514.410306,40.1788412 C513.182329,43.9250743 512.378168,51.1349971 511.108173,58.8904456 C509.838177,66.6458942 508.697862,91.8683082 507.045346,96.1021093 C505.392831,100.33591 505.053055,106.919167 503.91129,110.750163 C502.769526,114.581159 501.540101,126.816004 501.519091,130.816526 C501.498082,134.817048 502.267468,139.430471 500.419346,143.050646 C498.571224,146.670822 507.850957,149.612893 507.045346,140.849707 C506.239736,132.086521 508.568182,104.335708 509.838177,97.7531758 C511.108173,91.1706438 517.669695,71.881637 516.992316,63.6610789 C516.314937,55.4405207 516.929287,34.6069445 520.040884,37.8583647 C523.152482,41.1097848 521.628922,43.8200261 523.152482,49.9794679 C524.676042,56.1389096 532.149672,97.4445517 533.673956,101.995671 C535.19824,106.54679 540.977335,134.128077 545.274165,131.735878 C549.570996,129.343679 552.618115,130.254337 550.417176,119.39526 C548.216237,108.536183 534.266572,47.3184905 531.303491,41.6908096 C528.34041,36.0631286 525.377329,27.3810833 528.34041,28.6213755 C531.303491,29.8616677 541.951023,47.11419 545.274165,49.9794679 C548.597308,52.8447457 574.58766,87.4396246 578.821461,92.1523003 C583.055262,96.8649759 602.634782,118.096286 604.793701,116.656765 C606.952621,115.217243 611.228442,111.597793 606.952621,109.099821 C602.676801,106.601849 541.038191,36.258011 540.847655,34.0737347 C540.65712,31.8894585 590.230411,66.3003221 594.400458,73.1371431 C598.570506,79.973964 622.446855,102.091301 625.45268,103.404764 C628.458505,104.718228 632.882842,104.992802 631.739629,99.9765735 C630.596416,94.960345 623.187988,89.238483 619.991628,86.0066235 C616.795267,82.774764 601.259738,66.9487225 597.830098,65.3049007 C594.400458,63.6610789 540.573081,20.1139273 536.720351,18.8859511 C532.867621,17.6579749 530.560185,13.2278425 534.518688,14.0175145 C538.47719,14.8071865 611.526923,24.2397825 614.25745,25.975612 C616.987976,27.7114415 632.864006,34.0737347 635.848097,34.0737347 C638.832188,34.0737347 665.3543,42.4993178 669.016495,40.1788412 C672.678689,37.8583647 676.742965,31.1019599 671.493457,29.8616677 C666.243949,28.6213755 645.712477,25.4257395 641.28814,23.3298485 C636.863803,21.2339576 629.40901,17.3587689 625.45268,18.12236 C621.496351,18.8859511 592.688536,17.0776747 588.222181,15.9424306 C583.755825,14.8071865 570.927639,10.2509963 564.42987,11.741955 C557.932101,13.2329138 543.326791,9.13024164 544.300478,8.05947536 C545.274165,6.98870909 555.962992,5.91794282 558.270428,6.98870909 C560.577864,8.05947536 588.094674,5.91794282 590.613655,6.98870909 C593.132636,8.05947536 617.915297,7.09810402 619.991628,8.05947536 C622.067958,9.02084671 648.80234,10.7994199 653.565004,10.2488229 C658.327668,9.69822591 664.995688,12.4381705 666.011394,10.2488229 C667.027101,8.05947536 668.424603,8.69048851 666.011394,5.46442476 C663.598186,2.23836101 662.77229,0.366331208 661.904375,-1.2543076 C661.036461,-2.8749464 660.677124,-2.81119307 658.623976,-2.8749464 C656.570829,-2.93869974 619.951057,-1.18258509 614.25745,-2.02876575 C608.563842,-2.8749464 579.353222,-2.42743908 576.368407,-1.18258509 C573.383591,0.0622688896 548.449516,-0.987702733 545.274165,2.23836101 C542.098815,5.46442476 535.622055,4.57550039 539.05097,1.27336732 C542.479886,-2.02876575 571.202937,-9.26766738 573.785672,-10.9187339 C576.368407,-12.5698004 618.681062,-24.9777937 621.665153,-25.5704099 C624.649243,-26.1630262 634.06735,-32.1420749 634.957723,-34.7617575 C635.848097,-37.3814401 641.987978,-42.9279804 635.848097,-41.9115493 C629.708216,-40.8951183 620.416891,-37.5567617 617.855166,-36.1592596 C615.293441,-34.7617575 600.350528,-27.2417616 596.434045,-27.0729601 C592.517562,-26.9041587 580.642778,-18.8813808 577.679697,-19.2624519 C574.716616,-19.643523 556.554159,-12.6502166 551.728466,-10.9187339 C546.902773,-9.18725124 541.38159,-3.59941614 539.05097,-4.80565826 C536.720351,-6.01190037 538.77205,-7.68397653 540.847655,-10.0124223 C542.923261,-12.340868 569.891647,-25.2139708 573.785672,-29.4137219 C577.679697,-33.6134729 585.870552,-36.090435 589.109656,-40.7473265 C592.34876,-45.4042179 609.533182,-59.2379676 616.051961,-62.5401007 C622.57074,-65.8422337 632.985717,-69.5891912 633.133509,-72.7217984 C633.2813,-75.8544055 634.822972,-81.3089382 633.2813,-83.5663859 C631.739629,-85.8238336 622.128089,-81.6537858 619.991628,-78.5211786 C617.855166,-75.3885715 589.04228,-55.3852375 586.015446,-51.5542416 C582.988611,-47.7232456 575.092615,-42.5657455 570.372695,-38.6637515 C565.652775,-34.7617575 562.896892,-32.1833697 556.657034,-27.0729601 C550.417176,-21.9625506 541.38159,-15.5285349 539.05097,-14.0252602 C536.720351,-12.5219854 535.127242,-12.8530681 537.987449,-18.3641094 C540.847655,-23.8751507 555.047262,-51.999066 555.852148,-57.2695833 C556.657034,-62.5401007 563.747419,-71.7901303 566.647472,-75.66387 C569.547524,-79.5376097 583.107424,-101.411525 585.138837,-105.555491 C587.17025,-109.699458 592.609569,-117.264371 587.17025,-117.264371 C581.730932,-117.264371 578.470818,-113.916597 574.851367,-108.815605 C571.231916,-103.714614 562.560013,-84.3596803 558.270428,-75.66387 C553.980843,-66.9680597 549.223975,-57.7991707 547.24907,-53.3328148 C545.274165,-48.8664588 544.271499,-43.8009664 541.661235,-39.980113 C539.05097,-36.1592596 534.266572,-29.984604 531.303491,-24.623528 C528.34041,-19.2624519 526.812503,-14.0252602 524.420304,-14.0252602 C522.028105,-14.0252602 522.324413,-18.9502054 522.028105,-24.623528 C521.731797,-30.2968505 523.615418,-62.0894805 525.520774,-70.8316568 C527.426129,-79.5738332 531.303491,-83.108521 531.303491,-89.2259435 C531.303491,-95.343366 533.792769,-105.163553 532.54813,-108.815605 C531.303491,-112.467657 531.160046,-123.855597 528.34041,-122.818156 C525.520774,-121.780716 518.053664,-118.398891 520.040884,-114.956935 C522.028105,-111.514979 524.015325,-90.1206636 522.028105,-83.5663859 C520.040884,-77.0121082 518.215221,-52.1475823 519.128053,-46.4474544 C520.040884,-40.7473265 521.090641,-13.2565978 518.215221,-15.8103536 C515.3398,-18.3641094 512.694037,-23.6375246 512.333975,-27.0729601 C511.973914,-30.5083956 506.758456,-89.1426295 504.763991,-93.4525 C502.769526,-97.7623704 500.419346,-103.653758 500.419346,-111.74029 C500.419346,-119.826821 500.85765,-148 498.571224,-148 Z" id="Flower" fill="#7F87AA" mask="url(#mask-2)"></path>
            </g>
        </g>
    </g>
</svg>