<?xml version="1.0" encoding="UTF-8" standalone="no"?>
<svg width="300px" height="243px" viewBox="0 0 300 243" version="1.1" xmlns="http://www.w3.org/2000/svg" xmlns:xlink="http://www.w3.org/1999/xlink">
    <!-- Generator: Sketch 49.1 (51147) - http://www.bohemiancoding.com/sketch -->
    <title>Logo Outline</title>
    <desc>Created with Sketch.</desc>
    <defs></defs>
    <g id="Page-1" stroke="none" stroke-width="1" fill="none" fill-rule="evenodd">
        <g id="Logo-Outline" transform="translate(-28.000000, -14.000000)">
            <path d="M117.1358,166.0258 C118.421006,169.427817 119.0636,172.754184 119.0636,176.005 C119.0636,184.01864 115.321437,191.729763 107.837,199.1386 C100.806165,206.169435 93.1706412,209.6848 84.9302,209.6848 C82.8133894,209.6848 80.5832117,209.458002 78.2396,209.0044 C66.0679391,206.811989 57.7898219,199.70566 53.405,187.6852 C51.4393902,182.468774 50.4566,178.197417 50.4566,174.871 C50.4566,169.578974 53.1403732,163.001839 58.508,155.1394 C61.0028125,151.510582 68.0713418,149.469402 79.7138,149.0158 C100.125902,148.184196 112.599777,153.854139 117.1358,166.0258 Z M98.6516,184.6234 C98.6516,181.674985 97.4987115,179.142411 95.1929,177.0256 C92.8870885,174.908789 90.0710166,173.8504 86.7446,173.8504 C83.4181834,173.8504 80.5832117,174.908789 78.2396,177.0256 C75.8959883,179.142411 74.7242,181.674985 74.7242,184.6234 C74.7242,187.647415 75.8959883,190.217789 78.2396,192.3346 C80.5832117,194.451411 83.4181834,195.5098 86.7446,195.5098 C90.0710166,195.5098 92.8870885,194.451411 95.1929,192.3346 C97.4987115,190.217789 98.6516,187.647415 98.6516,184.6234 Z" id="o" fill="#F4BBBC"></path>
            <path d="M42.9183621,227.462348 C41.3640488,228.696055 39.8089729,229.606784 38.253088,230.194562 C36.2021487,230.969362 33.3717378,231.392116 29.7617703,231.462838 C24.9306689,231.509986 20.2497257,229.601305 15.7188,225.736739 C11.5336266,222.14563 8.42583234,217.662706 6.39532388,212.28783 C2.97552015,203.235409 3.91375186,196.09259 9.21004715,190.859158 C17.9842954,182.210638 29.584894,175.161328 44.0121909,169.711015 C49.5992324,167.600355 57.0524382,165.18877 66.372032,162.476187 L92.5532018,154.767522 C94.3746873,154.241036 96.3627327,154.904242 98.5173976,156.757159 C100.406462,158.548784 101.831883,160.717561 102.793703,163.263555 C104.316584,167.294711 103.76496,169.68508 101.138815,170.434734 C96.2401347,171.800455 85.4033227,174.560931 68.6280539,178.716244 C58.0166041,181.431971 49.8113985,183.885203 44.0121909,186.076015 C37.2228747,188.640867 30.899633,191.797381 25.0422762,195.545649 C23.0369134,196.868937 22.394924,198.485304 23.1162888,200.394799 C23.9178053,202.516461 27.4503184,206.091407 33.7139341,211.119744 C39.9775498,216.148081 43.5501382,219.829108 44.4318063,222.162936 C45.2066056,224.213875 44.7021292,225.980328 42.9183621,227.462348 Z" id="L" fill="#FFFFFF" transform="translate(54.007405, 193.028235) rotate(-69.000000) translate(-54.007405, -193.028235) "></path>
            <path d="M112.297741,182.917303 C113.067531,182.306297 114.160395,181.342337 115.576367,180.025396 C116.992339,178.708454 118.055597,177.767995 118.766172,177.203989 C121.786118,174.806964 124.811736,173.997999 127.843118,174.77707 C128.940055,175.064641 129.770515,175.563706 130.33452,176.274282 C131.368531,177.577004 131.702589,180.521106 131.336703,185.106677 C130.970818,189.692247 131.398875,192.754777 132.620888,194.294357 C133.090893,194.886504 133.708925,195.361141 134.475003,195.718285 C137.727317,197.383719 141.573964,196.453932 146.015061,192.928895 C150.160085,189.638861 153.061947,185.694742 154.720735,181.096418 C156.428379,176.073233 155.596842,172.775974 152.226099,171.204542 C148.961571,169.645323 146.459836,167.770271 144.720818,165.57933 C141.242782,161.197448 141.430093,156.994979 145.282755,152.971798 C146.634333,151.512927 148.393622,150.719768 150.560674,150.592298 C152.727725,150.464828 154.862084,150.387413 156.963814,150.360051 C163.908151,149.867174 170.568139,151.144221 176.943979,154.19123 C182.966388,157.036166 188.186537,161.241658 192.604582,166.807833 C199.795656,175.86767 203.368867,186.206335 203.324321,197.824136 C203.264927,213.314538 197.787567,225.383602 186.892076,234.031691 C183.931345,236.381715 180.599839,238.446922 176.897458,240.227372 C168.120402,244.491423 157.195947,243.800167 144.123765,238.153583 C132.030091,232.888571 122.129363,225.400578 114.421284,215.68938 C109.486233,209.471844 106.692919,203.581395 106.041259,198.017855 C105.344454,191.911025 107.429927,186.877558 112.297741,182.917303 Z M156.947469,219.288222 C160.57393,221.911448 164.477546,223.059859 168.658434,222.73349 C172.839322,222.407121 176.74186,220.757339 180.366166,217.784094 C183.872043,214.90485 186.163447,211.590049 187.240447,207.83959 C188.401089,203.8297 188.133011,199.843909 186.436204,195.882098 C185.886268,194.581232 185.164806,193.368278 184.271797,192.243201 C181.216766,188.39425 176.924668,186.178794 171.395375,185.596767 C165.866083,185.014739 161.088211,186.321722 157.061616,189.517755 C153.094237,192.666787 150.810871,196.964528 150.21145,202.411106 C149.612029,207.857684 150.839816,212.505378 153.894847,216.354329 C154.787857,217.479406 155.805387,218.457361 156.947469,219.288222 Z" id="A" fill="#FFFFFF" transform="translate(154.617554, 196.618200) rotate(224.000000) translate(-154.617554, -196.618200) "></path>
            <path d="M229.638244,145.616913 C231.561274,145.74721 233.544204,146.089609 235.587095,146.644121 C244.050502,148.941381 252.43507,154.703137 260.741052,163.92956 C268.363293,172.500378 274.232825,182.044544 278.349824,192.562345 C282.606489,203.4314 283.784213,212.367892 281.883032,219.372091 C280.061067,226.084448 275.483885,229.816296 268.15135,230.567749 C256.94044,231.754859 244.116781,231.524966 229.67999,229.878063 C213.730835,227.742316 197.745439,225.5967 181.723323,223.44115 C180.80819,223.349423 179.912875,223.184738 179.03735,222.94709 C174.003083,221.580616 170.806437,218.206226 169.447316,212.823817 C168.31437,208.051151 168.708384,202.126328 170.629369,195.049169 C172.471138,188.263852 175.408574,181.482291 179.441764,174.704282 C183.474954,167.926273 187.85281,162.475707 192.575462,158.352422 C198.324778,153.332771 204.029442,149.848209 209.689625,147.898631 C215.349808,145.949054 221.999281,145.188488 229.638244,145.616913 Z M231.178049,177.173226 C225.254709,175.33042 219.903658,175.131315 215.124736,176.575907 C211.101478,177.833932 206.965707,180.588909 202.717297,184.84092 C198.468887,189.09293 195.839721,193.079366 194.829718,196.800346 C193.760304,200.740208 195.059489,203.168721 198.727313,204.08596 C220.369455,209.490368 237.992788,211.806406 251.597843,211.034142 C254.462065,210.87156 256.171406,209.76884 256.725917,207.725949 C257.795332,203.786088 255.285559,198.169762 249.196524,190.876804 C243.107488,183.583847 237.10139,179.016033 231.178049,177.173226 Z" id="D" fill="#FFFFFF" transform="translate(225.790180, 188.407384) rotate(74.000000) translate(-225.790180, -188.407384) "></path>
            <path d="M323.9018,197.599 C326.623414,202.361824 327.9842,207.464773 327.9842,212.908 C327.9842,219.863235 325.829622,226.610467 321.5204,233.1499 C317.211178,239.689333 311.616834,245.037979 304.7372,249.196 C296.79916,253.958824 289.012438,256.3402 281.3768,256.3402 C273.816762,256.3402 266.597034,253.958824 259.7174,249.196 C257.298188,247.532792 254.935712,245.812909 252.6299,244.0363 C250.324088,242.259691 248.982202,240.010614 248.6042,237.289 C248.452999,236.532996 248.3774,235.777004 248.3774,235.021 C248.3774,230.560578 250.607578,226.553818 255.068,223.0006 C256.428807,221.866594 257.940792,221.2996 259.604,221.2996 C261.494009,221.2996 264.536879,222.528088 268.7327,224.9851 C272.928521,227.442112 276.198188,228.6706 278.5418,228.6706 C279.600205,228.6706 280.620795,228.481602 281.6036,228.1036 C287.122428,226.213591 291.582783,223.24632 294.9848,219.2017 C298.386817,215.15708 300.0878,210.526626 300.0878,205.3102 C300.0878,204.402995 300.012201,203.458005 299.861,202.4752 C299.407398,198.54398 297.290619,196.5784 293.5106,196.5784 C291.091388,196.5784 286.234136,197.844687 278.9387,200.3773 C271.643264,202.909913 266.256817,204.1762 262.7792,204.1762 C258.84798,204.1762 255.824011,202.928812 253.7072,200.434 C248.490774,194.310369 245.8826,187.846634 245.8826,181.0426 C245.8826,177.489382 246.600793,173.785019 248.0372,169.9294 C251.741619,159.95015 260.926927,154.9606 275.5934,154.9606 C278.239413,154.9606 281.754778,155.262997 286.1396,155.8678 C291.204825,156.472603 294.682391,156.8128 296.5724,156.8884 C298.160008,156.8884 299.785392,156.945099 301.4486,157.0585 C303.111808,157.171901 304.359196,157.776695 305.1908,158.8729 C306.022404,159.969105 306.4382,161.121994 306.4382,162.3316 C306.4382,163.390005 305.304211,166.224977 303.0362,170.8366 C301.675393,173.633814 299.218418,175.0324 295.6652,175.0324 C293.245988,175.0324 289.258128,174.144109 283.7015,172.3675 C278.144872,170.590891 274.232611,169.7026 271.9646,169.7026 C268.486983,169.7026 266.181206,171.195685 265.0472,174.1819 C263.913194,177.168115 263.3462,179.64399 263.3462,181.6096 C263.3462,183.348409 263.724196,185.162791 264.4802,187.0528 C265.387405,189.320811 266.748191,190.4548 268.5626,190.4548 C270.225808,190.4548 274.194769,188.48922 280.4696,184.558 C286.51763,180.777981 291.280383,179.114798 294.758,179.5684 C301.713235,180.475605 307.383178,182.252187 311.768,184.8982 C316.682025,187.771014 320.726584,192.004572 323.9018,197.599 Z" id="S" fill="#FFFFFF"></path>
            <path d="M162.92672,125.3294 C161.747354,125.3294 160.001012,125.420119 157.68764,125.60156 C155.374268,125.783001 153.673285,125.87372 152.58464,125.87372 C147.957897,125.87372 144.510571,124.376855 142.24256,121.38308 C141.426076,120.294435 141.01784,119.205805 141.01784,118.11716 C141.01784,116.12131 142.900261,113.1049 146.66516,109.06784 C150.430059,105.03078 152.31248,101.832932 152.31248,99.4742 C152.31248,98.5669955 152.085682,97.6598045 151.63208,96.7526 C149.817671,92.7609 145.508514,90.76508 138.70448,90.76508 C132.354048,90.76508 126.684105,92.3073046 121.69448,95.3918 C116.341973,98.8391772 114.66367,102.55866 116.65952,106.55036 C118.56465,110.45134 119.5172,114.080103 119.5172,117.43676 C119.5172,124.150074 116.205953,127.960275 109.58336,128.86748 C107.224628,129.230362 104.979331,128.663367 102.8474,127.16648 C100.715469,125.669593 98.65161,124.150048 96.65576,122.6078 C89.7610055,117.890336 84.4539386,111.721438 80.7344,104.10092 C77.1963023,96.9340042 75.42728,89.0868026 75.42728,80.55908 C75.42728,66.6788506 79.7817965,54.2956944 88.49096,43.40924 C100.103178,28.8939674 114.255357,21.63644 130.94792,21.63644 C135.483943,21.63644 140.155976,22.1807546 144.96416,23.2694 C156.394937,25.8095727 166.14724,34.6093247 174.22136,49.66892 C181.660437,63.6398699 185.37992,78.0642056 185.37992,92.94236 C185.37992,102.468008 183.610898,110.088411 180.0728,115.8038 C176.17182,122.063511 170.456518,125.23868 162.92672,125.3294 Z M148.094,57.83372 C146.642473,52.6626541 143.830181,48.6710141 139.65704,45.85868 C135.483899,43.0463459 130.585068,41.6855595 124.9604,41.77628 C119.517173,41.8670005 114.890499,43.2731464 111.08024,45.99476 C106.99782,48.8978145 104.276247,52.8440951 102.91544,57.83372 C102.461838,59.4666882 102.23504,61.1449914 102.23504,62.86868 C102.23504,68.7655095 104.616416,74.0498966 109.37924,78.722 C114.142064,83.3941034 119.607889,85.73012 125.77688,85.73012 C131.85515,85.73012 137.207577,83.3941034 141.83432,78.722 C146.461063,74.0498966 148.7744,68.7655095 148.7744,62.86868 C148.7744,61.1449914 148.547602,59.4666882 148.094,57.83372 Z" id="A" fill="#FFFFFF"></path>
            <path d="M257.110713,78.4056098 C253.807241,82.5261952 249.227756,84.2385667 243.37212,83.5427757 L226.71725,79.3163629 C219.751683,77.8126311 214.082981,78.2353398 209.710976,80.5845019 C207.745644,81.5934506 205.980309,82.9184886 204.414919,84.5596556 C202.035526,87.0542294 199.553931,91.3317883 196.97006,97.3924604 C194.386189,103.453133 192.029824,107.5994 189.900893,109.831387 C187.834578,111.997728 185.337051,113.56465 182.408235,114.5322 C179.929854,115.553273 177.37021,116.528128 174.729228,117.456793 C172.088245,118.385458 169.978509,118.034278 168.399958,116.403241 C165.705413,113.707739 165.144872,110.35227 166.718319,106.336736 C176.152935,81.9870022 183.39494,65.3251996 188.44455,56.3508279 C190.969355,51.863642 198.847157,40.3842599 212.078194,21.9123372 C212.576088,21.2589015 213.075489,20.6696058 213.576414,20.1444323 C217.646429,15.8773982 223.040423,14.6911893 229.758559,16.5857701 C235.829322,18.2389817 241.851536,21.9145425 247.825384,27.6125627 C252.289358,31.8704239 255.733245,36.4089902 258.157147,41.2283978 C265.622761,55.746205 265.273954,68.1384851 257.110713,78.4056098 Z M240.272424,62.344787 C243.09922,59.7754733 244.758748,56.6883708 245.251058,53.083387 C245.743368,49.4784031 244.988163,46.0312863 242.985421,42.7419329 C241.65127,40.5917848 240.097988,38.6714288 238.325527,36.9808074 C233.861553,32.7229462 230.41316,32.0665291 227.980245,35.0115364 C222.431704,41.8801892 219.658991,45.3785942 219.662022,45.5068565 C218.264298,48.8124021 216.899418,52.1492055 215.567341,55.5173667 C214.34534,58.1129232 214.719033,60.349902 216.688434,62.2283702 C219.117361,64.5451476 222.979828,65.7532318 228.275952,65.8526591 C233.572076,65.9520863 237.57086,64.7828073 240.272424,62.344787 Z" id="P" fill="#FFFFFF" transform="translate(214.677320, 66.837061) rotate(-23.000000) translate(-214.677320, -66.837061) "></path>
            <path d="M279.336044,105.255024 C278.748246,109.172144 276.425076,112.009189 272.366462,113.766244 L259.975275,117.306733 C254.892416,118.958547 251.376775,121.370237 249.428246,124.541876 C248.534584,125.937101 247.889777,127.46183 247.493806,129.116109 C246.89193,131.630612 246.896153,135.339571 247.506476,140.243099 C248.116799,145.146626 248.152699,148.723246 247.614178,150.973064 C247.091497,153.156712 246.06322,155.114363 244.529316,156.846075 C243.307614,158.44263 242.0158,160.039864 240.653836,161.637827 C239.291872,163.235789 237.791693,163.803691 236.153253,163.341548 C233.389905,162.610146 231.761169,160.64616 231.266997,157.449531 C228.201304,138.105736 226.613222,124.572886 226.502703,116.850574 C226.447443,112.989418 227.225823,102.576595 228.837866,85.6117947 C228.914244,85.0004157 229.015787,84.4300502 229.142498,83.9006811 C230.172023,79.5995574 233.221657,76.7964777 238.291492,75.4913581 C242.850613,74.2738799 248.140881,74.3858064 254.162454,75.827141 C258.662091,76.9041821 262.606254,78.547877 265.995061,80.7582747 C276.309662,87.3549746 280.756612,95.5204762 279.336044,105.255024 Z M262.363232,101.192382 C263.226977,98.460711 263.138721,95.8335275 262.098462,93.3107529 C261.058203,90.7879783 259.268705,88.8379827 256.729916,87.4607078 C255.054167,86.5698611 253.323008,85.9106233 251.536388,85.4829746 C247.036751,84.4059335 244.55361,85.2807518 244.086892,88.107456 C243.079894,94.6527667 242.601568,97.9663774 242.6519,98.0483874 C242.992259,100.718463 243.365698,103.396418 243.772228,106.082333 C243.958774,108.225855 245.044598,109.535179 247.029732,110.010345 C249.478064,110.596382 252.437682,109.923065 255.908675,107.990376 C259.379668,106.057686 261.531165,103.791711 262.363232,101.192382 Z" id="P" fill="#D59FA0" transform="translate(253.046973, 119.076092) rotate(-15.000000) translate(-253.046973, -119.076092) "></path>
        </g>
    </g>
</svg>