<?xml version="1.0" encoding="UTF-8" standalone="no"?>
<svg width="1140px" height="458px" viewBox="0 0 1140 458" version="1.1" xmlns="http://www.w3.org/2000/svg" xmlns:xlink="http://www.w3.org/1999/xlink">
    <!-- Generator: Sketch 48.2 (47327) - http://www.bohemiancoding.com/sketch -->
    <title>Artboard</title>
    <desc>Created with Sketch.</desc>
    <defs>
        <rect id="path-1" x="0" y="0" width="1140" height="458"></rect>
    </defs>
    <g id="Page-1" stroke="none" stroke-width="1" fill="none" fill-rule="evenodd">
        <g id="Artboard">
            <g id="BG">
                <mask id="mask-2" fill="white">
                    <use xlink:href="#path-1"></use>
                </mask>
                <use id="Mask" fill="#1B244D" xlink:href="#path-1"></use>
                <g mask="url(#mask-2)">
                    <g transform="translate(-293.000000, -610.000000)">
                        <path d="M992.433376,370.067797 C1028.43338,413.40113 1034.76671,454.40113 1011.43338,493.067797 C976.433376,551.067797 916.433376,596.067797 908.433376,640.067797 C900.433376,684.067797 898.433376,713.067797 860.433376,684.067797 C822.433376,655.067797 656.433376,500.067797 666.433376,378.067797 C673.100043,296.734463 781.76671,294.067797 992.433376,370.067797 Z" id="Path-29" fill="#131A3A"></path>
                        <path d="M680.621766,531 C680.621766,531 925.762798,770.2102 803.192282,831.495458 C680.621766,892.780716 443.38851,880.919053 562.005138,1007.44346 C680.621766,1133.96786 749.814799,1207.11478 607.474846,1300.03114 C465.134892,1392.9475 318.84105,1264.44615 429.549903,1434.46332 C540.258756,1604.48048 459.20406,1653.90408 397.918803,1661.81185 C336.633545,1669.71963 97.4233447,1699.37379 188.36276,1780.42848 C279.302174,1861.48318 310.933275,1932.65316 267.440512,1989.98453 C223.947748,2047.3159 210.109141,2078.947 247.671074,2156.04781 C285.233006,2233.14861 154.754715,2316.18025 121.14667,2201.51751 C87.5386257,2086.85477 53.930581,1995.91536 87.5386257,1932.65316 C121.14667,1869.39095 123.123614,1823.92125 53.930581,1796.24403 C-15.262452,1768.56682 -27.1241148,1590.64188 75.6769629,1557.03383 C178.478041,1523.42579 99.4002885,1442.79553 87.5386257,1418.64777 C75.6769629,1394.5 69.7461315,1240.72282 188.36276,1195.25312 C306.979388,1149.78341 297.094669,1064.77483 247.671074,1007.44346 C198.247479,950.112086 174.524153,788.002694 279.302174,750.440762 C384.080196,712.87883 605.497902,695.086336 577.820689,625.893302 C550.143475,556.700269 680.621766,531 680.621766,531 Z" id="Path-28" fill="#202A54"></path>
                        <path d="M1636.43338,1015.0678 C1672.43338,1058.40113 1678.76671,1099.40113 1655.43338,1138.0678 C1620.43338,1196.0678 1560.43338,1241.0678 1552.43338,1285.0678 C1544.43338,1329.0678 1542.43338,1358.0678 1504.43338,1329.0678 C1466.43338,1300.0678 1300.43338,1145.0678 1310.43338,1023.0678 C1317.10004,941.734463 1425.76671,939.067797 1636.43338,1015.0678 Z" id="Path-29-Copy" fill="#252E57" transform="translate(1489.598711, 1150.365163) scale(-1, -1) translate(-1489.598711, -1150.365163) "></path>
                        <path d="M1018.16641,532.299829 C998.042417,540.349427 983.166412,552.299829 970.166412,602.299829 C957.166412,652.299829 936.166412,654.299829 901.166412,660.299829 C866.166412,666.299829 811.166412,703.299829 808.166412,756.299829 C805.166412,809.299829 824.166412,868.299829 808.166412,893.299829 C792.166412,918.299829 804.166412,957.299829 832.166412,927.299829 C860.166412,897.299829 873.166412,828.299829 931.166412,809.299829 C989.166412,790.299829 1079.16641,742.299829 1069.16641,701.299829 C1059.16641,660.299829 1026.16641,601.299829 1030.16641,578.299829 C1034.16641,555.299829 1038.29041,524.250231 1018.16641,532.299829 Z" id="Path-26" fill="#222D5C"></path>
                        <path d="M1753.51327,2.91197901 C1708.42991,20.9453212 1675.10352,47.7175511 1645.97989,159.731481 C1616.85627,271.745412 1569.81042,276.225969 1491.40067,289.667641 C1412.99092,303.109312 1289.7756,385.999621 1283.05476,504.734387 C1276.33392,623.469153 1318.89922,755.645591 1283.05476,811.652556 C1247.2103,867.659521 1274.09365,955.030387 1336.82145,887.822029 C1399.54925,820.61367 1428.67287,666.034447 1558.60903,623.469153 C1688.54519,580.903859 1890.17026,473.370486 1867.76748,381.519064 C1845.36469,289.667641 1771.4355,157.491203 1780.39661,105.964795 C1789.35772,54.438387 1798.59662,-15.1213632 1753.51327,2.91197901 Z" id="Path-26-Copy" fill="#222D5C"></path>
                        <path d="M1120.51327,605.911979 C1075.42991,623.945321 1042.10352,650.717551 1012.97989,762.731481 C983.856272,874.745412 936.810421,879.225969 858.40067,892.667641 C779.990919,906.109312 656.775596,988.999621 650.05476,1107.73439 C643.333924,1226.46915 685.899217,1358.64559 650.05476,1414.65256 C614.210302,1470.65952 641.093645,1558.03039 703.821446,1490.82203 C766.549247,1423.61367 795.672869,1269.03445 925.609028,1226.46915 C1055.54519,1183.90386 1257.17026,1076.37049 1234.76748,984.519064 C1212.36469,892.667641 1138.4355,760.491203 1147.39661,708.964795 C1156.35772,657.438387 1165.59662,587.878637 1120.51327,605.911979 Z" id="Path-26-Copy-2" fill="#182045"></path>
                        <path d="M1383.2532,186.44924 C1262.93968,250.41988 1197.23486,256.50756 1174.45711,460.010298 C1151.67935,663.513037 1222.90681,711.886639 1237.09593,641.828319 C1251.28506,571.769999 1221.91076,481.695016 1295.93847,498.375569 C1369.96617,515.056121 1331.0072,595.551184 1305.4292,665.181092 C1279.8512,734.811001 1316.91203,863.251254 1350.08261,863.251254 C1383.2532,863.251254 1352.99772,721.445177 1369.96617,690.201921 C1386.93462,658.958664 1449.68832,648.50054 1449.68832,711.886639 C1449.68832,775.272738 1502.83641,915.389377 1544.59563,898.708825 C1586.35485,882.028273 1535.1049,841.994947 1527.51231,753.58802 C1519.91973,665.181092 1538.90119,563.429723 1593.94743,470.01863 C1648.99368,376.607537 1667.97514,243.163118 1626.21592,219.810345 C1584.4567,196.457571 1503.56671,122.4786 1383.2532,186.44924 Z" id="Path-27" fill="#F4BBBC"></path>
                        <path d="M535.253197,829.44924 C414.939683,893.41988 349.234862,899.50756 326.457106,1103.0103 C303.679351,1306.51304 374.90681,1354.88664 389.095933,1284.82832 C403.285056,1214.77 373.910763,1124.69502 447.938468,1141.37557 C521.966173,1158.05612 483.0072,1238.55118 457.429199,1308.18109 C431.851199,1377.811 468.912025,1506.25125 502.082611,1506.25125 C535.253197,1506.25125 504.997723,1364.44518 521.966173,1333.20192 C538.934622,1301.95866 601.688316,1291.50054 601.688316,1354.88664 C601.688316,1418.27274 654.836412,1558.38938 696.59563,1541.70883 C738.354848,1525.02827 687.104899,1484.99495 679.512314,1396.58802 C671.919729,1308.18109 690.901191,1206.42972 745.947433,1113.01863 C800.993675,1019.60754 819.975138,886.163118 778.21592,862.810345 C736.456702,839.457571 655.566711,765.4786 535.253197,829.44924 Z" id="Path-27-Copy" fill="#181E39" transform="translate(561.436442, 1173.538568) scale(1, -1) translate(-561.436442, -1173.538568) "></path>
                        <path d="M803.730656,1031.91909 C822.435352,1048.28569 839.556349,1039.91909 841.556349,1063.91909 C843.556349,1087.91909 854.556349,1109.91909 827.556349,1110.91909 C800.556349,1111.91909 792.556349,1095.91909 788.556349,1079.91909 C784.556349,1063.91909 777.556349,1044.91909 766.556349,1035.91909 C755.556349,1026.91909 766.556349,1001.91909 777.556349,1007.91909 C788.556349,1013.91909 785.025961,1015.55248 803.730656,1031.91909 Z" id="Path-31" fill="#222D5C"></path>
                    </g>
                </g>
            </g>
        </g>
    </g>
</svg>